<svg id="svg" version="1.1" xmlns="http://www.w3.org/2000/svg" xmlns:xlink="http://www.w3.org/1999/xlink" width="400" height="400" viewBox="0, 0, 400,400"><g id="svgg"><path id="path0" d="M180.750 31.113 C 137.519 31.913,108.545 37.626,80.324 50.914 L 77.898 52.056 77.694 61.820 C 77.582 67.190,77.418 73.346,77.329 75.500 C 77.087 81.383,76.525 95.186,76.331 100.000 C 74.780 138.433,77.342 157.852,88.429 191.678 C 108.907 254.158,142.174 298.414,195.893 334.638 L 199.869 337.319 201.143 336.462 C 256.443 299.248,297.461 240.513,311.748 178.083 C 318.861 147.001,321.293 117.782,319.667 82.917 C 319.304 75.134,318.003 55.320,317.702 53.000 L 317.583 52.083 315.000 50.791 C 287.105 36.840,240.487 30.007,180.750 31.113 M195.213 45.604 C 195.743 45.737,196.362 45.929,196.588 46.033 L 197.000 46.220 197.000 70.961 C 197.000 94.456,196.985 95.697,196.708 95.590 C 194.156 94.603,189.019 94.892,183.417 96.337 C 178.942 97.492,175.655 97.653,171.958 96.900 L 171.500 96.807 171.500 72.320 C 171.500 58.852,171.520 47.833,171.545 47.833 C 171.571 47.833,172.339 48.027,173.254 48.264 C 176.824 49.189,180.250 48.989,183.144 47.686 C 188.089 45.459,191.959 44.792,195.213 45.604 M206.693 45.595 C 208.341 45.908,210.094 46.483,212.581 47.528 C 216.412 49.138,219.827 49.246,224.458 47.903 L 224.833 47.794 224.833 72.295 L 224.833 96.796 223.708 97.023 C 221.561 97.457,216.592 97.321,214.333 96.768 C 209.079 95.480,207.282 95.156,204.833 95.056 C 202.436 94.958,202.171 94.988,200.042 95.598 L 199.667 95.706 199.667 70.961 L 199.667 46.217 200.292 45.946 C 202.071 45.173,203.928 45.071,206.693 45.595 M230.792 76.385 L 230.750 100.850 228.625 98.827 L 226.500 96.805 226.500 72.195 L 226.500 47.585 228.667 49.752 L 230.834 51.919 230.792 76.385 M169.333 72.708 L 169.332 97.083 167.258 99.250 L 165.184 101.417 165.175 76.722 L 165.167 52.027 166.042 51.201 C 167.071 50.230,169.216 48.333,169.285 48.333 C 169.312 48.333,169.333 59.302,169.333 72.708 M182.000 57.083 L 182.000 60.333 182.662 60.333 L 183.324 60.333 183.370 58.137 L 183.417 55.942 184.663 58.137 L 185.910 60.333 186.705 60.333 L 187.500 60.333 187.500 57.083 L 187.500 53.833 186.838 53.833 L 186.176 53.833 186.130 56.065 L 186.083 58.296 184.833 56.071 L 183.583 53.845 182.792 53.839 L 182.000 53.833 182.000 57.083 M203.447 54.066 C 200.994 54.975,200.702 59.228,203.009 60.463 C 204.660 61.347,206.761 60.560,207.247 58.875 C 207.437 58.219,206.014 58.331,205.632 59.003 C 204.533 60.933,202.215 58.964,202.842 56.633 C 203.251 55.116,204.950 54.633,205.636 55.838 C 205.867 56.244,206.025 56.331,206.532 56.332 C 207.337 56.334,207.396 56.193,206.953 55.320 C 206.340 54.111,204.806 53.562,203.447 54.066 M179.000 57.417 L 179.000 60.667 179.500 60.667 L 180.000 60.667 180.000 57.417 L 180.000 54.167 179.500 54.167 L 179.000 54.167 179.000 57.417 M210.667 54.926 C 208.941 55.487,208.094 57.127,208.506 59.111 C 209.193 62.421,213.830 62.606,214.773 59.361 C 215.597 56.526,213.318 54.065,210.667 54.926 M215.833 58.250 L 215.833 61.500 216.495 61.500 L 217.157 61.500 217.203 59.296 L 217.250 57.091 218.585 59.254 L 219.920 61.417 220.627 61.468 L 221.333 61.519 221.333 58.260 L 221.333 55.000 220.667 55.000 L 220.000 55.000 219.995 57.208 C 219.989 59.769,220.080 59.786,218.487 56.928 L 217.417 55.008 216.625 55.004 L 215.833 55.000 215.833 58.250 M212.381 56.014 C 213.805 56.663,213.723 59.748,212.263 60.444 C 211.027 61.033,210.000 60.022,210.000 58.217 C 210.000 56.287,210.983 55.377,212.381 56.014 M118.519 59.763 C 120.282 60.985,121.145 63.657,120.940 67.261 L 120.835 69.104 121.793 69.049 C 124.275 68.905,125.446 69.614,124.014 70.393 C 121.412 71.809,120.354 75.719,121.946 78.037 C 122.951 79.500,125.050 80.232,127.977 80.140 L 129.703 80.086 130.089 80.846 C 132.459 85.508,140.476 82.642,140.131 77.256 C 140.008 75.339,137.686 72.167,136.406 72.167 C 135.825 72.167,135.750 71.857,136.282 71.652 C 137.454 71.199,139.003 71.835,140.398 73.342 L 141.353 74.373 141.801 73.978 C 142.048 73.761,142.644 73.223,143.125 72.782 C 144.680 71.359,146.683 70.844,146.799 71.837 C 146.934 72.997,142.921 81.799,139.651 87.516 L 138.450 89.616 137.605 89.295 C 135.400 88.457,128.884 87.586,120.310 86.983 C 113.656 86.515,101.122 87.851,97.648 89.398 C 97.431 89.495,96.960 88.740,95.198 85.467 C 90.193 76.174,88.175 71.118,89.325 70.753 C 90.159 70.488,91.892 71.396,93.525 72.954 L 94.499 73.883 95.521 72.767 C 97.140 71.000,98.831 70.410,99.704 71.307 C 100.069 71.683,100.072 71.705,99.772 71.891 C 98.692 72.558,98.350 72.870,97.554 73.915 C 95.461 76.663,95.570 79.616,97.841 81.741 C 100.644 84.363,104.456 83.907,105.836 80.785 L 106.188 79.986 107.154 80.095 C 110.667 80.493,114.054 78.957,114.737 76.657 C 115.505 74.073,113.976 70.568,111.763 69.838 C 110.924 69.561,111.084 69.312,112.260 69.064 C 113.501 68.802,114.217 68.783,114.441 69.007 C 114.561 69.128,114.648 68.555,114.724 67.132 C 114.916 63.541,115.558 61.426,116.849 60.135 C 117.787 59.197,117.723 59.212,118.519 59.763 M276.689 60.125 C 278.296 61.799,278.851 63.511,278.889 66.917 L 278.914 69.083 280.332 69.096 C 282.584 69.117,283.103 69.619,281.678 70.394 C 278.610 72.064,278.082 76.848,280.743 78.860 C 282.016 79.823,283.052 80.083,285.612 80.083 L 287.807 80.083 288.011 80.699 C 289.621 85.577,298.060 82.743,298.067 77.322 C 298.070 75.222,295.804 72.167,294.244 72.167 C 293.496 72.167,293.505 71.913,294.262 71.663 C 295.828 71.146,297.603 72.100,298.753 74.077 C 298.904 74.336,299.068 74.249,300.213 73.297 C 302.151 71.685,304.030 70.945,304.824 71.481 C 305.608 72.009,297.306 89.799,296.394 89.543 C 296.315 89.520,295.811 89.348,295.274 89.160 C 292.320 88.124,278.549 86.688,273.667 86.908 C 265.566 87.272,258.666 88.179,256.320 89.188 C 255.864 89.385,255.469 89.516,255.443 89.481 C 255.416 89.446,254.337 87.467,253.044 85.083 C 249.161 77.925,247.176 73.685,246.684 71.494 L 246.540 70.856 247.145 70.755 C 248.367 70.552,249.979 71.352,251.797 73.063 L 252.678 73.892 252.960 73.488 C 254.447 71.364,256.399 70.382,257.417 71.247 L 257.917 71.672 257.333 72.121 C 252.755 75.650,252.739 80.625,257.298 82.870 C 259.885 84.143,262.827 83.191,263.747 80.782 L 264.014 80.083 265.882 80.074 C 270.709 80.049,273.000 78.309,272.798 74.822 C 272.676 72.705,271.169 70.210,269.837 69.917 C 269.085 69.752,268.861 69.370,269.444 69.247 C 269.704 69.193,270.236 69.067,270.626 68.969 C 271.016 68.870,271.625 68.829,271.979 68.876 L 272.624 68.963 272.742 66.690 C 272.965 62.384,273.482 60.847,275.068 59.771 C 275.887 59.215,275.797 59.196,276.689 60.125 M187.500 69.750 L 187.500 73.000 188.167 73.000 L 188.833 73.000 188.853 70.542 L 188.873 68.083 189.474 70.550 L 190.074 73.016 190.658 72.966 L 191.242 72.917 191.858 70.333 L 192.475 67.750 192.487 70.375 L 192.500 73.000 193.167 73.000 L 193.833 73.000 193.833 69.750 L 193.833 66.500 192.833 66.500 C 192.283 66.500,191.833 66.526,191.833 66.557 C 191.833 66.646,190.831 71.396,190.772 71.583 C 190.744 71.675,190.440 70.569,190.097 69.125 L 189.473 66.500 188.487 66.500 L 187.500 66.500 187.500 69.750 M181.667 67.375 C 179.466 68.550,179.534 72.521,181.774 73.584 C 183.479 74.393,185.686 73.508,186.170 71.822 C 187.106 68.559,184.419 65.905,181.667 67.375 M173.500 71.097 L 173.500 74.361 175.488 74.306 C 178.360 74.225,179.248 73.399,179.133 70.917 C 179.019 68.464,178.251 67.833,175.378 67.833 L 173.500 67.833 173.500 71.097 M184.064 68.348 C 185.554 69.520,185.259 72.329,183.603 72.742 C 182.375 73.048,181.419 72.077,181.428 70.533 C 181.440 68.591,182.868 67.407,184.064 68.348 M207.167 71.250 L 207.167 74.500 207.743 74.500 L 208.320 74.500 208.368 73.125 L 208.417 71.750 209.958 71.702 L 211.500 71.654 211.500 71.083 L 211.500 70.513 209.958 70.465 L 208.417 70.417 208.365 69.792 L 208.313 69.167 210.073 69.167 L 211.833 69.167 211.833 68.583 L 211.833 68.000 209.500 68.000 L 207.167 68.000 207.167 71.250 M213.500 71.417 L 213.500 74.833 214.250 74.833 L 215.000 74.833 215.000 71.417 L 215.000 68.000 214.250 68.000 L 213.500 68.000 213.500 71.417 M177.390 69.316 C 177.647 69.573,177.751 69.934,177.803 70.748 C 177.921 72.596,177.337 73.333,175.758 73.333 L 175.000 73.333 175.000 71.060 L 175.000 68.787 176.023 68.880 C 176.746 68.945,177.147 69.073,177.390 69.316 M115.873 81.540 C 114.755 83.661,113.865 85.420,113.895 85.451 C 113.925 85.481,115.913 85.486,118.313 85.461 L 122.676 85.417 120.357 81.616 C 119.082 79.526,118.008 77.786,117.972 77.750 C 117.936 77.714,116.991 79.419,115.873 81.540 M273.790 81.583 L 271.834 85.500 276.020 85.500 L 280.205 85.500 279.965 85.125 C 279.833 84.919,278.841 83.156,277.760 81.208 C 276.679 79.260,275.784 77.667,275.771 77.667 C 275.758 77.667,274.866 79.429,273.790 81.583 M188.831 80.983 C 185.125 81.732,185.794 87.833,189.582 87.833 C 191.588 87.833,192.663 86.520,192.666 84.068 C 192.668 81.826,191.060 80.532,188.831 80.983 M204.667 84.229 L 204.667 87.667 206.559 87.667 C 209.399 87.667,210.172 86.997,210.293 84.431 C 210.420 81.759,209.616 80.969,206.667 80.864 L 204.667 80.792 204.667 84.229 M179.667 84.491 L 179.667 87.833 180.329 87.833 L 180.991 87.833 181.037 85.571 L 181.083 83.308 182.303 85.571 L 183.522 87.833 184.261 87.833 L 185.000 87.833 185.000 84.500 L 185.000 81.167 184.421 81.167 L 183.842 81.167 183.796 83.523 L 183.750 85.880 182.488 83.565 L 181.226 81.250 180.446 81.199 L 179.667 81.148 179.667 84.491 M176.833 85.083 L 176.833 88.333 177.500 88.333 L 178.167 88.333 178.167 85.083 L 178.167 81.833 177.500 81.833 L 176.833 81.833 176.833 85.083 M213.917 82.138 C 211.758 83.159,211.481 86.618,213.438 88.111 C 214.693 89.068,217.106 88.767,217.963 87.545 C 220.087 84.518,217.159 80.604,213.917 82.138 M190.476 82.238 C 191.629 82.834,191.653 85.716,190.509 86.328 C 189.345 86.951,187.957 86.185,187.750 84.807 C 187.444 82.769,188.882 81.413,190.476 82.238 M105.877 84.201 C 105.121 85.314,104.527 86.249,104.556 86.278 C 104.652 86.374,110.833 85.946,110.833 85.844 C 110.833 85.789,110.027 84.941,109.042 83.960 L 107.250 82.176 105.877 84.201 M208.433 82.518 C 208.876 83.009,208.891 85.383,208.454 86.049 C 208.188 86.456,208.062 86.500,207.163 86.500 L 206.167 86.500 206.167 84.333 L 206.167 82.167 207.141 82.167 C 207.920 82.167,208.179 82.237,208.433 82.518 M285.241 83.842 C 284.333 84.754,283.626 85.500,283.670 85.501 C 283.714 85.501,285.098 85.685,286.745 85.908 C 288.392 86.132,289.766 86.290,289.797 86.259 C 289.828 86.227,289.187 85.298,288.373 84.193 L 286.893 82.185 285.241 83.842 M127.167 83.916 C 126.300 84.787,125.626 85.500,125.670 85.500 C 125.714 85.500,127.094 85.688,128.736 85.917 C 130.378 86.146,131.740 86.315,131.762 86.292 C 131.822 86.229,129.011 82.423,128.868 82.374 C 128.800 82.351,128.035 83.045,127.167 83.916 M263.203 84.330 L 261.832 86.333 262.457 86.316 C 262.802 86.307,264.421 86.213,266.057 86.108 L 269.030 85.917 267.009 84.201 C 265.898 83.257,264.896 82.449,264.782 82.406 C 264.660 82.359,264.012 83.149,263.203 84.330 M216.451 83.365 C 217.486 84.338,217.305 86.828,216.154 87.423 C 214.774 88.137,213.666 87.195,213.667 85.308 C 213.668 83.241,215.189 82.180,216.451 83.365 M124.500 89.009 C 129.963 89.411,136.740 90.694,137.543 91.479 C 137.644 91.577,136.271 95.891,135.168 98.945 C 134.980 99.465,134.968 99.470,134.436 99.247 C 131.323 97.946,125.675 97.328,116.481 97.283 C 109.484 97.248,107.236 97.485,103.507 98.650 C 102.915 98.835,102.416 98.971,102.398 98.952 C 102.337 98.887,100.216 94.596,99.502 93.095 C 98.689 91.384,98.668 91.443,100.323 90.816 C 102.931 89.828,108.165 89.219,117.750 88.788 C 119.044 88.729,122.025 88.827,124.500 89.009 M282.500 89.010 C 288.085 89.418,294.555 90.655,295.370 91.470 C 295.488 91.588,293.754 97.049,292.917 99.195 C 292.819 99.444,292.751 99.449,292.241 99.235 C 286.913 97.009,269.826 96.488,262.583 98.331 C 261.575 98.587,260.637 98.824,260.500 98.857 C 260.284 98.909,256.703 92.130,256.674 91.616 C 256.581 89.940,272.814 88.302,282.500 89.010 M117.656 90.991 C 116.619 92.081,116.589 93.203,117.571 94.155 C 119.378 95.906,122.304 93.677,121.001 91.540 C 120.176 90.187,118.658 89.938,117.656 90.991 M275.751 90.883 C 274.722 91.912,274.679 93.304,275.647 94.231 C 276.686 95.227,278.200 94.887,278.991 93.481 C 280.061 91.577,277.283 89.350,275.751 90.883 M110.460 91.261 C 109.450 91.809,109.156 93.565,109.922 94.476 C 111.258 96.063,114.000 95.183,114.000 93.167 C 114.000 91.517,111.987 90.433,110.460 91.261 M124.233 91.567 C 122.746 93.054,124.161 95.686,126.209 95.242 C 128.840 94.673,128.417 91.000,125.721 91.000 C 124.896 91.000,124.741 91.059,124.233 91.567 M268.383 91.327 C 267.356 91.953,267.041 93.268,267.671 94.302 C 268.783 96.126,272.000 95.309,272.000 93.202 C 272.000 91.439,269.945 90.374,268.383 91.327 M282.403 91.314 C 281.326 91.971,281.182 93.835,282.143 94.694 C 283.979 96.334,286.637 94.327,285.580 92.099 C 285.071 91.028,283.507 90.641,282.403 91.314 M103.250 92.659 C 101.640 93.325,101.631 95.716,103.235 96.493 C 104.531 97.120,105.620 96.668,106.019 95.337 C 106.585 93.447,105.015 91.929,103.250 92.659 M131.794 92.761 C 131.185 93.091,130.833 93.817,130.833 94.744 C 130.833 96.904,133.888 97.599,134.884 95.667 C 135.894 93.708,133.755 91.697,131.794 92.761 M261.018 92.733 C 259.752 93.434,259.888 95.926,261.226 96.561 C 261.978 96.918,262.465 96.904,263.116 96.507 C 265.529 95.036,263.488 91.364,261.018 92.733 M289.838 92.713 C 288.283 93.500,288.331 95.820,289.918 96.573 C 291.466 97.308,293.167 96.239,293.167 94.531 C 293.167 93.034,291.261 91.994,289.838 92.713 M196.208 96.998 C 197.568 97.419,197.568 97.417,196.290 98.250 C 195.162 98.986,194.282 100.120,193.983 101.223 C 193.880 101.605,193.769 102.010,193.736 102.125 C 193.690 102.289,190.843 102.333,180.220 102.333 C 168.619 102.333,166.796 102.301,167.006 102.098 C 167.140 101.968,168.176 101.117,169.308 100.207 L 171.366 98.551 172.225 98.712 C 173.482 98.947,177.689 98.723,180.667 98.262 C 182.088 98.042,184.938 97.597,187.000 97.273 C 191.968 96.493,191.693 96.522,193.500 96.590 C 194.481 96.627,195.511 96.782,196.208 96.998 M207.720 97.004 C 209.661 97.281,212.600 97.732,214.250 98.005 C 219.109 98.808,222.607 99.040,224.466 98.680 L 225.182 98.542 227.425 100.364 C 228.658 101.366,229.667 102.219,229.667 102.260 C 229.667 102.300,223.517 102.333,216.000 102.333 L 202.333 102.333 202.333 101.771 C 202.333 100.537,201.396 98.858,200.220 97.987 C 199.519 97.467,199.528 97.413,200.375 97.093 C 202.244 96.387,203.305 96.374,207.720 97.004 M199.210 99.088 C 200.184 99.750,200.546 100.771,200.228 101.958 C 200.131 102.321,200.060 102.333,198.147 102.333 L 196.167 102.333 196.167 101.569 C 196.167 100.859,196.240 100.728,197.193 99.736 C 198.360 98.520,198.369 98.517,199.210 99.088 M124.917 99.170 C 130.825 99.517,134.500 100.291,134.500 101.187 C 134.500 102.974,105.478 103.188,103.058 101.419 C 100.932 99.864,113.948 98.525,124.917 99.170 M286.135 99.413 C 290.837 99.931,293.090 100.701,292.074 101.444 C 289.710 103.173,261.435 102.976,260.764 101.227 C 260.113 99.531,276.546 98.356,286.135 99.413 M282.434 121.125 C 285.916 124.952,294.005 133.858,300.409 140.917 C 306.813 147.975,312.235 153.949,312.458 154.192 L 312.865 154.634 312.505 157.192 C 302.825 226.032,262.357 290.053,201.697 332.492 L 199.478 334.045 195.864 331.624 C 137.255 292.364,98.472 233.369,81.911 158.279 L 81.292 155.475 81.789 154.946 C 82.063 154.655,88.910 147.217,97.005 138.417 C 105.100 129.617,113.409 120.590,115.469 118.357 L 119.214 114.297 139.600 134.683 C 150.812 145.896,160.018 155.035,160.056 154.993 C 160.095 154.951,165.367 149.247,171.772 142.316 C 178.176 135.386,186.567 126.299,190.417 122.123 C 194.267 117.946,197.462 114.541,197.517 114.556 C 197.573 114.571,206.069 123.771,216.397 135.000 C 226.726 146.229,235.231 155.387,235.297 155.352 C 235.363 155.316,244.519 146.034,255.644 134.727 C 266.769 123.419,275.923 114.167,275.987 114.167 C 276.051 114.167,278.952 117.298,282.434 121.125 M122.391 168.516 C 120.265 168.871,118.263 169.977,117.193 171.389 C 116.787 171.923,116.297 172.422,116.103 172.498 C 115.909 172.573,115.400 172.758,114.972 172.909 C 114.179 173.189,112.801 174.270,112.485 174.861 C 112.227 175.344,112.501 175.573,113.967 176.101 C 116.689 177.081,116.746 177.397,114.683 180.064 C 113.611 181.449,113.508 181.667,113.923 181.667 C 114.652 181.667,115.910 182.630,116.388 183.554 C 116.655 184.070,116.207 185.578,114.746 189.083 L 114.121 190.583 114.112 193.167 C 114.091 199.523,116.093 202.906,122.826 207.887 C 127.557 211.387,129.294 213.140,128.850 213.969 C 128.538 214.552,127.839 214.979,127.030 215.082 C 125.312 215.301,125.221 215.331,125.023 215.765 C 124.682 216.515,125.420 217.209,128.056 218.619 C 130.779 220.076,130.891 220.266,129.772 221.511 C 128.495 222.931,128.112 224.045,128.783 224.388 C 130.970 225.505,135.726 225.030,138.383 223.430 L 139.349 222.848 141.322 223.586 C 147.561 225.920,150.962 225.458,152.730 222.039 L 152.995 221.526 151.289 220.281 C 149.027 218.631,147.528 217.092,147.506 216.398 C 147.499 216.166,149.384 215.564,151.390 215.158 C 156.418 214.140,163.204 214.084,168.388 215.017 C 173.118 215.869,184.973 220.441,189.667 223.224 C 191.215 224.142,191.201 224.162,190.259 222.384 C 188.632 219.315,185.405 214.892,182.280 211.450 L 180.949 209.983 181.599 209.313 C 181.957 208.944,183.103 208.109,184.146 207.456 C 186.671 205.877,188.967 203.648,188.470 203.259 C 188.441 203.236,186.054 203.579,183.167 204.021 C 169.985 206.038,165.957 205.212,163.355 199.960 C 162.472 198.178,162.379 198.437,164.519 196.735 C 167.480 194.380,169.401 192.016,170.821 188.981 C 172.000 186.461,171.971 186.410,169.667 186.917 C 167.825 187.322,165.333 187.165,165.333 186.644 C 165.333 186.557,165.977 185.388,166.764 184.045 C 168.121 181.730,169.500 179.135,169.500 178.899 C 169.500 178.688,167.788 179.022,166.281 179.527 C 164.734 180.045,163.812 180.430,157.667 183.129 C 146.239 188.148,140.764 188.378,137.668 183.970 C 136.886 182.857,136.877 182.829,137.039 182.045 C 138.810 173.455,131.767 166.949,122.391 168.516 M215.365 170.178 C 210.919 170.785,210.336 171.022,209.045 172.750 C 208.368 173.655,208.013 173.976,207.461 174.180 C 206.271 174.620,205.664 174.994,204.899 175.759 C 203.818 176.840,203.891 177.061,205.593 177.847 C 207.886 178.907,207.974 179.530,206.149 181.798 L 205.140 183.052 205.640 183.262 C 206.175 183.488,207.150 184.397,207.876 185.349 L 208.324 185.936 207.676 187.260 C 207.320 187.988,206.741 189.408,206.390 190.417 L 205.752 192.250 205.766 195.083 C 205.797 201.475,207.746 204.693,214.750 209.910 C 220.835 214.443,222.014 216.833,218.165 216.833 C 215.360 216.833,216.146 218.538,219.817 220.415 C 222.292 221.682,222.681 222.326,221.485 223.177 C 220.909 223.587,220.004 225.080,220.002 225.623 C 219.995 227.215,226.551 227.069,229.968 225.400 L 231.187 224.805 233.218 225.547 C 239.099 227.694,242.059 227.233,244.143 223.845 L 244.626 223.061 243.857 222.656 C 241.575 221.452,239.582 219.786,238.942 218.548 L 238.681 218.044 239.882 217.692 C 245.769 215.963,255.329 215.779,261.986 217.268 C 265.505 218.054,278.134 223.166,281.651 225.228 C 282.210 225.555,282.667 225.779,282.667 225.726 C 282.667 224.655,277.302 217.106,273.931 213.433 L 272.263 211.617 272.998 210.965 C 273.401 210.607,274.746 209.741,275.986 209.041 C 278.308 207.730,279.381 206.844,279.867 205.837 C 280.225 205.093,280.780 205.084,275.079 205.910 C 261.902 207.819,257.529 206.913,255.060 201.762 C 254.303 200.182,254.269 200.271,256.275 198.580 C 259.340 195.996,261.414 193.372,262.773 190.358 C 263.657 188.398,263.667 188.290,262.958 188.408 C 262.660 188.457,261.742 188.611,260.917 188.748 C 259.156 189.042,258.623 189.057,257.833 188.832 C 256.681 188.503,256.662 188.596,258.538 185.478 C 260.516 182.192,261.333 180.763,261.333 180.590 C 261.333 179.974,257.406 181.352,249.833 184.625 C 238.657 189.456,233.530 190.047,230.158 186.892 C 228.779 185.602,228.441 184.892,228.656 183.729 C 229.886 177.080,226.403 172.018,219.373 170.235 C 218.503 170.014,217.744 169.843,217.687 169.854 C 217.630 169.866,216.585 170.011,215.365 170.178 M124.154 172.431 C 125.327 173.419,124.020 175.264,122.741 174.426 C 121.855 173.845,121.903 172.686,122.833 172.216 C 123.421 171.919,123.574 171.944,124.154 172.431 M215.571 174.262 C 216.266 174.957,215.737 176.333,214.775 176.333 C 213.940 176.333,213.500 175.931,213.500 175.167 C 213.500 174.146,214.861 173.551,215.571 174.262 M312.234 224.000 C 306.976 224.770,301.934 230.312,302.579 234.610 C 302.737 235.667,303.947 236.920,306.389 238.556 C 308.427 239.921,309.714 241.125,310.691 242.578 L 311.326 243.522 310.641 244.886 C 309.776 246.609,307.828 249.851,306.164 252.335 C 302.151 258.330,301.000 261.129,301.000 264.898 C 301.000 267.527,301.156 267.776,304.797 270.967 C 307.793 273.592,307.794 273.812,304.830 278.250 C 288.318 302.978,254.663 333.428,231.606 344.500 C 223.762 348.267,223.348 348.318,221.739 345.711 C 218.688 340.771,217.277 340.182,209.218 340.480 C 206.577 340.578,202.429 340.700,200.000 340.752 C 181.784 341.139,179.439 341.386,177.197 343.158 C 176.071 344.049,175.183 346.158,175.170 347.976 C 175.161 349.150,164.861 343.964,157.085 338.872 C 136.940 325.680,107.626 297.572,93.189 277.605 C 91.285 274.972,91.678 274.033,95.944 271.031 C 98.724 269.074,99.177 268.278,98.835 265.943 C 98.226 261.779,96.921 259.163,91.923 252.083 C 87.464 245.769,87.461 245.790,93.525 240.562 C 98.054 236.656,98.428 236.038,97.764 233.544 C 96.654 229.376,91.801 225.849,87.160 225.836 C 84.759 225.830,83.207 226.556,79.045 229.633 C 76.023 231.866,74.353 232.809,72.512 233.319 C 69.579 234.132,67.916 235.822,67.167 238.749 C 66.079 243.001,67.338 247.338,72.197 256.083 C 74.490 260.209,75.052 261.341,75.550 262.842 C 75.777 263.525,76.241 264.721,76.582 265.500 C 78.169 269.127,78.174 269.313,76.730 270.694 C 72.258 274.975,70.815 280.278,73.075 284.129 C 78.137 292.753,97.084 313.861,114.334 330.092 C 136.548 350.994,157.588 365.091,171.903 368.665 C 175.976 369.681,178.878 367.212,180.653 361.219 L 181.008 360.021 181.900 359.687 C 187.473 357.602,211.832 356.785,214.001 358.610 C 214.663 359.167,215.202 360.389,215.828 362.750 C 217.157 367.767,218.422 368.707,224.186 368.955 C 227.527 369.100,228.876 368.745,234.536 366.237 C 265.862 352.354,302.324 319.404,323.877 285.500 C 328.428 278.341,328.352 274.987,323.566 271.764 C 320.284 269.553,320.746 267.456,327.124 255.602 C 334.876 241.197,335.190 235.780,328.500 231.872 C 327.629 231.363,325.339 229.914,323.412 228.651 C 318.369 225.349,314.816 223.672,313.250 223.855 C 313.158 223.866,312.701 223.931,312.234 224.000 M313.667 227.194 C 317.114 227.829,319.189 230.646,316.438 230.956 L 315.646 231.046 314.531 229.839 C 313.251 228.453,312.811 228.181,311.788 228.142 C 310.582 228.097,310.295 228.503,310.000 230.676 C 309.682 233.015,309.163 233.849,307.841 234.146 C 304.812 234.827,304.469 232.150,307.233 229.413 C 309.615 227.054,310.759 226.659,313.667 227.194 M89.750 228.766 C 94.702 231.306,97.547 236.333,94.032 236.333 C 93.207 236.333,91.365 233.543,90.919 231.618 C 90.548 230.019,90.536 230.000,89.892 230.000 C 89.052 230.000,88.287 230.463,86.334 232.153 C 84.505 233.736,84.331 233.815,84.146 233.154 C 83.207 229.794,86.589 227.146,89.750 228.766 M321.833 231.291 C 324.766 232.263,328.876 235.289,329.846 237.192 C 330.152 237.791,330.163 237.983,330.006 239.877 C 329.630 244.401,328.188 248.200,324.137 255.333 C 321.283 260.359,320.716 261.491,320.104 263.383 C 319.784 264.373,319.325 265.520,319.084 265.931 L 318.645 266.679 317.391 265.508 C 313.930 262.276,309.440 262.105,305.271 265.048 L 304.791 265.386 304.483 264.985 C 303.240 263.368,305.353 258.457,311.002 249.833 C 315.854 242.425,319.265 235.528,319.719 232.208 L 319.907 230.832 320.495 230.937 C 320.819 230.995,321.421 231.155,321.833 231.291 M80.665 233.583 C 82.415 240.413,85.838 247.808,90.578 255.000 C 94.155 260.427,97.024 266.328,96.610 267.406 C 96.358 268.063,94.575 267.319,92.250 265.587 C 90.255 264.100,90.116 264.038,88.382 263.864 C 85.262 263.551,83.321 264.239,81.031 266.470 L 80.208 267.271 79.076 264.677 C 78.453 263.251,76.824 259.796,75.455 257.000 C 67.420 240.586,67.201 237.572,73.917 235.841 C 74.807 235.611,76.000 234.896,77.417 233.742 C 78.905 232.530,80.036 231.798,80.173 231.958 C 80.232 232.027,80.453 232.758,80.665 233.583 M314.204 234.121 L 315.479 235.492 314.982 237.371 C 314.431 239.453,313.801 240.913,313.386 241.072 C 312.740 241.320,310.251 239.054,309.414 237.455 L 308.917 236.505 310.831 234.585 C 311.884 233.529,312.787 232.684,312.837 232.708 C 312.887 232.731,313.502 233.367,314.204 234.121 M90.654 236.242 C 91.074 236.744,91.734 237.523,92.121 237.972 L 92.826 238.788 90.000 241.064 L 87.175 243.339 86.651 242.302 C 85.984 240.980,85.062 238.596,84.917 237.813 C 84.806 237.219,84.838 237.175,86.743 235.246 L 88.682 233.284 89.287 234.306 C 89.620 234.869,90.235 235.740,90.654 236.242 M171.348 235.185 C 167.095 235.774,166.516 236.024,165.113 237.882 C 164.580 238.589,164.028 239.167,163.888 239.167 C 163.104 239.167,159.468 241.758,159.843 242.049 C 159.884 242.080,160.576 242.395,161.382 242.749 C 163.843 243.829,164.132 244.397,162.958 245.841 C 161.197 248.007,161.157 248.086,161.754 248.236 C 162.239 248.358,163.278 249.256,164.024 250.197 L 164.539 250.847 163.998 252.048 C 163.701 252.709,163.048 254.225,162.548 255.417 L 161.639 257.583 161.631 260.000 C 161.611 266.438,163.604 269.708,170.667 274.827 C 177.254 279.602,178.318 281.833,174.005 281.833 C 171.514 281.833,172.531 283.677,175.975 285.404 C 178.631 286.736,178.799 287.076,177.430 288.350 C 174.899 290.706,175.606 291.593,180.000 291.571 C 183.005 291.556,184.396 291.139,186.583 289.596 C 186.883 289.384,187.160 289.459,189.333 290.340 C 195.024 292.646,198.120 292.267,200.195 289.009 C 200.814 288.036,200.875 288.146,199.208 287.224 C 197.083 286.049,194.605 283.495,195.105 282.995 C 195.413 282.687,198.575 281.990,201.083 281.677 C 208.815 280.713,216.960 281.384,222.000 283.402 C 222.779 283.714,224.775 284.499,226.436 285.148 C 231.889 287.277,236.421 289.315,238.196 290.435 C 239.048 290.973,239.024 290.891,237.615 288.476 C 235.531 284.906,232.550 280.899,229.647 277.767 L 228.428 276.452 229.172 275.807 C 229.582 275.452,230.592 274.816,231.417 274.392 C 234.353 272.884,235.751 271.736,236.221 270.448 C 236.347 270.100,236.678 270.072,231.583 270.842 C 218.308 272.849,213.734 271.927,211.239 266.738 C 210.472 265.143,210.441 265.231,212.318 263.597 C 215.918 260.462,217.642 258.153,218.921 254.753 L 219.346 253.624 218.382 253.728 C 215.240 254.067,213.776 254.057,213.205 253.694 C 212.967 253.543,213.249 252.993,215.798 248.653 C 217.795 245.251,217.736 245.445,216.731 245.589 C 215.241 245.803,212.796 246.683,208.167 248.670 C 194.386 254.585,189.712 255.251,186.080 251.815 C 184.510 250.330,184.428 250.116,184.671 248.134 C 185.480 241.529,182.198 236.858,175.554 235.159 C 174.084 234.783,174.264 234.782,171.348 235.185 M171.862 239.276 C 172.623 239.965,171.814 241.305,170.764 241.094 C 169.169 240.775,169.354 239.000,170.982 239.000 C 171.298 239.000,171.694 239.124,171.862 239.276 M89.509 266.306 C 90.856 267.164,93.293 269.973,93.055 270.393 C 92.800 270.842,90.613 273.333,90.474 273.333 C 89.959 273.333,88.499 270.536,88.004 268.598 C 87.300 265.844,87.738 265.177,89.509 266.306 M310.146 266.128 C 310.856 267.455,310.001 270.500,308.917 270.500 C 308.475 270.500,306.812 268.491,306.866 268.022 C 306.966 267.154,309.815 265.509,310.146 266.128 M317.279 270.105 C 325.692 277.176,325.685 277.139,320.622 285.739 C 308.666 306.048,282.689 332.836,259.083 349.200 C 247.247 357.405,232.180 365.569,227.346 366.397 C 220.710 367.535,218.575 365.749,217.332 358.025 C 217.093 356.539,216.796 355.449,216.263 354.108 C 215.119 351.233,214.937 351.555,217.706 351.564 C 222.743 351.581,228.304 349.500,237.878 344.015 C 262.410 329.961,292.517 301.263,309.670 275.583 C 310.159 274.850,310.950 273.762,311.426 273.167 C 312.698 271.576,313.667 268.929,313.667 267.042 C 313.667 267.005,314.173 267.422,314.792 267.968 C 315.410 268.514,316.530 269.476,317.279 270.105 M84.742 268.417 C 88.371 278.582,112.919 306.115,135.921 325.819 C 155.111 342.259,169.955 351.076,179.875 351.928 C 180.585 351.989,181.167 352.093,181.167 352.160 C 181.167 352.672,180.606 353.906,180.027 354.667 C 179.180 355.781,178.783 356.797,178.351 358.954 C 177.127 365.058,174.506 367.007,169.333 365.662 C 157.085 362.476,139.795 350.685,117.923 330.602 C 101.612 315.625,82.903 295.397,76.884 286.230 C 74.419 282.476,74.373 278.188,76.760 274.574 C 77.990 272.712,84.003 267.085,84.347 267.474 C 84.401 267.534,84.579 267.958,84.742 268.417 M312.280 274.042 C 312.059 274.431,311.481 275.462,310.995 276.333 C 310.509 277.204,309.708 278.509,309.214 279.233 C 308.174 280.760,308.142 281.674,309.167 280.583 C 309.861 279.844,309.940 279.876,314.250 282.630 C 318.236 285.178,318.145 285.081,317.578 286.178 C 317.347 286.623,317.347 286.683,317.580 286.772 C 317.940 286.910,318.256 286.601,318.685 285.695 C 319.212 284.581,320.245 282.793,321.255 281.250 C 321.735 280.517,322.252 279.671,322.403 279.371 L 322.679 278.826 321.815 277.913 C 320.501 276.524,319.964 276.687,320.751 278.237 C 321.260 279.241,321.262 279.373,320.774 280.417 C 319.757 282.595,319.265 282.722,317.072 281.375 C 315.312 280.294,315.310 280.289,316.012 279.062 C 316.564 278.098,316.705 278.039,317.588 278.408 C 318.118 278.629,318.178 278.624,318.328 278.343 C 318.465 278.088,318.403 278.001,317.954 277.818 C 317.659 277.697,316.936 277.272,316.350 276.872 C 315.043 275.983,314.349 276.156,315.322 277.129 C 315.893 277.701,315.884 277.794,315.122 279.042 C 314.518 280.031,314.602 280.039,312.649 278.792 C 310.730 277.566,310.814 277.798,311.757 276.340 C 312.558 275.102,312.673 275.034,314.083 274.960 C 315.228 274.900,315.174 274.555,313.917 273.880 C 312.667 273.208,312.757 273.199,312.280 274.042 M80.737 275.080 C 76.437 277.222,76.124 281.867,80.027 285.601 C 81.466 286.977,82.167 287.333,82.167 286.686 C 82.167 286.074,84.124 284.876,84.657 285.162 C 85.492 285.608,85.555 285.158,84.785 284.238 C 84.484 283.878,83.978 283.147,83.660 282.614 C 82.960 281.437,82.654 281.135,82.349 281.324 C 82.161 281.440,82.169 281.531,82.395 281.852 C 82.908 282.586,82.753 283.066,81.790 283.730 C 80.552 284.583,80.167 284.539,79.478 283.465 C 78.099 281.317,79.563 278.376,82.749 276.892 C 85.817 275.463,88.848 278.054,87.750 281.167 C 87.380 282.214,87.412 282.226,88.491 281.457 C 89.676 280.612,89.682 280.569,88.831 278.868 C 87.188 275.586,83.338 273.784,80.737 275.080 M90.358 283.054 C 90.206 283.237,90.219 283.336,90.415 283.498 C 90.955 283.947,90.636 284.322,87.391 287.065 C 83.944 289.978,83.830 290.044,83.224 289.476 C 82.909 289.180,82.799 289.154,82.589 289.329 C 82.368 289.512,82.456 289.672,83.260 290.540 C 83.769 291.090,84.487 291.939,84.855 292.427 C 85.541 293.334,86.156 293.533,85.917 292.769 C 85.532 291.541,85.724 291.216,87.564 289.985 C 89.218 288.878,89.446 289.570,88.237 292.030 C 87.379 293.775,87.288 295.056,87.926 296.375 C 88.235 297.013,88.500 297.191,88.500 296.760 C 88.500 296.425,88.807 296.271,89.059 296.479 C 89.221 296.615,89.314 296.436,89.468 295.694 C 90.008 293.076,91.070 291.153,91.734 291.588 C 93.325 292.630,95.416 290.723,95.018 288.593 C 94.685 286.810,90.937 282.356,90.358 283.054 M305.885 284.585 C 304.495 285.801,301.790 289.856,302.137 290.204 C 302.282 290.348,302.424 290.306,302.717 290.031 C 303.252 289.528,303.429 289.563,304.490 290.385 C 304.999 290.781,306.636 291.951,308.126 292.986 C 310.934 294.936,311.227 295.264,310.830 296.006 C 310.673 296.300,310.678 296.405,310.858 296.519 C 311.272 296.781,311.413 296.667,312.069 295.538 C 312.428 294.921,313.045 293.993,313.440 293.476 C 314.082 292.636,314.131 292.511,313.895 292.315 C 313.673 292.131,313.597 292.142,313.422 292.381 C 312.821 293.204,308.851 291.401,309.323 290.520 C 309.702 289.812,309.865 289.783,312.237 290.011 C 314.942 290.271,315.526 290.149,316.562 289.114 C 317.830 287.845,318.003 286.787,316.831 287.461 C 316.097 287.883,314.573 287.958,312.667 287.664 C 310.708 287.362,310.833 287.452,310.833 286.353 C 310.833 283.983,307.808 282.902,305.885 284.585 M307.825 286.079 C 308.411 286.382,309.479 287.606,309.609 288.125 C 309.710 288.528,309.017 289.773,308.604 289.932 C 308.365 290.023,305.635 288.368,305.019 287.757 L 304.621 287.363 304.974 286.792 C 305.551 285.858,306.796 285.547,307.825 286.079 M93.155 286.439 C 94.710 288.416,91.283 291.359,89.598 289.494 C 88.853 288.669,88.849 288.677,90.750 287.197 C 92.432 285.888,92.663 285.815,93.155 286.439 M300.333 292.814 C 294.931 294.571,294.070 302.363,299.042 304.502 C 305.401 307.238,310.947 299.126,305.882 294.497 C 304.251 293.006,301.918 292.299,300.333 292.814 M97.833 294.271 C 95.118 295.510,90.911 297.000,90.126 297.000 C 89.592 297.000,89.496 297.044,89.642 297.221 C 89.776 297.381,89.774 297.493,89.636 297.631 C 89.450 297.817,89.674 298.229,90.637 299.471 C 91.099 300.067,91.475 299.568,91.112 298.841 C 90.819 298.254,90.793 298.280,92.329 297.626 C 93.728 297.030,93.651 297.013,94.554 298.125 C 95.426 299.200,95.464 299.348,95.019 299.974 C 94.846 300.218,94.587 300.699,94.443 301.044 C 94.109 301.846,93.717 302.008,93.335 301.502 C 93.048 301.122,92.667 301.156,92.667 301.562 C 92.667 301.677,92.899 301.991,93.184 302.260 C 93.468 302.530,94.113 303.294,94.615 303.958 C 95.472 305.091,95.855 305.370,96.072 305.019 C 96.122 304.938,96.051 304.778,95.915 304.665 C 95.234 304.100,95.486 303.451,97.907 299.523 C 99.497 296.944,100.929 294.344,100.802 294.268 C 100.668 294.186,99.138 293.834,98.956 293.843 C 98.843 293.848,98.337 294.041,97.833 294.271 M302.540 295.557 C 305.680 297.068,307.274 299.624,306.180 301.395 C 304.144 304.689,297.001 301.738,296.941 297.579 C 296.903 294.973,299.429 294.061,302.540 295.557 M97.419 296.107 C 97.272 296.461,96.930 297.027,96.659 297.365 C 96.388 297.704,96.167 298.060,96.167 298.157 C 96.167 298.486,95.905 298.336,95.167 297.584 C 94.342 296.743,94.365 296.669,95.583 296.263 C 96.042 296.111,96.679 295.846,97.000 295.675 C 97.725 295.288,97.749 295.313,97.419 296.107 M103.277 298.611 C 103.216 298.673,103.268 298.842,103.393 298.986 C 104.126 299.835,103.981 300.107,101.365 302.777 C 98.356 305.848,97.738 306.296,96.873 306.030 C 95.771 305.692,95.897 306.080,97.373 307.573 C 98.576 308.789,98.820 308.967,98.994 308.757 C 99.161 308.557,99.131 308.398,98.838 307.924 C 98.417 307.242,98.384 307.318,99.870 305.553 C 102.314 302.647,103.809 301.545,103.610 302.792 C 102.826 307.707,102.408 312.854,102.772 313.120 C 103.212 313.442,103.117 313.517,105.939 310.609 C 109.116 307.337,110.272 306.479,110.927 306.908 C 111.351 307.186,111.833 307.160,111.833 306.860 C 111.833 306.651,109.207 304.000,109.001 304.000 C 108.736 304.000,108.806 304.693,109.103 305.022 C 109.429 305.382,108.581 306.664,106.801 308.500 C 105.066 310.289,105.138 310.282,105.255 308.650 C 105.498 305.259,105.848 301.817,105.987 301.452 C 106.235 300.798,103.724 298.165,103.277 298.611 M290.832 302.481 C 289.142 303.630,289.010 303.756,288.172 305.000 C 287.770 305.596,287.192 306.378,286.888 306.738 C 286.153 307.607,286.362 308.312,287.144 307.604 C 287.738 307.066,288.561 307.572,291.167 310.078 C 292.129 311.003,293.348 312.124,293.875 312.567 C 294.881 313.414,295.042 313.827,294.567 314.351 C 294.421 314.513,294.350 314.725,294.410 314.823 C 294.659 315.225,295.163 314.965,295.767 314.125 C 296.112 313.644,296.932 312.725,297.588 312.083 C 299.721 309.998,300.406 307.995,299.554 306.333 C 298.755 304.776,297.359 304.308,295.750 305.058 L 294.917 305.447 294.974 304.547 C 295.144 301.896,293.152 300.902,290.832 302.481 M292.641 304.289 C 293.753 305.119,293.878 306.514,292.940 307.606 C 292.477 308.143,292.452 308.132,290.764 306.613 C 289.416 305.401,289.282 305.089,289.875 304.552 C 290.759 303.751,291.789 303.653,292.641 304.289 M296.899 307.470 C 298.431 308.580,298.668 309.643,297.600 310.621 C 296.669 311.475,295.814 311.161,293.708 309.192 C 292.090 307.679,295.010 306.103,296.899 307.470 M112.793 307.929 C 112.740 307.982,112.817 308.234,112.963 308.489 C 113.684 309.745,106.894 316.161,105.993 315.075 C 105.823 314.870,105.752 314.861,105.644 315.034 C 105.553 315.181,105.885 315.625,106.678 316.417 C 107.321 317.058,108.350 318.091,108.965 318.711 C 111.821 321.593,115.393 321.914,117.801 319.507 C 119.192 318.115,119.646 315.870,118.881 314.167 C 117.908 312.003,113.369 307.353,112.793 307.929 M115.991 311.427 C 118.268 313.896,117.363 317.451,114.024 319.154 C 111.343 320.522,107.860 318.090,109.783 316.192 C 110.121 315.857,111.141 314.758,112.049 313.750 C 115.050 310.417,115.057 310.413,115.991 311.427 M281.611 311.444 C 281.317 311.739,281.515 313.436,281.928 314.158 C 282.161 314.566,282.813 315.878,283.378 317.075 C 283.942 318.271,284.800 319.883,285.285 320.658 C 286.188 322.100,286.363 322.796,285.917 323.167 C 285.621 323.412,285.585 324.097,285.859 324.266 C 285.971 324.335,286.190 324.184,286.387 323.900 C 286.572 323.634,287.203 322.940,287.788 322.357 C 288.813 321.338,288.842 321.286,288.564 320.979 C 288.281 320.666,288.267 320.667,287.846 321.069 C 287.434 321.462,286.833 321.428,286.833 321.012 C 286.833 320.936,286.571 320.438,286.250 319.905 C 285.533 318.714,285.504 318.938,286.534 317.705 C 287.538 316.503,287.602 316.491,289.262 317.182 C 290.562 317.723,290.733 317.966,290.219 318.534 C 289.956 318.824,289.957 318.861,290.230 319.130 C 290.505 319.401,290.540 319.390,290.883 318.917 C 291.083 318.642,291.828 317.796,292.540 317.037 C 293.763 315.733,294.096 315.160,293.625 315.172 C 293.510 315.175,293.271 315.287,293.093 315.422 C 292.915 315.557,292.591 315.667,292.373 315.667 C 291.965 315.667,283.521 312.221,282.532 311.651 C 281.936 311.308,281.782 311.273,281.611 311.444 M284.908 315.273 C 286.726 316.205,286.594 316.097,286.286 316.404 C 286.147 316.544,285.869 316.922,285.669 317.246 C 285.113 318.146,284.909 317.980,283.769 315.708 C 283.051 314.278,283.002 314.297,284.908 315.273 M121.500 316.697 C 121.500 316.805,121.586 317.132,121.692 317.423 C 121.883 317.951,121.871 317.968,119.253 321.019 C 116.154 324.630,116.083 324.687,115.262 324.245 C 114.039 323.586,113.922 324.306,115.108 325.190 C 115.644 325.589,117.118 326.875,118.383 328.046 C 119.789 329.349,120.761 330.131,120.883 330.060 C 121.154 329.902,122.339 329.069,122.741 328.753 C 123.291 328.321,122.847 328.145,121.914 328.426 C 120.838 328.750,120.436 328.645,119.285 327.742 C 117.877 326.637,117.960 326.020,119.789 324.003 L 120.618 323.090 121.267 323.580 C 122.347 324.395,122.597 325.030,122.159 325.848 C 121.870 326.388,122.157 326.567,122.623 326.138 C 123.216 325.592,124.667 323.844,124.667 323.676 C 124.667 323.401,124.138 323.338,123.892 323.584 C 123.547 323.929,123.051 323.896,122.526 323.493 C 122.283 323.306,121.899 323.015,121.673 322.846 L 121.263 322.540 121.711 321.978 C 121.957 321.669,122.573 320.967,123.078 320.417 L 123.997 319.417 125.022 320.466 L 126.047 321.515 125.950 322.555 C 125.867 323.439,126.013 324.259,126.206 323.995 C 126.238 323.952,126.579 323.489,126.965 322.965 C 127.843 321.775,127.853 321.849,126.712 320.888 C 126.187 320.445,124.859 319.277,123.762 318.292 C 121.786 316.517,121.500 316.316,121.500 316.697 M273.521 320.347 C 273.028 320.901,272.149 321.714,271.568 322.154 C 270.986 322.594,270.558 323.002,270.616 323.061 C 270.801 323.245,271.405 323.165,271.740 322.911 C 271.918 322.777,272.116 322.667,272.180 322.667 C 272.419 322.667,278.833 329.510,278.833 329.766 C 278.833 329.912,278.673 330.257,278.476 330.533 C 278.182 330.946,278.160 331.060,278.351 331.181 C 278.768 331.445,278.905 331.347,279.870 330.096 C 280.395 329.417,281.707 328.093,282.787 327.153 C 283.867 326.214,284.852 325.353,284.977 325.240 C 285.167 325.068,285.115 324.867,284.667 324.026 C 283.716 322.242,283.106 322.017,283.384 323.554 C 283.613 324.817,283.457 325.234,282.298 326.441 C 280.856 327.943,281.024 328.014,277.467 324.406 C 274.073 320.964,273.999 320.864,274.394 320.262 C 274.678 319.828,274.758 319.331,274.542 319.337 C 274.473 319.339,274.014 319.794,273.521 320.347 M129.075 325.734 C 127.438 326.447,126.985 328.286,127.837 330.761 C 128.694 333.251,127.540 335.055,125.717 334.076 C 124.895 333.635,124.612 332.863,124.703 331.301 C 124.792 329.763,124.723 329.665,124.052 330.381 C 122.410 332.134,122.845 333.411,125.693 335.208 C 128.399 336.915,132.019 333.959,130.602 331.200 C 129.854 329.743,129.659 327.713,130.208 327.099 C 131.298 325.879,132.694 326.825,132.802 328.856 C 132.900 330.706,133.097 330.720,134.122 328.952 L 134.493 328.311 134.122 327.808 C 132.913 326.172,130.421 325.148,129.075 325.734 M263.659 328.542 C 263.655 328.748,263.559 329.134,263.445 329.400 C 263.264 329.824,263.304 330.079,263.772 331.483 C 266.467 339.578,266.587 340.139,265.771 340.816 C 265.560 340.991,265.545 341.106,265.696 341.387 C 265.877 341.726,265.910 341.711,266.567 340.972 C 266.943 340.550,267.644 340.007,268.125 339.766 C 268.739 339.459,269.000 339.229,269.000 338.997 C 269.000 338.622,268.368 338.532,268.040 338.860 C 267.894 339.006,267.787 339.003,267.600 338.847 C 267.332 338.625,266.411 336.034,266.550 335.894 C 266.749 335.695,268.894 334.333,269.009 334.333 C 269.078 334.333,269.449 334.596,269.833 334.917 C 270.217 335.237,270.628 335.500,270.745 335.500 C 271.233 335.500,271.402 335.986,271.119 336.578 C 270.596 337.676,271.157 337.663,272.287 336.550 C 272.827 336.018,273.635 335.358,274.081 335.083 C 275.463 334.232,275.568 333.683,274.283 334.026 C 273.682 334.187,273.427 334.187,273.072 334.025 C 272.327 333.686,264.901 328.851,264.580 328.496 C 264.168 328.041,263.669 328.065,263.659 328.542 M260.042 331.120 C 259.927 331.161,259.833 331.335,259.833 331.507 C 259.833 332.127,252.971 337.208,252.514 336.925 C 251.795 336.481,252.483 338.749,253.441 339.982 C 253.697 340.312,253.933 339.577,253.783 338.919 C 253.471 337.556,254.397 336.000,255.519 336.000 C 255.890 336.000,261.333 343.268,261.333 343.764 C 261.333 343.974,261.115 344.321,260.833 344.558 C 260.558 344.789,260.333 345.058,260.333 345.156 C 260.333 345.571,261.096 345.278,261.892 344.557 C 262.364 344.130,263.331 343.410,264.042 342.957 C 264.752 342.504,265.333 342.063,265.333 341.978 C 265.333 341.679,264.867 341.648,264.249 341.906 C 263.906 342.050,263.561 342.167,263.481 342.167 C 263.280 342.167,257.667 334.663,257.667 334.393 C 257.667 334.272,257.948 334.018,258.292 333.829 C 258.635 333.639,259.120 333.358,259.368 333.203 C 259.801 332.934,259.854 332.940,260.725 333.368 C 261.904 333.946,261.926 333.886,261.076 332.395 C 260.252 330.948,260.313 331.023,260.042 331.120 M266.231 332.400 C 266.999 332.895,267.685 333.394,267.756 333.510 C 267.901 333.744,266.666 335.000,266.291 335.000 C 266.066 335.000,265.173 333.409,265.159 332.983 C 265.155 332.855,265.052 332.469,264.929 332.125 C 264.651 331.346,264.572 331.329,266.231 332.400 M134.938 332.578 C 132.121 333.582,130.696 337.277,132.059 340.043 C 133.298 342.556,136.344 344.801,137.595 344.122 C 138.049 343.876,139.501 342.658,139.497 342.526 C 139.485 342.001,139.172 341.973,138.265 342.417 C 134.178 344.416,131.742 338.215,135.382 335.076 C 138.531 332.360,143.054 334.069,141.851 337.520 C 141.433 338.721,142.075 338.529,142.992 337.179 L 143.648 336.212 142.785 335.244 C 140.588 332.779,137.407 331.698,134.938 332.578 M144.409 337.013 C 144.348 337.111,144.456 337.359,144.649 337.565 C 145.219 338.171,145.095 338.416,141.799 343.195 C 140.273 345.409,140.535 347.268,142.615 348.983 C 145.290 351.188,147.620 350.202,150.848 345.500 L 152.278 343.417 153.014 343.394 C 153.419 343.382,153.817 343.363,153.898 343.353 C 154.093 343.327,152.488 341.835,152.259 341.829 C 152.163 341.826,151.789 341.601,151.429 341.329 C 150.631 340.725,150.500 340.714,150.500 341.250 C 150.500 341.479,150.573 341.667,150.663 341.667 C 151.525 341.667,151.402 342.865,150.416 344.076 C 150.019 344.563,149.382 345.514,149.001 346.189 C 147.229 349.325,145.223 350.020,143.525 348.086 C 142.297 346.687,142.585 345.967,146.752 340.042 C 147.034 339.640,147.496 339.563,148.001 339.834 C 148.199 339.940,148.349 339.943,148.412 339.841 C 148.590 339.552,148.111 339.023,147.256 338.563 C 146.794 338.315,146.201 337.934,145.938 337.716 C 145.203 337.109,144.538 336.803,144.409 337.013 M249.191 339.252 C 244.362 341.559,242.918 346.381,246.002 349.894 C 247.772 351.910,251.577 352.074,254.417 350.257 C 255.631 349.480,256.881 347.839,256.733 347.215 C 256.580 346.562,255.980 345.166,255.854 345.169 C 255.508 345.178,255.366 345.551,255.308 346.602 C 255.053 351.180,249.468 351.225,247.205 346.667 C 245.225 342.678,248.318 338.517,251.633 340.708 C 252.932 341.567,253.019 341.164,251.877 339.589 C 250.941 338.299,251.135 338.323,249.191 339.252 M211.508 342.679 C 217.425 343.151,218.517 344.145,214.785 345.663 C 212.688 346.516,212.234 347.054,212.084 348.857 C 211.953 350.429,211.819 349.959,213.613 354.218 C 214.331 355.923,214.411 355.895,210.167 355.416 C 203.286 354.640,193.846 354.997,185.439 356.350 C 183.921 356.595,183.244 356.644,183.118 356.518 C 182.821 356.221,183.232 354.546,184.081 352.598 C 185.414 349.536,185.116 348.211,182.575 345.904 C 180.868 344.355,180.814 344.110,182.125 343.861 C 187.485 342.840,204.797 342.144,211.508 342.679 M155.000 344.667 C 155.000 344.854,155.111 345.000,155.254 345.000 C 156.290 345.000,155.884 346.601,154.079 349.632 C 152.106 352.945,151.726 353.399,150.841 353.500 C 149.941 353.603,149.797 353.906,150.533 354.152 C 150.836 354.254,151.606 354.667,152.246 355.072 C 152.885 355.476,153.466 355.771,153.537 355.727 C 153.780 355.577,153.667 355.225,153.250 354.833 C 153.021 354.618,152.833 354.338,152.833 354.210 C 152.833 353.664,155.880 347.859,156.177 347.840 C 156.320 347.830,158.001 357.155,158.000 357.958 C 158.000 358.650,158.013 358.667,158.554 358.667 C 159.159 358.667,159.263 358.515,161.258 354.750 C 163.016 351.431,164.112 350.036,164.711 350.357 C 165.042 350.534,165.500 350.444,165.500 350.201 C 165.500 349.900,162.426 348.167,161.892 348.167 C 161.709 348.167,161.889 348.601,162.250 349.030 C 162.479 349.303,162.666 349.614,162.665 349.721 C 162.663 349.969,160.996 353.370,160.453 354.234 L 160.044 354.885 159.776 354.067 C 159.158 352.182,158.517 348.579,158.504 346.917 C 158.497 345.993,158.577 346.071,156.424 344.882 C 155.276 344.247,155.000 344.205,155.000 344.667 M241.667 344.665 C 241.346 344.839,240.502 345.225,239.792 345.521 C 238.120 346.219,237.922 346.777,239.411 346.591 L 240.323 346.477 240.889 347.364 C 244.182 352.520,244.603 355.090,242.349 356.279 C 240.517 357.245,239.435 356.654,238.023 353.917 C 237.645 353.183,236.923 351.833,236.420 350.917 C 235.367 348.999,235.360 348.964,235.917 348.303 C 236.499 347.611,236.491 347.191,235.904 347.576 C 235.092 348.109,231.993 349.667,231.747 349.667 C 231.469 349.667,231.438 349.811,231.646 350.139 C 231.754 350.310,231.926 350.323,232.383 350.197 C 233.186 349.975,233.347 350.206,235.837 355.152 C 237.163 357.786,238.161 358.471,240.374 358.268 C 244.494 357.889,245.828 354.824,243.708 350.609 C 241.877 346.968,241.564 345.812,242.238 345.178 C 242.964 344.496,242.592 344.161,241.667 344.665 M181.292 347.808 C 182.109 348.123,182.247 348.641,181.630 349.074 C 180.775 349.673,177.629 349.107,177.899 348.403 C 177.954 348.258,178.000 348.076,178.000 347.999 C 178.000 347.922,178.192 347.630,178.427 347.351 L 178.855 346.843 179.719 347.189 C 180.194 347.380,180.902 347.658,181.292 347.808 M218.861 347.125 C 220.200 348.197,220.314 348.584,219.337 348.749 C 218.425 348.903,216.329 348.391,216.335 348.016 C 216.345 347.393,218.323 346.695,218.861 347.125 M166.650 350.958 C 166.357 351.394,165.963 351.920,165.776 352.128 C 165.117 352.860,165.804 353.186,166.608 352.523 C 167.426 351.849,169.536 352.026,169.791 352.790 C 169.848 352.960,166.663 359.909,166.193 360.640 C 165.937 361.039,165.208 361.089,164.458 360.759 C 164.256 360.670,164.167 360.705,164.167 360.873 C 164.167 361.238,169.065 363.530,169.142 363.201 C 169.174 363.064,168.965 362.767,168.678 362.542 C 168.033 362.038,167.935 362.368,170.119 357.667 C 172.173 353.245,171.816 353.736,172.728 354.084 C 173.814 354.499,174.238 355.019,174.256 355.957 C 174.277 357.060,174.488 356.992,175.295 355.623 C 175.980 354.461,175.993 354.415,175.640 354.359 C 175.438 354.328,174.893 354.094,174.428 353.839 C 173.964 353.584,172.394 352.865,170.940 352.240 C 169.376 351.568,168.104 350.912,167.827 350.635 C 167.231 350.039,167.277 350.026,166.650 350.958 M227.573 352.117 L 227.114 352.900 227.306 354.825 C 227.877 360.548,227.743 363.686,226.913 364.001 C 226.553 364.138,226.514 364.215,226.662 364.492 C 226.831 364.807,226.898 364.791,228.365 364.077 C 229.205 363.668,230.075 363.333,230.297 363.333 C 230.598 363.333,230.676 363.266,230.601 363.070 C 230.546 362.925,230.500 362.775,230.500 362.736 C 230.500 362.698,230.203 362.667,229.839 362.667 C 228.984 362.667,228.833 362.382,228.833 360.763 L 228.833 359.504 229.996 358.919 C 231.489 358.167,231.415 358.154,232.630 359.379 C 233.802 360.562,233.825 360.627,233.252 361.165 C 232.459 361.909,233.034 362.065,234.221 361.427 C 234.787 361.122,235.794 360.670,236.458 360.422 C 237.937 359.870,238.204 359.314,236.921 359.458 C 236.036 359.558,235.590 359.167,230.949 354.211 C 227.863 350.916,228.166 351.104,227.573 352.117 M229.011 355.288 C 231.090 357.547,231.103 357.606,229.639 358.093 C 228.477 358.479,228.205 358.004,228.177 355.542 C 228.165 354.501,228.259 354.472,229.011 355.288 " stroke="none" fill="#cc4434" fill-rule="evenodd"></path><path id="path1" d="M0.000 200.000 L 0.000 400.000 200.000 400.000 L 400.000 400.000 400.000 200.000 L 400.000 0.000 200.000 0.000 L 0.000 0.000 0.000 200.000 M211.333 31.166 C 255.838 32.587,292.464 39.521,315.000 50.791 L 317.583 52.083 317.702 53.000 C 318.003 55.320,319.304 75.134,319.667 82.917 C 321.293 117.782,318.861 147.001,311.748 178.083 C 297.461 240.513,256.443 299.248,201.143 336.462 L 199.869 337.319 195.893 334.638 C 142.174 298.414,108.907 254.158,88.429 191.678 C 77.342 157.852,74.780 138.433,76.331 100.000 C 76.525 95.186,77.087 81.383,77.329 75.500 C 77.418 73.346,77.582 67.190,77.694 61.820 L 77.898 52.056 80.324 50.914 C 108.545 37.626,137.519 31.913,180.750 31.113 C 187.268 30.992,206.953 31.027,211.333 31.166 M191.333 45.280 C 189.154 45.463,186.063 46.371,183.144 47.686 C 180.250 48.989,176.824 49.189,173.254 48.264 C 172.339 48.027,171.571 47.833,171.545 47.833 C 171.520 47.833,171.500 58.852,171.500 72.320 L 171.500 96.807 171.958 96.900 C 175.655 97.653,178.942 97.492,183.417 96.337 C 189.019 94.892,194.156 94.603,196.708 95.590 C 196.985 95.697,197.000 94.456,197.000 70.961 L 197.000 46.220 196.588 46.033 C 195.423 45.501,192.934 45.145,191.333 45.280 M202.917 45.277 C 202.024 45.389,200.931 45.668,200.292 45.946 L 199.667 46.217 199.667 70.961 L 199.667 95.706 200.042 95.598 C 203.639 94.567,206.211 94.778,214.333 96.768 C 216.592 97.321,221.561 97.457,223.708 97.023 L 224.833 96.796 224.833 72.295 L 224.833 47.794 224.458 47.903 C 219.827 49.246,216.412 49.138,212.581 47.528 C 208.559 45.838,205.011 45.012,202.917 45.277 M226.500 72.195 L 226.500 96.805 228.625 98.827 L 230.750 100.850 230.792 76.385 L 230.834 51.919 228.667 49.752 L 226.500 47.585 226.500 72.195 M168.077 49.354 C 167.439 49.916,166.523 50.747,166.042 51.201 L 165.167 52.027 165.175 76.722 L 165.184 101.417 167.258 99.250 L 169.332 97.083 169.333 72.708 C 169.333 59.302,169.312 48.333,169.285 48.333 C 169.259 48.333,168.715 48.793,168.077 49.354 M184.833 56.071 L 186.083 58.296 186.130 56.065 L 186.176 53.833 186.838 53.833 L 187.500 53.833 187.500 57.083 L 187.500 60.333 186.705 60.333 L 185.910 60.333 184.663 58.137 L 183.417 55.942 183.370 58.137 L 183.324 60.333 182.662 60.333 L 182.000 60.333 182.000 57.083 L 182.000 53.833 182.792 53.839 L 183.583 53.845 184.833 56.071 M206.069 54.296 C 206.582 54.590,207.401 55.922,207.235 56.191 C 207.000 56.571,205.917 56.332,205.636 55.838 C 204.950 54.633,203.251 55.116,202.842 56.633 C 202.215 58.964,204.533 60.933,205.632 59.003 C 206.014 58.331,207.437 58.219,207.247 58.875 C 206.569 61.226,203.043 61.531,201.884 59.340 C 200.218 56.189,203.168 52.633,206.069 54.296 M180.000 57.417 L 180.000 60.667 179.500 60.667 L 179.000 60.667 179.000 57.417 L 179.000 54.167 179.500 54.167 L 180.000 54.167 180.000 57.417 M213.418 55.250 C 214.679 55.974,215.252 57.714,214.773 59.361 C 213.830 62.606,209.193 62.421,208.506 59.111 C 207.848 55.943,210.711 53.693,213.418 55.250 M218.487 56.928 C 220.080 59.786,219.989 59.769,219.995 57.208 L 220.000 55.000 220.667 55.000 L 221.333 55.000 221.333 58.260 L 221.333 61.519 220.627 61.468 L 219.920 61.417 218.585 59.254 L 217.250 57.091 217.203 59.296 L 217.157 61.500 216.495 61.500 L 215.833 61.500 215.833 58.250 L 215.833 55.000 216.625 55.004 L 217.417 55.008 218.487 56.928 M210.884 56.002 C 209.965 56.372,209.648 58.764,210.375 59.838 C 211.483 61.473,213.386 60.411,213.388 58.156 C 213.390 56.385,212.287 55.437,210.884 56.002 M116.849 60.135 C 115.558 61.426,114.916 63.541,114.724 67.132 C 114.648 68.555,114.561 69.128,114.441 69.007 C 114.217 68.783,113.501 68.802,112.260 69.064 C 111.084 69.312,110.924 69.561,111.763 69.838 C 113.976 70.568,115.505 74.073,114.737 76.657 C 114.054 78.957,110.667 80.493,107.154 80.095 L 106.188 79.986 105.836 80.785 C 104.456 83.907,100.644 84.363,97.841 81.741 C 95.570 79.616,95.461 76.663,97.554 73.915 C 98.350 72.870,98.692 72.558,99.772 71.891 C 100.072 71.705,100.069 71.683,99.704 71.307 C 98.831 70.410,97.140 71.000,95.521 72.767 L 94.499 73.883 93.525 72.954 C 91.892 71.396,90.159 70.488,89.325 70.753 C 88.175 71.118,90.193 76.174,95.198 85.467 C 96.960 88.740,97.431 89.495,97.648 89.398 C 101.122 87.851,113.656 86.515,120.310 86.983 C 128.884 87.586,135.400 88.457,137.605 89.295 L 138.450 89.616 139.651 87.516 C 142.921 81.799,146.934 72.997,146.799 71.837 C 146.683 70.844,144.680 71.359,143.125 72.782 C 142.644 73.223,142.048 73.761,141.801 73.978 L 141.353 74.373 140.398 73.342 C 139.003 71.835,137.454 71.199,136.282 71.652 C 135.750 71.857,135.825 72.167,136.406 72.167 C 137.686 72.167,140.008 75.339,140.131 77.256 C 140.476 82.642,132.459 85.508,130.089 80.846 L 129.703 80.086 127.977 80.140 C 125.050 80.232,122.951 79.500,121.946 78.037 C 120.354 75.719,121.412 71.809,124.014 70.393 C 125.446 69.614,124.275 68.905,121.793 69.049 L 120.835 69.104 120.940 67.261 C 121.145 63.657,120.282 60.985,118.519 59.763 C 117.723 59.212,117.787 59.197,116.849 60.135 M275.068 59.771 C 273.482 60.847,272.965 62.384,272.742 66.690 L 272.624 68.963 271.979 68.876 C 271.625 68.829,271.016 68.870,270.626 68.969 C 270.236 69.067,269.704 69.193,269.444 69.247 C 268.861 69.370,269.085 69.752,269.837 69.917 C 271.169 70.210,272.676 72.705,272.798 74.822 C 273.000 78.309,270.709 80.049,265.882 80.074 L 264.014 80.083 263.747 80.782 C 262.827 83.191,259.885 84.143,257.298 82.870 C 252.739 80.625,252.755 75.650,257.333 72.121 L 257.917 71.672 257.417 71.247 C 256.399 70.382,254.447 71.364,252.960 73.488 L 252.678 73.892 251.797 73.063 C 249.979 71.352,248.367 70.552,247.145 70.755 L 246.540 70.856 246.684 71.494 C 247.176 73.685,249.161 77.925,253.044 85.083 C 254.337 87.467,255.416 89.446,255.443 89.481 C 255.469 89.516,255.864 89.385,256.320 89.188 C 258.666 88.179,265.566 87.272,273.667 86.908 C 278.549 86.688,292.320 88.124,295.274 89.160 C 295.811 89.348,296.315 89.520,296.394 89.543 C 297.306 89.799,305.608 72.009,304.824 71.481 C 304.030 70.945,302.151 71.685,300.213 73.297 C 299.068 74.249,298.904 74.336,298.753 74.077 C 297.603 72.100,295.828 71.146,294.262 71.663 C 293.505 71.913,293.496 72.167,294.244 72.167 C 295.804 72.167,298.070 75.222,298.067 77.322 C 298.060 82.743,289.621 85.577,288.011 80.699 L 287.807 80.083 285.612 80.083 C 283.052 80.083,282.016 79.823,280.743 78.860 C 278.082 76.848,278.610 72.064,281.678 70.394 C 283.103 69.619,282.584 69.117,280.332 69.096 L 278.914 69.083 278.889 66.917 C 278.851 63.511,278.296 61.799,276.689 60.125 C 275.797 59.196,275.887 59.215,275.068 59.771 M190.097 69.125 C 190.440 70.569,190.744 71.675,190.772 71.583 C 190.831 71.396,191.833 66.646,191.833 66.557 C 191.833 66.526,192.283 66.500,192.833 66.500 L 193.833 66.500 193.833 69.750 L 193.833 73.000 193.167 73.000 L 192.500 73.000 192.487 70.375 L 192.475 67.750 191.858 70.333 L 191.242 72.917 190.658 72.966 L 190.074 73.016 189.474 70.550 L 188.873 68.083 188.853 70.542 L 188.833 73.000 188.167 73.000 L 187.500 73.000 187.500 69.750 L 187.500 66.500 188.487 66.500 L 189.473 66.500 190.097 69.125 M185.081 67.571 C 186.556 68.695,186.806 71.551,185.545 72.877 C 183.215 75.329,179.626 73.273,180.107 69.763 C 180.438 67.353,183.200 66.135,185.081 67.571 M177.828 68.140 C 179.543 69.060,179.618 72.687,177.947 73.907 C 177.548 74.198,177.178 74.258,175.488 74.306 L 173.500 74.361 173.500 71.097 L 173.500 67.833 175.378 67.833 C 176.883 67.833,177.369 67.894,177.828 68.140 M182.552 68.244 C 181.473 68.714,181.006 70.922,181.769 71.950 C 183.004 73.613,185.000 72.748,185.000 70.550 C 185.000 68.692,183.902 67.657,182.552 68.244 M211.833 68.583 L 211.833 69.167 210.073 69.167 L 208.313 69.167 208.365 69.792 L 208.417 70.417 209.958 70.465 L 211.500 70.513 211.500 71.083 L 211.500 71.654 209.958 71.702 L 208.417 71.750 208.368 73.125 L 208.320 74.500 207.743 74.500 L 207.167 74.500 207.167 71.250 L 207.167 68.000 209.500 68.000 L 211.833 68.000 211.833 68.583 M215.000 71.417 L 215.000 74.833 214.250 74.833 L 213.500 74.833 213.500 71.417 L 213.500 68.000 214.250 68.000 L 215.000 68.000 215.000 71.417 M175.000 71.060 L 175.000 73.333 175.758 73.333 C 177.337 73.333,177.921 72.596,177.803 70.748 C 177.712 69.319,177.414 69.006,176.023 68.880 L 175.000 68.787 175.000 71.060 M120.357 81.616 L 122.676 85.417 118.313 85.461 C 115.913 85.486,113.925 85.481,113.895 85.451 C 113.865 85.420,114.755 83.661,115.873 81.540 C 116.991 79.419,117.936 77.714,117.972 77.750 C 118.008 77.786,119.082 79.526,120.357 81.616 M277.760 81.208 C 278.841 83.156,279.833 84.919,279.965 85.125 L 280.205 85.500 276.020 85.500 L 271.834 85.500 273.790 81.583 C 274.866 79.429,275.758 77.667,275.771 77.667 C 275.784 77.667,276.679 79.260,277.760 81.208 M191.327 81.319 C 193.358 82.341,193.054 86.701,190.888 87.606 C 188.606 88.559,186.441 86.928,186.432 84.250 C 186.424 81.512,188.838 80.066,191.327 81.319 M209.125 81.269 C 210.811 82.498,210.741 86.123,209.008 87.291 C 208.511 87.626,208.246 87.667,206.559 87.667 L 204.667 87.667 204.667 84.229 L 204.667 80.792 206.667 80.864 C 208.332 80.923,208.743 80.991,209.125 81.269 M182.488 83.565 L 183.750 85.880 183.796 83.523 L 183.842 81.167 184.421 81.167 L 185.000 81.167 185.000 84.500 L 185.000 87.833 184.261 87.833 L 183.522 87.833 182.303 85.571 L 181.083 83.308 181.037 85.571 L 180.991 87.833 180.329 87.833 L 179.667 87.833 179.667 84.491 L 179.667 81.148 180.446 81.199 L 181.226 81.250 182.488 83.565 M178.167 85.083 L 178.167 88.333 177.500 88.333 L 176.833 88.333 176.833 85.083 L 176.833 81.833 177.500 81.833 L 178.167 81.833 178.167 85.083 M217.288 82.367 C 219.264 83.675,219.066 87.279,216.959 88.354 C 214.090 89.818,211.135 86.792,212.423 83.709 C 213.176 81.907,215.588 81.242,217.288 82.367 M188.550 82.326 C 186.949 83.303,187.675 86.500,189.498 86.500 C 190.785 86.500,191.333 85.832,191.333 84.266 C 191.333 82.325,190.036 81.420,188.550 82.326 M110.833 85.844 C 110.833 85.946,104.652 86.374,104.556 86.278 C 104.527 86.249,105.121 85.314,105.877 84.201 L 107.250 82.176 109.042 83.960 C 110.027 84.941,110.833 85.789,110.833 85.844 M206.167 84.333 L 206.167 86.500 207.163 86.500 C 208.508 86.500,208.750 86.155,208.750 84.234 C 208.750 82.448,208.531 82.167,207.141 82.167 L 206.167 82.167 206.167 84.333 M289.797 86.259 C 289.766 86.290,288.392 86.132,286.745 85.908 C 285.098 85.685,283.714 85.501,283.670 85.501 C 283.626 85.500,284.333 84.754,285.241 83.842 L 286.893 82.185 288.373 84.193 C 289.187 85.298,289.828 86.227,289.797 86.259 M130.397 84.333 C 131.170 85.388,131.784 86.269,131.762 86.292 C 131.740 86.315,130.378 86.146,128.736 85.917 C 127.094 85.688,125.714 85.500,125.670 85.500 C 125.626 85.500,126.300 84.787,127.167 83.916 C 129.040 82.035,128.677 81.988,130.397 84.333 M267.009 84.201 L 269.030 85.917 266.057 86.108 C 264.421 86.213,262.802 86.307,262.457 86.316 L 261.832 86.333 263.203 84.330 C 264.012 83.149,264.660 82.359,264.782 82.406 C 264.896 82.449,265.898 83.257,267.009 84.201 M214.667 83.040 C 213.371 83.708,213.323 86.895,214.599 87.477 C 216.242 88.225,217.591 86.451,216.999 84.321 C 216.690 83.207,215.553 82.583,214.667 83.040 M117.750 88.788 C 108.165 89.219,102.931 89.828,100.323 90.816 C 98.668 91.443,98.689 91.384,99.502 93.095 C 100.216 94.596,102.337 98.887,102.398 98.952 C 102.416 98.971,102.915 98.835,103.507 98.650 C 107.236 97.485,109.484 97.248,116.481 97.283 C 125.675 97.328,131.323 97.946,134.436 99.247 C 134.968 99.470,134.980 99.465,135.168 98.945 C 136.271 95.891,137.644 91.577,137.543 91.479 C 136.265 90.231,123.689 88.520,117.750 88.788 M273.750 88.860 C 264.497 89.276,256.615 90.548,256.674 91.616 C 256.703 92.130,260.284 98.909,260.500 98.857 C 260.637 98.824,261.575 98.587,262.583 98.331 C 269.826 96.488,286.913 97.009,292.241 99.235 C 292.751 99.449,292.819 99.444,292.917 99.195 C 293.754 97.049,295.488 91.588,295.370 91.470 C 293.890 89.990,281.601 88.507,273.750 88.860 M120.127 90.666 C 121.330 91.400,121.692 92.882,120.897 93.827 C 119.906 95.004,118.582 95.135,117.571 94.155 C 115.742 92.382,117.965 89.348,120.127 90.666 M278.420 91.060 C 279.596 92.287,279.471 93.526,278.074 94.483 C 276.544 95.531,274.517 93.910,275.031 92.049 C 275.521 90.274,277.198 89.784,278.420 91.060 M112.950 91.327 C 114.703 92.395,114.179 94.868,112.119 95.254 C 110.245 95.606,108.867 93.708,109.752 91.996 C 110.258 91.018,111.885 90.677,112.950 91.327 M127.151 91.429 C 128.587 92.637,128.041 94.846,126.209 95.242 C 124.161 95.686,122.746 93.054,124.233 91.567 C 124.992 90.808,126.337 90.745,127.151 91.429 M270.727 91.230 C 272.048 91.781,272.480 93.546,271.529 94.497 C 270.393 95.633,268.422 95.533,267.671 94.302 C 266.497 92.376,268.545 90.318,270.727 91.230 M284.819 91.243 C 286.291 92.004,286.050 94.535,284.448 95.145 C 282.617 95.842,280.908 93.997,281.674 92.150 C 282.097 91.128,283.702 90.665,284.819 91.243 M105.501 92.975 C 106.407 93.881,106.317 95.563,105.318 96.404 C 103.985 97.525,101.806 96.118,102.051 94.294 C 102.267 92.679,104.392 91.866,105.501 92.975 M134.436 93.047 C 135.535 94.055,135.308 95.876,134.000 96.551 C 132.047 97.558,130.061 95.477,131.085 93.496 C 131.670 92.366,133.435 92.130,134.436 93.047 M263.523 92.972 C 264.875 94.180,263.961 96.830,262.192 96.833 C 260.631 96.835,259.590 94.813,260.399 93.352 C 260.936 92.382,262.632 92.176,263.523 92.972 M291.994 92.747 C 293.081 93.309,293.485 94.568,292.925 95.650 C 292.177 97.097,289.835 97.164,288.981 95.763 C 287.841 93.893,290.010 91.721,291.994 92.747 M191.333 96.608 C 191.012 96.650,189.063 96.950,187.000 97.273 C 184.938 97.597,182.088 98.042,180.667 98.262 C 177.689 98.723,173.482 98.947,172.225 98.712 L 171.366 98.551 169.308 100.207 C 168.176 101.117,167.140 101.968,167.006 102.098 C 166.796 102.301,168.619 102.333,180.220 102.333 C 190.843 102.333,193.690 102.289,193.736 102.125 C 193.769 102.010,193.880 101.605,193.983 101.223 C 194.282 100.120,195.162 98.986,196.290 98.250 C 196.853 97.883,197.317 97.530,197.323 97.465 C 197.365 96.985,193.102 96.374,191.333 96.608 M201.833 96.681 C 199.831 97.066,199.423 97.396,200.220 97.987 C 201.396 98.858,202.333 100.537,202.333 101.771 L 202.333 102.333 216.000 102.333 C 223.517 102.333,229.667 102.300,229.667 102.260 C 229.667 102.219,228.658 101.366,227.425 100.364 L 225.182 98.542 224.466 98.680 C 222.607 99.040,219.109 98.808,214.250 98.005 C 206.176 96.669,203.421 96.375,201.833 96.681 M197.193 99.736 C 196.240 100.728,196.167 100.859,196.167 101.569 L 196.167 102.333 198.147 102.333 C 200.060 102.333,200.131 102.321,200.228 101.958 C 200.546 100.771,200.184 99.750,199.210 99.088 C 198.369 98.517,198.360 98.520,197.193 99.736 M113.333 99.109 C 106.402 99.468,101.803 100.501,103.058 101.419 C 105.478 103.188,134.500 102.974,134.500 101.187 C 134.500 99.708,123.201 98.599,113.333 99.109 M270.083 99.171 C 263.027 99.649,258.861 100.856,261.518 101.652 C 266.299 103.085,290.052 102.923,292.074 101.444 C 294.200 99.889,280.454 98.468,270.083 99.171 M255.644 134.727 C 244.519 146.034,235.363 155.316,235.297 155.352 C 235.231 155.387,226.726 146.229,216.397 135.000 C 206.069 123.771,197.573 114.571,197.517 114.556 C 197.462 114.541,194.267 117.946,190.417 122.123 C 186.567 126.299,178.176 135.386,171.772 142.316 C 165.367 149.247,160.095 154.951,160.056 154.993 C 160.018 155.035,150.812 145.896,139.600 134.683 L 119.214 114.297 115.469 118.357 C 113.409 120.590,105.100 129.617,97.005 138.417 C 88.910 147.217,82.063 154.655,81.789 154.946 L 81.292 155.475 81.911 158.279 C 98.472 233.369,137.255 292.364,195.864 331.624 L 199.478 334.045 201.697 332.492 C 262.357 290.053,302.825 226.032,312.505 157.192 L 312.865 154.634 312.458 154.192 C 312.235 153.949,306.813 147.975,300.409 140.917 C 280.939 119.458,276.109 114.167,275.987 114.167 C 275.923 114.167,266.769 123.419,255.644 134.727 M127.988 168.581 C 134.785 170.011,138.409 175.402,137.039 182.045 C 136.877 182.829,136.886 182.857,137.668 183.970 C 140.764 188.378,146.239 188.148,157.667 183.129 C 163.812 180.430,164.734 180.045,166.281 179.527 C 167.788 179.022,169.500 178.688,169.500 178.899 C 169.500 179.135,168.121 181.730,166.764 184.045 C 165.977 185.388,165.333 186.557,165.333 186.644 C 165.333 187.165,167.825 187.322,169.667 186.917 C 171.971 186.410,172.000 186.461,170.821 188.981 C 169.401 192.016,167.480 194.380,164.519 196.735 C 162.379 198.437,162.472 198.178,163.355 199.960 C 165.957 205.212,169.985 206.038,183.167 204.021 C 186.054 203.579,188.441 203.236,188.470 203.259 C 188.967 203.648,186.671 205.877,184.146 207.456 C 183.103 208.109,181.957 208.944,181.599 209.313 L 180.949 209.983 182.280 211.450 C 185.405 214.892,188.632 219.315,190.259 222.384 C 191.201 224.162,191.215 224.142,189.667 223.224 C 184.973 220.441,173.118 215.869,168.388 215.017 C 163.204 214.084,156.418 214.140,151.390 215.158 C 149.384 215.564,147.499 216.166,147.506 216.398 C 147.528 217.092,149.027 218.631,151.289 220.281 L 152.995 221.526 152.730 222.039 C 150.962 225.458,147.561 225.920,141.322 223.586 L 139.349 222.848 138.383 223.430 C 135.726 225.030,130.970 225.505,128.783 224.388 C 128.112 224.045,128.495 222.931,129.772 221.511 C 130.891 220.266,130.779 220.076,128.056 218.619 C 125.420 217.209,124.682 216.515,125.023 215.765 C 125.221 215.331,125.312 215.301,127.030 215.082 C 127.839 214.979,128.538 214.552,128.850 213.969 C 129.294 213.140,127.557 211.387,122.826 207.887 C 116.093 202.906,114.091 199.523,114.112 193.167 L 114.121 190.583 114.746 189.083 C 116.207 185.578,116.655 184.070,116.388 183.554 C 115.910 182.630,114.652 181.667,113.923 181.667 C 113.508 181.667,113.611 181.449,114.683 180.064 C 116.746 177.397,116.689 177.081,113.967 176.101 C 112.501 175.573,112.227 175.344,112.485 174.861 C 112.801 174.270,114.179 173.189,114.972 172.909 C 115.400 172.758,115.909 172.573,116.103 172.498 C 116.297 172.422,116.787 171.923,117.193 171.389 C 119.084 168.896,123.734 167.686,127.988 168.581 M219.373 170.235 C 226.403 172.018,229.886 177.080,228.656 183.729 C 228.441 184.892,228.779 185.602,230.158 186.892 C 233.530 190.047,238.657 189.456,249.833 184.625 C 257.406 181.352,261.333 179.974,261.333 180.590 C 261.333 180.763,260.516 182.192,258.538 185.478 C 256.662 188.596,256.681 188.503,257.833 188.832 C 258.623 189.057,259.156 189.042,260.917 188.748 C 261.742 188.611,262.660 188.457,262.958 188.408 C 263.667 188.290,263.657 188.398,262.773 190.358 C 261.414 193.372,259.340 195.996,256.275 198.580 C 254.269 200.271,254.303 200.182,255.060 201.762 C 257.529 206.913,261.902 207.819,275.079 205.910 C 280.780 205.084,280.225 205.093,279.867 205.837 C 279.381 206.844,278.308 207.730,275.986 209.041 C 274.746 209.741,273.401 210.607,272.998 210.965 L 272.263 211.617 273.931 213.433 C 277.302 217.106,282.667 224.655,282.667 225.726 C 282.667 225.779,282.210 225.555,281.651 225.228 C 278.134 223.166,265.505 218.054,261.986 217.268 C 255.329 215.779,245.769 215.963,239.882 217.692 L 238.681 218.044 238.942 218.548 C 239.582 219.786,241.575 221.452,243.857 222.656 L 244.626 223.061 244.143 223.845 C 242.059 227.233,239.099 227.694,233.218 225.547 L 231.187 224.805 229.968 225.400 C 226.551 227.069,219.995 227.215,220.002 225.623 C 220.004 225.080,220.909 223.587,221.485 223.177 C 222.681 222.326,222.292 221.682,219.817 220.415 C 216.146 218.538,215.360 216.833,218.165 216.833 C 222.014 216.833,220.835 214.443,214.750 209.910 C 207.746 204.693,205.797 201.475,205.766 195.083 L 205.752 192.250 206.390 190.417 C 206.741 189.408,207.320 187.988,207.676 187.260 L 208.324 185.936 207.876 185.349 C 207.150 184.397,206.175 183.488,205.640 183.262 L 205.140 183.052 206.149 181.798 C 207.974 179.530,207.886 178.907,205.593 177.847 C 203.891 177.061,203.818 176.840,204.899 175.759 C 205.664 174.994,206.271 174.620,207.461 174.180 C 208.013 173.976,208.368 173.655,209.045 172.750 C 210.336 171.022,210.919 170.785,215.365 170.178 C 216.585 170.011,217.630 169.866,217.687 169.854 C 217.744 169.843,218.503 170.014,219.373 170.235 M122.833 172.216 C 121.903 172.686,121.855 173.845,122.741 174.426 C 124.020 175.264,125.327 173.419,124.154 172.431 C 123.574 171.944,123.421 171.919,122.833 172.216 M213.870 174.259 C 212.956 174.900,213.582 176.333,214.775 176.333 C 215.487 176.333,215.833 175.952,215.833 175.167 C 215.833 174.089,214.797 173.610,213.870 174.259 M314.485 224.009 C 316.048 224.263,319.266 225.936,323.412 228.651 C 325.339 229.914,327.629 231.363,328.500 231.872 C 335.190 235.780,334.876 241.197,327.124 255.602 C 320.746 267.456,320.284 269.553,323.566 271.764 C 328.352 274.987,328.428 278.341,323.877 285.500 C 302.324 319.404,265.862 352.354,234.536 366.237 C 228.876 368.745,227.527 369.100,224.186 368.955 C 218.422 368.707,217.157 367.767,215.828 362.750 C 215.202 360.389,214.663 359.167,214.001 358.610 C 211.832 356.785,187.473 357.602,181.900 359.687 L 181.008 360.021 180.653 361.219 C 178.878 367.212,175.976 369.681,171.903 368.665 C 153.054 363.959,123.455 341.485,93.648 309.245 C 82.298 296.970,73.215 285.531,72.258 282.307 C 71.249 278.912,73.062 274.205,76.730 270.694 C 78.174 269.313,78.169 269.127,76.582 265.500 C 76.241 264.721,75.777 263.525,75.550 262.842 C 75.052 261.341,74.490 260.209,72.197 256.083 C 67.338 247.338,66.079 243.001,67.167 238.749 C 67.916 235.822,69.579 234.132,72.512 233.319 C 74.353 232.809,76.023 231.866,79.045 229.633 C 83.207 226.556,84.759 225.830,87.160 225.836 C 91.801 225.849,96.654 229.376,97.764 233.544 C 98.428 236.038,98.054 236.656,93.525 240.562 C 87.461 245.790,87.464 245.769,91.923 252.083 C 96.921 259.163,98.226 261.779,98.835 265.943 C 99.177 268.278,98.724 269.074,95.944 271.031 C 91.678 274.033,91.285 274.972,93.189 277.605 C 107.626 297.572,136.940 325.680,157.085 338.872 C 164.861 343.964,175.161 349.150,175.170 347.976 C 175.183 346.158,176.071 344.049,177.197 343.158 C 179.439 341.386,181.784 341.139,200.000 340.752 C 202.429 340.700,206.577 340.578,209.218 340.480 C 217.277 340.182,218.688 340.771,221.739 345.711 C 223.348 348.318,223.762 348.267,231.606 344.500 C 254.663 333.428,288.318 302.978,304.830 278.250 C 307.794 273.812,307.793 273.592,304.797 270.967 C 301.156 267.776,301.000 267.527,301.000 264.898 C 301.000 261.129,302.151 258.330,306.164 252.335 C 307.828 249.851,309.776 246.609,310.641 244.886 L 311.326 243.522 310.691 242.578 C 309.714 241.125,308.427 239.921,306.389 238.556 C 302.305 235.820,301.653 234.156,303.320 230.719 C 305.158 226.930,308.862 224.370,313.250 223.855 C 313.342 223.845,313.898 223.914,314.485 224.009 M311.000 226.995 C 307.186 227.686,303.551 233.642,306.593 234.216 C 308.540 234.584,309.622 233.460,310.000 230.676 C 310.295 228.503,310.582 228.097,311.788 228.142 C 312.811 228.181,313.251 228.453,314.531 229.839 L 315.646 231.046 316.438 230.956 C 317.652 230.820,317.988 230.112,317.342 229.052 C 316.637 227.896,312.834 226.663,311.000 226.995 M86.750 228.371 C 84.722 229.094,83.592 231.170,84.146 233.154 C 84.331 233.815,84.505 233.736,86.334 232.153 C 88.287 230.463,89.052 230.000,89.892 230.000 C 90.536 230.000,90.548 230.019,90.919 231.618 C 91.365 233.543,93.207 236.333,94.032 236.333 C 94.862 236.333,95.704 235.628,95.605 235.016 C 95.063 231.677,89.400 227.427,86.750 228.371 M319.719 232.208 C 319.265 235.528,315.854 242.425,311.002 249.833 C 305.353 258.457,303.240 263.368,304.483 264.985 L 304.791 265.386 305.271 265.048 C 309.440 262.105,313.930 262.276,317.391 265.508 L 318.645 266.679 319.084 265.931 C 319.325 265.520,319.784 264.373,320.104 263.383 C 320.716 261.491,321.283 260.359,324.137 255.333 C 328.188 248.200,329.630 244.401,330.006 239.877 C 330.163 237.983,330.152 237.791,329.846 237.192 C 328.667 234.880,323.605 231.495,320.495 230.937 L 319.907 230.832 319.719 232.208 M79.325 232.312 C 78.917 232.576,78.058 233.220,77.417 233.742 C 76.000 234.896,74.807 235.611,73.917 235.841 C 70.330 236.765,69.236 237.939,69.264 240.833 C 69.293 243.821,70.332 246.535,75.455 257.000 C 76.824 259.796,78.453 263.251,79.076 264.677 L 80.208 267.271 81.031 266.470 C 83.321 264.239,85.262 263.551,88.382 263.864 C 90.116 264.038,90.255 264.100,92.250 265.587 C 94.575 267.319,96.358 268.063,96.610 267.406 C 97.024 266.328,94.155 260.427,90.578 255.000 C 85.838 247.808,82.415 240.413,80.665 233.583 C 80.184 231.707,80.215 231.737,79.325 232.312 M310.831 234.585 L 308.917 236.505 309.414 237.455 C 310.251 239.054,312.740 241.320,313.386 241.072 C 313.801 240.913,314.431 239.453,314.982 237.371 L 315.479 235.492 314.204 234.121 C 313.502 233.367,312.887 232.731,312.837 232.708 C 312.787 232.684,311.884 233.529,310.831 234.585 M86.743 235.246 C 84.838 237.175,84.806 237.219,84.917 237.813 C 85.062 238.596,85.984 240.980,86.651 242.302 L 87.175 243.339 90.000 241.064 L 92.826 238.788 92.121 237.972 C 90.446 236.031,89.856 235.269,89.287 234.306 L 88.682 233.284 86.743 235.246 M175.554 235.159 C 182.198 236.858,185.480 241.529,184.671 248.134 C 184.428 250.116,184.510 250.330,186.080 251.815 C 189.712 255.251,194.386 254.585,208.167 248.670 C 212.796 246.683,215.241 245.803,216.731 245.589 C 217.736 245.445,217.795 245.251,215.798 248.653 C 213.249 252.993,212.967 253.543,213.205 253.694 C 213.776 254.057,215.240 254.067,218.382 253.728 L 219.346 253.624 218.921 254.753 C 217.642 258.153,215.918 260.462,212.318 263.597 C 210.441 265.231,210.472 265.143,211.239 266.738 C 213.734 271.927,218.308 272.849,231.583 270.842 C 236.678 270.072,236.347 270.100,236.221 270.448 C 235.751 271.736,234.353 272.884,231.417 274.392 C 230.592 274.816,229.582 275.452,229.172 275.807 L 228.428 276.452 229.647 277.767 C 232.550 280.899,235.531 284.906,237.615 288.476 C 239.024 290.891,239.048 290.973,238.196 290.435 C 236.421 289.315,231.889 287.277,226.436 285.148 C 224.775 284.499,222.779 283.714,222.000 283.402 C 216.960 281.384,208.815 280.713,201.083 281.677 C 198.575 281.990,195.413 282.687,195.105 282.995 C 194.605 283.495,197.083 286.049,199.208 287.224 C 200.875 288.146,200.814 288.036,200.195 289.009 C 198.120 292.267,195.024 292.646,189.333 290.340 C 187.160 289.459,186.883 289.384,186.583 289.596 C 184.396 291.139,183.005 291.556,180.000 291.571 C 175.606 291.593,174.899 290.706,177.430 288.350 C 178.799 287.076,178.631 286.736,175.975 285.404 C 172.531 283.677,171.514 281.833,174.005 281.833 C 178.318 281.833,177.254 279.602,170.667 274.827 C 163.604 269.708,161.611 266.438,161.631 260.000 L 161.639 257.583 162.548 255.417 C 163.048 254.225,163.701 252.709,163.998 252.048 L 164.539 250.847 164.024 250.197 C 163.278 249.256,162.239 248.358,161.754 248.236 C 161.157 248.086,161.197 248.007,162.958 245.841 C 164.132 244.397,163.843 243.829,161.382 242.749 C 160.576 242.395,159.884 242.080,159.843 242.049 C 159.468 241.758,163.104 239.167,163.888 239.167 C 164.028 239.167,164.580 238.589,165.113 237.882 C 166.516 236.024,167.095 235.774,171.348 235.185 C 174.264 234.782,174.084 234.783,175.554 235.159 M170.037 239.259 C 169.274 239.794,169.705 240.883,170.764 241.094 C 171.814 241.305,172.623 239.965,171.862 239.276 C 171.478 238.928,170.522 238.920,170.037 239.259 M87.667 266.557 C 87.667 268.547,89.649 273.333,90.474 273.333 C 90.613 273.333,92.800 270.842,93.055 270.393 C 93.216 270.108,92.780 269.492,91.271 267.873 C 89.294 265.752,87.667 265.158,87.667 266.557 M308.221 266.708 C 306.513 267.854,306.473 268.092,307.759 269.481 C 308.854 270.664,308.965 270.691,309.628 269.935 C 310.452 268.996,310.701 267.166,310.146 266.128 C 309.905 265.678,309.635 265.760,308.221 266.708 M313.667 267.042 C 313.667 268.929,312.698 271.576,311.426 273.167 C 310.950 273.762,310.159 274.850,309.670 275.583 C 292.517 301.263,262.410 329.961,237.878 344.015 C 228.304 349.500,222.743 351.581,217.706 351.564 C 214.937 351.555,215.119 351.233,216.263 354.108 C 216.796 355.449,217.093 356.539,217.332 358.025 C 217.805 360.965,218.121 362.303,218.572 363.277 C 220.366 367.148,225.172 367.770,231.583 364.959 C 256.101 354.211,283.713 332.313,305.928 306.000 C 315.580 294.567,324.007 281.568,323.996 278.127 C 323.989 275.764,323.935 275.699,317.279 270.105 C 316.530 269.476,315.410 268.514,314.792 267.968 C 314.173 267.422,313.667 267.005,313.667 267.042 M82.167 269.074 C 75.809 274.295,73.854 278.516,75.492 283.491 C 77.401 289.291,98.764 313.010,117.923 330.602 C 139.795 350.685,157.085 362.476,169.333 365.662 C 174.506 367.007,177.127 365.058,178.351 358.954 C 178.783 356.797,179.180 355.781,180.027 354.667 C 180.606 353.906,181.167 352.672,181.167 352.160 C 181.167 352.093,180.585 351.989,179.875 351.928 C 169.955 351.076,155.111 342.259,135.921 325.819 C 112.919 306.115,88.371 278.582,84.742 268.417 C 84.579 267.958,84.401 267.534,84.347 267.474 C 84.294 267.413,83.313 268.134,82.167 269.074 M313.917 273.880 C 315.174 274.555,315.228 274.900,314.083 274.960 C 312.673 275.034,312.558 275.102,311.757 276.340 C 310.814 277.798,310.730 277.566,312.649 278.792 C 314.602 280.039,314.518 280.031,315.122 279.042 C 315.884 277.794,315.893 277.701,315.322 277.129 C 314.349 276.156,315.043 275.983,316.350 276.872 C 316.936 277.272,317.659 277.697,317.954 277.818 C 318.403 278.001,318.465 278.088,318.328 278.343 C 318.178 278.624,318.118 278.629,317.588 278.408 C 316.705 278.039,316.564 278.098,316.012 279.062 C 315.310 280.289,315.312 280.294,317.072 281.375 C 319.265 282.722,319.757 282.595,320.774 280.417 C 321.262 279.373,321.260 279.241,320.751 278.237 C 319.964 276.687,320.501 276.524,321.815 277.913 L 322.679 278.826 322.403 279.371 C 322.252 279.671,321.735 280.517,321.255 281.250 C 320.245 282.793,319.212 284.581,318.685 285.695 C 318.256 286.601,317.940 286.910,317.580 286.772 C 317.347 286.683,317.347 286.623,317.578 286.178 C 318.145 285.081,318.236 285.178,314.250 282.630 C 309.940 279.876,309.861 279.844,309.167 280.583 C 308.142 281.674,308.174 280.760,309.214 279.233 C 309.708 278.509,310.509 277.204,310.995 276.333 C 312.548 273.550,312.679 273.333,312.799 273.338 C 312.864 273.341,313.367 273.584,313.917 273.880 M84.953 275.208 C 86.725 275.962,87.958 277.125,88.831 278.868 C 89.682 280.569,89.676 280.612,88.491 281.457 C 87.412 282.226,87.380 282.214,87.750 281.167 C 88.848 278.054,85.817 275.463,82.749 276.892 C 79.563 278.376,78.099 281.317,79.478 283.465 C 80.167 284.539,80.552 284.583,81.790 283.730 C 82.753 283.066,82.908 282.586,82.395 281.852 C 82.169 281.531,82.161 281.440,82.349 281.324 C 82.654 281.135,82.960 281.437,83.660 282.614 C 83.978 283.147,84.484 283.878,84.785 284.238 C 85.555 285.158,85.492 285.608,84.657 285.162 C 84.124 284.876,82.167 286.074,82.167 286.686 C 82.167 288.169,78.639 284.614,77.724 282.210 C 75.937 277.512,80.339 273.248,84.953 275.208 M92.124 284.199 C 95.215 287.612,95.837 289.629,94.267 291.150 C 93.552 291.843,92.422 292.039,91.734 291.588 C 91.070 291.153,90.008 293.076,89.468 295.694 C 89.314 296.436,89.221 296.615,89.059 296.479 C 88.807 296.271,88.500 296.425,88.500 296.760 C 88.500 297.191,88.235 297.013,87.926 296.375 C 87.288 295.056,87.379 293.775,88.237 292.030 C 89.446 289.570,89.218 288.878,87.564 289.985 C 85.724 291.216,85.532 291.541,85.917 292.769 C 86.156 293.533,85.541 293.334,84.855 292.427 C 84.487 291.939,83.769 291.090,83.260 290.540 C 82.456 289.672,82.368 289.512,82.589 289.329 C 82.799 289.154,82.909 289.180,83.224 289.476 C 83.830 290.044,83.944 289.978,87.391 287.065 C 90.636 284.322,90.955 283.947,90.415 283.498 C 90.219 283.336,90.206 283.237,90.358 283.054 C 90.663 282.686,90.882 282.828,92.124 284.199 M309.430 284.149 C 310.470 284.622,310.833 285.192,310.833 286.353 C 310.833 287.452,310.708 287.362,312.667 287.664 C 314.573 287.958,316.097 287.883,316.831 287.461 C 318.003 286.787,317.830 287.845,316.562 289.114 C 315.526 290.149,314.942 290.271,312.237 290.011 C 309.865 289.783,309.702 289.812,309.323 290.520 C 308.851 291.401,312.821 293.204,313.422 292.381 C 313.597 292.142,313.673 292.131,313.895 292.315 C 314.131 292.511,314.082 292.636,313.440 293.476 C 313.045 293.993,312.428 294.921,312.069 295.538 C 311.413 296.667,311.272 296.781,310.858 296.519 C 310.678 296.405,310.673 296.300,310.830 296.006 C 311.227 295.264,310.934 294.936,308.126 292.986 C 306.636 291.951,304.999 290.781,304.490 290.385 C 303.429 289.563,303.252 289.528,302.717 290.031 C 301.946 290.755,301.870 290.134,302.587 288.964 C 305.519 284.177,307.077 283.081,309.430 284.149 M305.705 286.038 C 305.497 286.138,305.168 286.477,304.974 286.792 L 304.621 287.363 305.019 287.757 C 305.635 288.368,308.365 290.023,308.604 289.932 C 309.017 289.773,309.710 288.528,309.609 288.125 C 309.221 286.580,307.021 285.404,305.705 286.038 M90.750 287.197 C 88.849 288.677,88.853 288.669,89.598 289.494 C 91.283 291.359,94.710 288.416,93.155 286.439 C 92.663 285.815,92.432 285.888,90.750 287.197 M304.042 293.222 C 308.165 295.241,309.110 300.072,305.992 303.191 C 300.864 308.319,292.738 301.932,296.663 295.860 C 298.577 292.898,301.353 291.906,304.042 293.222 M99.956 294.035 C 100.393 294.145,100.774 294.250,100.802 294.268 C 100.929 294.344,99.497 296.944,97.907 299.523 C 95.486 303.451,95.234 304.100,95.915 304.665 C 96.051 304.778,96.122 304.938,96.072 305.019 C 95.855 305.370,95.472 305.091,94.615 303.958 C 94.113 303.294,93.468 302.530,93.184 302.260 C 92.899 301.991,92.667 301.677,92.667 301.562 C 92.667 301.156,93.048 301.122,93.335 301.502 C 93.717 302.008,94.109 301.846,94.443 301.044 C 94.587 300.699,94.846 300.218,95.019 299.974 C 95.464 299.348,95.426 299.200,94.554 298.125 C 93.651 297.013,93.728 297.030,92.329 297.626 C 90.793 298.280,90.819 298.254,91.112 298.841 C 91.475 299.568,91.099 300.067,90.637 299.471 C 89.674 298.229,89.450 297.817,89.636 297.631 C 89.774 297.493,89.776 297.381,89.642 297.221 C 89.496 297.044,89.592 297.000,90.126 297.000 C 90.911 297.000,95.118 295.510,97.833 294.271 C 98.915 293.777,98.933 293.775,99.956 294.035 M298.176 295.193 C 295.016 297.347,298.321 302.528,303.027 302.801 C 305.080 302.919,306.558 301.789,306.554 300.102 C 306.548 297.148,300.503 293.606,298.176 295.193 M97.000 295.675 C 96.679 295.846,96.042 296.111,95.583 296.263 C 94.365 296.669,94.342 296.743,95.167 297.584 C 95.905 298.336,96.167 298.486,96.167 298.157 C 96.167 298.060,96.388 297.704,96.659 297.365 C 97.118 296.792,97.751 295.527,97.635 295.414 C 97.606 295.386,97.321 295.503,97.000 295.675 M104.972 299.777 C 105.994 300.898,106.119 301.104,105.987 301.452 C 105.848 301.817,105.498 305.259,105.255 308.650 C 105.138 310.282,105.066 310.289,106.801 308.500 C 108.581 306.664,109.429 305.382,109.103 305.022 C 108.806 304.693,108.736 304.000,109.001 304.000 C 109.207 304.000,111.833 306.651,111.833 306.860 C 111.833 307.160,111.351 307.186,110.927 306.908 C 110.272 306.479,109.116 307.337,105.939 310.609 C 103.117 313.517,103.212 313.442,102.772 313.120 C 102.408 312.854,102.826 307.707,103.610 302.792 C 103.809 301.545,102.314 302.647,99.870 305.553 C 98.384 307.318,98.417 307.242,98.838 307.924 C 99.131 308.398,99.161 308.557,98.994 308.757 C 98.820 308.967,98.576 308.789,97.373 307.573 C 95.897 306.080,95.771 305.692,96.873 306.030 C 97.738 306.296,98.356 305.848,101.365 302.777 C 103.981 300.107,104.126 299.835,103.393 298.986 C 103.155 298.710,103.243 298.500,103.598 298.500 C 103.712 298.500,104.331 299.075,104.972 299.777 M294.162 302.246 C 294.826 302.882,295.042 303.493,294.974 304.547 L 294.917 305.447 295.750 305.058 C 297.359 304.308,298.755 304.776,299.554 306.333 C 300.406 307.995,299.721 309.998,297.588 312.083 C 296.932 312.725,296.112 313.644,295.767 314.125 C 295.163 314.965,294.659 315.225,294.410 314.823 C 294.350 314.725,294.421 314.513,294.567 314.351 C 295.042 313.827,294.881 313.414,293.875 312.567 C 293.348 312.124,292.129 311.003,291.167 310.078 C 288.561 307.572,287.738 307.066,287.144 307.604 C 286.362 308.312,286.153 307.607,286.888 306.738 C 287.192 306.378,287.770 305.596,288.172 305.000 C 289.010 303.756,289.142 303.630,290.832 302.481 C 292.326 301.465,293.277 301.397,294.162 302.246 M290.583 304.019 C 289.186 304.830,289.213 305.218,290.764 306.613 C 292.631 308.292,292.987 308.279,293.517 306.510 C 293.973 304.986,291.920 303.243,290.583 304.019 M294.368 307.102 C 293.140 307.728,292.913 308.448,293.708 309.192 C 295.814 311.161,296.669 311.475,297.600 310.621 C 299.334 309.032,296.544 305.995,294.368 307.102 M113.767 308.306 C 118.032 311.411,120.129 315.503,118.789 318.105 C 116.857 321.853,112.355 322.131,108.965 318.711 C 108.350 318.091,107.321 317.058,106.678 316.417 C 105.885 315.625,105.553 315.181,105.644 315.034 C 105.752 314.861,105.823 314.870,105.993 315.075 C 106.558 315.755,107.092 315.443,109.616 312.958 C 112.790 309.835,113.325 309.120,112.963 308.489 C 112.715 308.058,112.729 307.833,113.003 307.833 C 113.065 307.833,113.409 308.046,113.767 308.306 M114.392 311.297 C 114.011 311.638,112.957 312.742,112.049 313.750 C 111.141 314.758,110.121 315.857,109.783 316.192 C 107.860 318.090,111.343 320.522,114.024 319.154 C 117.363 317.451,118.268 313.896,115.991 311.427 C 115.155 310.519,115.251 310.527,114.392 311.297 M282.532 311.651 C 283.521 312.221,291.965 315.667,292.373 315.667 C 292.591 315.667,292.915 315.557,293.093 315.422 C 293.271 315.287,293.510 315.175,293.625 315.172 C 294.096 315.160,293.763 315.733,292.540 317.037 C 291.828 317.796,291.083 318.642,290.883 318.917 C 290.540 319.390,290.505 319.401,290.230 319.130 C 289.957 318.861,289.956 318.824,290.219 318.534 C 290.733 317.966,290.562 317.723,289.262 317.182 C 287.602 316.491,287.538 316.503,286.534 317.705 C 285.504 318.938,285.533 318.714,286.250 319.905 C 286.571 320.438,286.833 320.936,286.833 321.012 C 286.833 321.428,287.434 321.462,287.846 321.069 C 288.267 320.667,288.281 320.666,288.564 320.979 C 288.842 321.286,288.813 321.338,287.788 322.357 C 287.203 322.940,286.572 323.634,286.387 323.900 C 286.190 324.184,285.971 324.335,285.859 324.266 C 285.585 324.097,285.621 323.412,285.917 323.167 C 286.363 322.796,286.188 322.100,285.285 320.658 C 284.800 319.883,283.942 318.271,283.378 317.075 C 282.813 315.878,282.161 314.566,281.928 314.158 C 281.614 313.609,281.503 313.175,281.502 312.486 C 281.499 311.215,281.614 311.122,282.532 311.651 M283.769 315.708 C 284.909 317.980,285.113 318.146,285.669 317.246 C 285.869 316.922,286.147 316.544,286.286 316.404 C 286.594 316.097,286.726 316.205,284.908 315.273 C 283.002 314.297,283.051 314.278,283.769 315.708 M123.762 318.292 C 124.859 319.277,126.187 320.445,126.712 320.888 C 127.853 321.849,127.843 321.775,126.965 322.965 C 126.579 323.489,126.238 323.952,126.206 323.995 C 126.013 324.259,125.867 323.439,125.950 322.555 L 126.047 321.515 125.022 320.466 L 123.997 319.417 123.078 320.417 C 122.573 320.967,121.957 321.669,121.711 321.978 L 121.263 322.540 121.673 322.846 C 121.899 323.015,122.283 323.306,122.526 323.493 C 123.051 323.896,123.547 323.929,123.892 323.584 C 124.138 323.338,124.667 323.401,124.667 323.676 C 124.667 323.844,123.216 325.592,122.623 326.138 C 122.157 326.567,121.870 326.388,122.159 325.848 C 122.597 325.030,122.347 324.395,121.267 323.580 L 120.618 323.090 119.789 324.003 C 117.960 326.020,117.877 326.637,119.285 327.742 C 120.436 328.645,120.838 328.750,121.914 328.426 C 122.847 328.145,123.291 328.321,122.741 328.753 C 122.339 329.069,121.154 329.902,120.883 330.060 C 120.761 330.131,119.789 329.349,118.383 328.046 C 117.118 326.875,115.644 325.589,115.108 325.190 C 113.922 324.306,114.039 323.586,115.262 324.245 C 116.083 324.687,116.154 324.630,119.253 321.019 C 121.871 317.968,121.883 317.951,121.692 317.423 C 121.211 316.093,121.404 316.174,123.762 318.292 M274.667 319.589 C 274.667 319.730,274.544 320.032,274.394 320.262 C 273.999 320.864,274.073 320.964,277.467 324.406 C 281.024 328.014,280.856 327.943,282.298 326.441 C 283.457 325.234,283.613 324.817,283.384 323.554 C 283.106 322.017,283.716 322.242,284.667 324.026 C 285.115 324.867,285.167 325.068,284.977 325.240 C 284.852 325.353,283.867 326.214,282.787 327.153 C 281.707 328.093,280.395 329.417,279.870 330.096 C 278.905 331.347,278.768 331.445,278.351 331.181 C 278.160 331.060,278.182 330.946,278.476 330.533 C 278.673 330.257,278.833 329.912,278.833 329.766 C 278.833 329.510,272.419 322.667,272.180 322.667 C 272.116 322.667,271.918 322.777,271.740 322.911 C 271.405 323.165,270.801 323.245,270.616 323.061 C 270.558 323.002,270.986 322.594,271.568 322.154 C 272.149 321.714,273.028 320.901,273.521 320.347 C 274.453 319.300,274.667 319.159,274.667 319.589 M131.427 325.815 C 132.375 326.245,133.681 327.211,134.122 327.808 L 134.493 328.311 134.122 328.952 C 133.097 330.720,132.900 330.706,132.802 328.856 C 132.694 326.825,131.298 325.879,130.208 327.099 C 129.659 327.713,129.854 329.743,130.602 331.200 C 132.019 333.959,128.399 336.915,125.693 335.208 C 122.845 333.411,122.410 332.134,124.052 330.381 C 124.723 329.665,124.792 329.763,124.703 331.301 C 124.612 332.863,124.895 333.635,125.717 334.076 C 127.540 335.055,128.694 333.251,127.837 330.761 C 126.605 327.179,128.545 324.506,131.427 325.815 M264.580 328.496 C 264.901 328.851,272.327 333.686,273.072 334.025 C 273.427 334.187,273.682 334.187,274.283 334.026 C 275.568 333.683,275.463 334.232,274.081 335.083 C 273.635 335.358,272.827 336.018,272.287 336.550 C 271.157 337.663,270.596 337.676,271.119 336.578 C 271.402 335.986,271.233 335.500,270.745 335.500 C 270.628 335.500,270.217 335.237,269.833 334.917 C 269.449 334.596,269.078 334.333,269.009 334.333 C 268.894 334.333,266.749 335.695,266.550 335.894 C 266.411 336.034,267.332 338.625,267.600 338.847 C 267.787 339.003,267.894 339.006,268.040 338.860 C 268.368 338.532,269.000 338.622,269.000 338.997 C 269.000 339.229,268.739 339.459,268.125 339.766 C 267.644 340.007,266.943 340.550,266.567 340.972 C 265.910 341.711,265.877 341.726,265.696 341.387 C 265.545 341.106,265.560 340.991,265.771 340.816 C 266.587 340.139,266.467 339.578,263.772 331.483 C 263.304 330.079,263.264 329.824,263.445 329.400 C 263.559 329.134,263.655 328.748,263.659 328.542 C 263.669 328.065,264.168 328.041,264.580 328.496 M261.076 332.395 C 261.926 333.886,261.904 333.946,260.725 333.368 C 259.854 332.940,259.801 332.934,259.368 333.203 C 259.120 333.358,258.635 333.639,258.292 333.829 C 257.948 334.018,257.667 334.272,257.667 334.393 C 257.667 334.663,263.280 342.167,263.481 342.167 C 263.561 342.167,263.906 342.050,264.249 341.906 C 264.867 341.648,265.333 341.679,265.333 341.978 C 265.333 342.063,264.752 342.504,264.042 342.957 C 263.331 343.410,262.364 344.130,261.892 344.557 C 261.096 345.278,260.333 345.571,260.333 345.156 C 260.333 345.058,260.558 344.789,260.833 344.558 C 261.115 344.321,261.333 343.974,261.333 343.764 C 261.333 343.268,255.890 336.000,255.519 336.000 C 254.397 336.000,253.471 337.556,253.783 338.919 C 253.933 339.577,253.697 340.312,253.441 339.982 C 252.483 338.749,251.795 336.481,252.514 336.925 C 252.751 337.072,253.651 336.529,255.667 335.023 C 259.032 332.510,259.833 331.833,259.833 331.507 C 259.833 331.236,260.147 330.959,260.305 331.091 C 260.335 331.117,260.682 331.703,261.076 332.395 M264.929 332.125 C 265.052 332.469,265.155 332.855,265.159 332.983 C 265.173 333.409,266.066 335.000,266.291 335.000 C 266.666 335.000,267.901 333.744,267.756 333.510 C 267.640 333.323,264.933 331.500,264.771 331.500 C 264.735 331.500,264.806 331.781,264.929 332.125 M138.859 332.504 C 139.815 332.770,141.838 334.182,142.785 335.244 L 143.648 336.212 142.992 337.179 C 142.075 338.529,141.433 338.721,141.851 337.520 C 143.054 334.069,138.531 332.360,135.382 335.076 C 131.742 338.215,134.178 344.416,138.265 342.417 C 139.172 341.973,139.485 342.001,139.497 342.526 C 139.501 342.658,138.049 343.876,137.595 344.122 C 136.344 344.801,133.298 342.556,132.059 340.043 C 129.928 335.719,134.036 331.165,138.859 332.504 M145.938 337.716 C 146.201 337.934,146.794 338.315,147.256 338.563 C 148.111 339.023,148.590 339.552,148.412 339.841 C 148.349 339.943,148.199 339.940,148.001 339.834 C 147.496 339.563,147.034 339.640,146.752 340.042 C 142.585 345.967,142.297 346.687,143.525 348.086 C 145.223 350.020,147.229 349.325,149.001 346.189 C 149.382 345.514,150.019 344.563,150.416 344.076 C 151.402 342.865,151.525 341.667,150.663 341.667 C 150.573 341.667,150.500 341.479,150.500 341.250 C 150.500 340.714,150.631 340.725,151.429 341.329 C 151.789 341.601,152.163 341.826,152.259 341.829 C 152.488 341.835,154.093 343.327,153.898 343.353 C 153.817 343.363,153.419 343.382,153.014 343.394 L 152.278 343.417 150.848 345.500 C 147.620 350.202,145.290 351.188,142.615 348.983 C 140.535 347.268,140.273 345.409,141.799 343.195 C 145.095 338.416,145.219 338.171,144.649 337.565 C 143.813 336.674,144.821 336.793,145.938 337.716 M251.877 339.589 C 253.019 341.164,252.932 341.567,251.633 340.708 C 248.318 338.517,245.225 342.678,247.205 346.667 C 249.468 351.225,255.053 351.180,255.308 346.602 C 255.366 345.551,255.508 345.178,255.854 345.169 C 255.980 345.166,256.580 346.562,256.733 347.215 C 256.881 347.839,255.631 349.480,254.417 350.257 C 251.577 352.074,247.772 351.910,246.002 349.894 C 242.918 346.381,244.362 341.559,249.191 339.252 C 251.135 338.323,250.941 338.299,251.877 339.589 M195.333 342.681 C 189.766 342.963,184.254 343.455,182.125 343.861 C 180.814 344.110,180.868 344.355,182.575 345.904 C 185.116 348.211,185.414 349.536,184.081 352.598 C 183.232 354.546,182.821 356.221,183.118 356.518 C 183.244 356.644,183.921 356.595,185.439 356.350 C 193.846 354.997,203.286 354.640,210.167 355.416 C 214.411 355.895,214.331 355.923,213.613 354.218 C 211.819 349.959,211.953 350.429,212.084 348.857 C 212.234 347.054,212.688 346.516,214.785 345.663 C 218.517 344.145,217.425 343.151,211.508 342.679 C 209.000 342.479,199.296 342.480,195.333 342.681 M156.424 344.882 C 158.577 346.071,158.497 345.993,158.504 346.917 C 158.517 348.579,159.158 352.182,159.776 354.067 L 160.044 354.885 160.453 354.234 C 160.996 353.370,162.663 349.969,162.665 349.721 C 162.666 349.614,162.479 349.303,162.250 349.030 C 161.889 348.601,161.709 348.167,161.892 348.167 C 162.426 348.167,165.500 349.900,165.500 350.201 C 165.500 350.444,165.042 350.534,164.711 350.357 C 164.112 350.036,163.016 351.431,161.258 354.750 C 159.263 358.515,159.159 358.667,158.554 358.667 C 158.013 358.667,158.000 358.650,158.000 357.958 C 158.001 357.155,156.320 347.830,156.177 347.840 C 155.880 347.859,152.833 353.664,152.833 354.210 C 152.833 354.338,153.021 354.618,153.250 354.833 C 153.667 355.225,153.780 355.577,153.537 355.727 C 153.466 355.771,152.885 355.476,152.246 355.072 C 151.606 354.667,150.836 354.254,150.533 354.152 C 149.797 353.906,149.941 353.603,150.841 353.500 C 151.726 353.399,152.106 352.945,154.079 349.632 C 155.884 346.601,156.290 345.000,155.254 345.000 C 155.111 345.000,155.000 344.854,155.000 344.667 C 155.000 344.205,155.276 344.247,156.424 344.882 M242.553 344.566 C 242.602 344.693,242.461 344.969,242.238 345.178 C 241.564 345.812,241.877 346.968,243.708 350.609 C 245.828 354.824,244.494 357.889,240.374 358.268 C 238.161 358.471,237.163 357.786,235.837 355.152 C 233.347 350.206,233.186 349.975,232.383 350.197 C 231.926 350.323,231.754 350.310,231.646 350.139 C 231.438 349.811,231.469 349.667,231.747 349.667 C 231.993 349.667,235.092 348.109,235.904 347.576 C 236.491 347.191,236.499 347.611,235.917 348.303 C 235.360 348.964,235.367 348.999,236.420 350.917 C 236.923 351.833,237.645 353.183,238.023 353.917 C 239.435 356.654,240.517 357.245,242.349 356.279 C 244.603 355.090,244.182 352.520,240.889 347.364 L 240.323 346.477 239.411 346.591 C 237.922 346.777,238.120 346.219,239.792 345.521 C 240.502 345.225,241.346 344.839,241.667 344.665 C 242.376 344.279,242.441 344.271,242.553 344.566 M178.427 347.351 C 178.192 347.630,178.000 347.922,178.000 347.999 C 178.000 348.076,177.954 348.258,177.899 348.403 C 177.629 349.107,180.775 349.673,181.630 349.074 C 182.247 348.641,182.109 348.123,181.292 347.808 C 180.902 347.658,180.194 347.380,179.719 347.189 L 178.855 346.843 178.427 347.351 M217.120 347.375 C 216.174 348.029,216.171 348.047,216.958 348.382 C 218.883 349.203,220.681 348.797,219.612 347.784 C 218.416 346.650,218.216 346.617,217.120 347.375 M167.827 350.635 C 168.104 350.912,169.376 351.568,170.940 352.240 C 172.394 352.865,173.964 353.584,174.428 353.839 C 174.893 354.094,175.438 354.328,175.640 354.359 C 175.993 354.415,175.980 354.461,175.295 355.623 C 174.488 356.992,174.277 357.060,174.256 355.957 C 174.238 355.019,173.814 354.499,172.728 354.084 C 171.816 353.736,172.173 353.245,170.119 357.667 C 167.935 362.368,168.033 362.038,168.678 362.542 C 168.965 362.767,169.174 363.064,169.142 363.201 C 169.065 363.530,164.167 361.238,164.167 360.873 C 164.167 360.705,164.256 360.670,164.458 360.759 C 165.208 361.089,165.937 361.039,166.193 360.640 C 166.663 359.909,169.848 352.960,169.791 352.790 C 169.536 352.026,167.426 351.849,166.608 352.523 C 165.804 353.186,165.117 352.860,165.776 352.128 C 165.963 351.920,166.357 351.394,166.650 350.958 C 167.277 350.026,167.231 350.039,167.827 350.635 M230.949 354.211 C 235.590 359.167,236.036 359.558,236.921 359.458 C 238.204 359.314,237.937 359.870,236.458 360.422 C 235.794 360.670,234.787 361.122,234.221 361.427 C 233.034 362.065,232.459 361.909,233.252 361.165 C 233.825 360.627,233.802 360.562,232.630 359.379 C 231.415 358.154,231.489 358.167,229.996 358.919 L 228.833 359.504 228.833 360.763 C 228.833 362.382,228.984 362.667,229.839 362.667 C 230.203 362.667,230.500 362.698,230.500 362.736 C 230.500 362.775,230.546 362.925,230.601 363.070 C 230.676 363.266,230.598 363.333,230.297 363.333 C 230.075 363.333,229.205 363.668,228.365 364.077 C 226.898 364.791,226.831 364.807,226.662 364.492 C 226.514 364.215,226.553 364.138,226.913 364.001 C 227.743 363.686,227.877 360.548,227.306 354.825 L 227.114 352.900 227.573 352.117 C 228.166 351.104,227.863 350.916,230.949 354.211 M228.177 355.542 C 228.205 358.004,228.477 358.479,229.639 358.093 C 231.103 357.606,231.090 357.547,229.011 355.288 C 228.259 354.472,228.165 354.501,228.177 355.542 " stroke="none" fill="#fcfbfb" fill-rule="evenodd"></path></g></svg>