<svg id="svg" version="1.1" xmlns="http://www.w3.org/2000/svg" xmlns:xlink="http://www.w3.org/1999/xlink" width="400" height="400" viewBox="0, 0, 400,400"><g id="svgg"><path id="path0" d="M179.000 46.628 C 174.074 47.263,168.769 48.223,164.900 49.180 C 163.965 49.411,162.525 49.760,161.700 49.956 C 158.386 50.743,150.711 53.200,147.800 54.406 C 123.751 64.368,103.891 81.248,88.744 104.600 C 81.646 115.543,81.776 114.421,87.169 118.232 C 92.752 122.177,92.627 121.582,89.369 128.705 C 88.836 129.870,88.400 131.058,88.400 131.345 C 88.400 131.632,88.281 131.986,88.135 132.132 C 86.122 134.145,82.232 151.340,80.817 164.477 C 79.498 176.732,81.276 196.935,84.654 208.060 C 86.325 213.564,87.178 215.987,88.047 217.695 C 88.241 218.077,88.400 218.566,88.400 218.783 C 88.400 218.999,88.832 220.127,89.359 221.288 C 89.887 222.450,90.803 224.570,91.395 226.000 C 92.469 228.596,95.358 234.153,97.010 236.800 C 114.785 265.280,141.212 285.106,170.400 291.857 C 171.830 292.188,173.720 292.627,174.600 292.834 C 226.623 305.049,285.507 275.438,307.115 226.195 C 309.180 221.487,312.398 213.041,312.399 212.324 C 312.400 211.952,312.559 211.549,312.754 211.429 C 312.949 211.308,313.204 210.713,313.321 210.105 C 313.438 209.497,313.713 208.370,313.932 207.600 C 319.404 188.364,319.728 163.187,314.770 142.400 C 314.586 141.630,314.324 140.460,314.188 139.800 C 314.051 139.140,313.794 138.240,313.615 137.800 C 313.437 137.360,313.063 136.190,312.785 135.200 C 310.485 127.025,304.471 112.832,301.596 108.794 C 301.158 108.179,300.800 107.559,300.800 107.416 C 300.800 106.588,292.595 95.006,288.862 90.563 C 276.289 75.598,260.795 64.261,241.200 55.688 C 234.192 52.622,221.269 49.003,211.600 47.399 C 202.955 45.964,187.062 45.589,179.000 46.628 M200.800 67.401 C 218.074 69.012,231.407 73.190,246.600 81.754 C 260.257 89.453,274.577 103.561,282.983 117.600 C 290.710 130.506,294.065 139.622,297.187 156.200 C 298.432 162.813,298.872 178.345,297.989 184.523 C 295.469 202.156,291.304 215.313,284.985 225.600 C 280.118 233.526,277.422 237.269,273.039 242.186 C 263.046 253.399,251.120 261.861,237.600 267.334 C 236.610 267.734,235.440 268.221,235.000 268.415 C 233.447 269.099,228.953 270.436,224.993 271.391 C 190.619 279.683,158.651 268.387,140.465 241.524 C 138.442 238.537,133.600 228.583,133.600 227.414 C 133.600 227.102,133.420 226.736,133.200 226.600 C 132.980 226.464,132.800 226.001,132.800 225.571 C 132.800 225.141,132.638 224.477,132.439 224.095 C 132.104 223.451,131.805 222.413,130.824 218.500 C 129.673 213.908,129.420 211.298,129.438 204.200 C 129.456 196.835,129.696 194.764,131.174 189.200 C 131.379 188.430,131.663 187.350,131.806 186.800 C 131.950 186.250,132.208 185.440,132.380 185.000 C 132.552 184.560,132.869 183.750,133.083 183.200 C 137.039 173.070,144.690 163.132,152.717 157.698 L 155.232 155.995 156.244 157.008 L 157.257 158.021 155.703 159.910 C 151.452 165.077,147.138 173.797,144.874 181.800 C 137.979 206.165,149.306 232.048,171.800 243.327 C 199.818 257.376,234.098 247.224,252.149 219.531 C 256.249 213.240,258.924 206.966,261.667 197.200 C 265.294 184.290,265.294 168.110,261.667 155.200 C 259.040 145.850,254.146 134.954,250.797 131.000 C 250.424 130.560,250.015 129.930,249.888 129.600 C 249.437 128.428,244.944 122.831,241.200 118.777 C 222.303 98.314,190.624 87.004,163.800 91.144 C 146.425 93.826,133.142 99.004,118.312 108.879 C 113.098 112.350,113.204 112.309,112.213 111.215 C 111.291 110.195,111.281 110.216,115.616 104.385 C 125.463 91.139,137.336 82.041,155.000 74.204 C 167.282 68.755,185.807 66.004,200.800 67.401 M186.600 112.182 C 198.406 114.355,207.817 118.202,217.200 124.690 C 228.618 132.585,238.489 145.565,242.114 157.452 C 243.203 161.023,243.125 161.484,241.380 161.805 C 240.304 162.004,240.031 161.796,238.273 159.444 C 236.454 157.009,229.710 150.130,226.200 147.129 C 217.551 139.733,204.863 133.290,194.800 131.183 C 187.262 129.605,185.971 129.470,178.400 129.463 C 138.460 129.430,108.345 162.354,108.831 205.524 C 108.861 208.232,108.822 210.490,108.743 210.543 C 106.284 212.182,105.223 210.349,102.867 200.400 C 96.167 172.102,108.961 140.460,133.800 123.901 C 149.412 113.493,169.502 109.034,186.600 112.182 M200.880 162.957 C 219.887 167.956,228.030 190.888,215.832 205.064 C 214.198 206.962,214.049 207.784,215.222 208.412 C 216.955 209.339,222.400 213.343,222.400 213.689 C 222.400 214.781,218.748 218.729,215.600 221.040 C 202.224 230.861,185.116 229.543,173.400 217.788 C 156.136 200.467,163.805 170.366,187.200 163.622 C 188.190 163.336,189.450 162.959,190.000 162.783 C 191.664 162.251,198.617 162.362,200.880 162.957 M171.600 316.850 C 165.204 317.886,158.684 322.359,156.216 327.403 C 150.546 338.991,156.272 350.223,170.600 355.621 C 181.797 359.839,184.083 361.545,184.319 365.859 C 184.863 375.798,167.962 375.402,164.342 365.390 C 164.071 364.641,163.623 363.941,163.347 363.835 C 162.935 363.677,157.115 367.749,155.311 369.458 C 155.041 369.713,154.204 370.303,153.450 370.769 C 151.522 371.961,151.459 372.474,152.915 375.161 C 157.178 383.033,165.001 387.153,175.742 387.186 C 190.442 387.230,199.366 378.998,199.361 365.400 C 199.357 354.765,195.563 350.632,180.338 344.679 C 170.697 340.910,168.400 339.153,168.400 335.548 C 168.400 327.444,181.540 327.241,185.642 335.282 C 186.615 337.190,187.225 337.175,190.000 335.177 C 191.210 334.305,193.515 332.682,195.123 331.568 C 198.601 329.160,198.753 328.868,197.549 326.910 C 192.725 319.067,182.466 315.090,171.600 316.850 M232.200 316.857 C 226.601 317.569,219.535 320.394,215.106 323.692 C 212.588 325.567,212.381 326.102,213.652 327.456 L 214.505 328.363 212.152 330.937 C 209.761 333.554,206.975 337.865,206.037 340.400 C 205.752 341.170,205.384 342.160,205.219 342.600 C 204.158 345.432,203.943 346.781,203.750 351.800 C 203.450 359.588,204.301 364.227,206.903 369.000 C 207.143 369.440,207.702 370.475,208.144 371.300 C 208.586 372.125,209.095 372.800,209.274 372.800 C 209.453 372.800,209.600 373.059,209.600 373.375 C 209.600 374.340,215.227 379.764,218.200 381.665 C 237.728 394.148,263.417 385.635,270.577 364.306 C 279.503 337.715,259.796 313.350,232.200 316.857 M15.043 318.233 C 14.508 319.627,14.798 359.694,15.370 363.400 C 17.828 379.328,27.954 387.596,44.400 387.102 C 55.794 386.760,63.704 382.167,67.962 373.421 C 71.039 367.101,71.000 367.513,71.000 341.200 L 71.000 317.800 63.700 317.691 L 56.400 317.582 56.400 338.985 C 56.400 362.047,56.370 362.439,54.244 366.788 C 50.304 374.847,36.851 375.348,32.428 367.600 C 30.149 363.609,30.243 364.676,30.114 341.200 C 30.048 329.210,29.902 318.995,29.790 318.500 C 29.519 317.309,15.495 317.055,15.043 318.233 M78.700 317.833 C 78.535 317.998,78.400 333.400,78.400 352.059 L 78.400 385.985 79.389 386.233 C 81.322 386.718,106.451 386.114,109.200 385.516 C 127.034 381.638,132.311 359.335,117.450 350.645 C 114.477 348.906,114.340 348.660,115.900 347.849 C 120.006 345.714,122.787 340.287,122.796 334.394 C 122.807 326.626,118.104 321.181,109.065 318.496 C 106.823 317.830,79.303 317.229,78.700 317.833 M131.876 317.858 C 131.285 318.448,131.558 385.467,132.153 385.961 C 132.533 386.276,134.816 386.385,139.453 386.310 L 146.200 386.200 146.200 352.000 L 146.200 317.800 139.176 317.691 C 135.312 317.631,132.027 317.706,131.876 317.858 M278.667 317.867 C 278.147 318.387,278.357 385.397,278.880 385.920 C 279.566 386.606,291.993 386.589,292.921 385.900 C 293.526 385.451,293.606 384.041,293.698 372.200 L 293.800 359.000 307.800 358.800 L 321.800 358.600 321.800 353.200 L 321.800 347.800 307.700 347.695 L 293.600 347.590 293.600 339.795 L 293.600 332.000 308.567 332.000 C 316.799 332.000,323.819 331.891,324.167 331.757 C 324.711 331.549,324.800 330.532,324.800 324.557 L 324.800 317.600 301.867 317.600 C 289.253 317.600,278.813 317.720,278.667 317.867 M330.644 318.230 C 330.127 319.576,330.376 331.082,330.932 331.543 C 331.275 331.828,334.637 332.022,340.432 332.092 L 349.400 332.200 349.503 358.762 C 349.576 377.574,349.736 385.482,350.052 385.862 C 350.557 386.471,362.985 386.651,363.911 386.063 C 364.318 385.805,364.421 380.418,364.414 359.770 C 364.409 345.486,364.515 333.395,364.649 332.900 C 364.893 332.001,364.902 332.000,373.798 332.000 C 384.640 332.000,383.652 332.779,383.510 324.347 L 383.400 317.800 357.144 317.697 C 333.461 317.604,330.864 317.657,330.644 318.230 M103.614 331.197 C 109.973 332.964,110.042 343.018,103.708 344.777 C 101.175 345.480,93.735 345.328,93.443 344.567 C 93.126 343.743,93.126 332.257,93.443 331.433 C 93.729 330.686,101.155 330.514,103.614 331.197 M246.447 332.511 C 258.482 338.311,261.356 356.787,251.878 367.421 C 246.792 373.127,236.499 374.734,228.934 371.003 C 218.166 365.693,215.192 351.008,222.954 341.478 C 224.730 339.297,225.176 337.600,223.973 337.600 C 223.136 337.600,223.682 336.002,224.857 335.013 C 230.151 330.559,240.024 329.414,246.447 332.511 M107.185 357.207 C 110.255 358.916,111.640 362.172,110.982 366.133 C 110.120 371.323,107.066 372.921,98.400 372.718 L 93.400 372.600 93.291 364.812 C 93.231 360.528,93.278 356.774,93.395 356.468 C 93.810 355.388,104.994 355.987,107.185 357.207 " stroke="none" fill="#f8f8f8" fill-rule="evenodd"></path><path id="path1" d="M0.000 200.000 L 0.000 400.000 200.000 400.000 L 400.000 400.000 400.000 200.000 L 400.000 0.000 200.000 0.000 L 0.000 0.000 0.000 200.000 M205.400 46.591 C 217.938 48.094,232.023 51.673,241.200 55.688 C 260.795 64.261,276.289 75.598,288.862 90.563 C 292.595 95.006,300.800 106.588,300.800 107.416 C 300.800 107.559,301.158 108.179,301.596 108.794 C 304.471 112.832,310.485 127.025,312.785 135.200 C 313.063 136.190,313.437 137.360,313.615 137.800 C 313.794 138.240,314.051 139.140,314.188 139.800 C 314.324 140.460,314.586 141.630,314.770 142.400 C 319.728 163.187,319.404 188.364,313.932 207.600 C 313.713 208.370,313.438 209.497,313.321 210.105 C 313.204 210.713,312.949 211.308,312.754 211.429 C 312.559 211.549,312.400 211.952,312.399 212.324 C 312.397 214.061,306.787 227.362,303.678 233.000 C 284.631 267.543,251.400 290.032,212.400 294.771 C 201.242 296.127,185.102 295.300,174.600 292.834 C 173.720 292.627,171.830 292.188,170.400 291.857 C 141.212 285.106,114.785 265.280,97.010 236.800 C 95.358 234.153,92.469 228.596,91.395 226.000 C 90.803 224.570,89.887 222.450,89.359 221.288 C 88.832 220.127,88.400 218.999,88.400 218.783 C 88.400 218.566,88.241 218.077,88.047 217.695 C 87.178 215.987,86.325 213.564,84.654 208.060 C 81.276 196.935,79.498 176.732,80.817 164.477 C 82.232 151.340,86.122 134.145,88.135 132.132 C 88.281 131.986,88.400 131.632,88.400 131.345 C 88.400 131.058,88.836 129.870,89.369 128.705 C 92.627 121.582,92.752 122.177,87.169 118.232 C 81.776 114.421,81.646 115.543,88.744 104.600 C 103.891 81.248,123.751 64.368,147.800 54.406 C 150.711 53.200,158.386 50.743,161.700 49.956 C 162.525 49.760,163.965 49.411,164.900 49.180 C 168.769 48.223,174.074 47.263,179.000 46.628 C 184.620 45.903,199.489 45.883,205.400 46.591 M185.600 67.240 C 174.720 68.090,162.526 70.866,155.000 74.204 C 137.336 82.041,125.463 91.139,115.616 104.385 C 111.281 110.216,111.291 110.195,112.213 111.215 C 113.204 112.309,113.098 112.350,118.312 108.879 C 156.320 83.572,199.368 84.308,232.600 110.831 C 238.705 115.704,248.727 126.584,249.888 129.600 C 250.015 129.930,250.424 130.560,250.797 131.000 C 252.845 133.418,256.397 140.259,258.623 146.072 C 262.686 156.683,264.426 165.709,264.392 176.000 C 264.357 186.777,262.823 194.999,258.720 206.400 C 246.565 240.177,206.916 258.843,176.000 245.342 C 158.040 237.499,147.448 224.335,143.541 205.000 C 140.812 191.490,146.220 171.437,155.703 159.910 L 157.257 158.021 156.244 157.008 L 155.232 155.995 152.717 157.698 C 144.690 163.132,137.039 173.070,133.083 183.200 C 132.869 183.750,132.552 184.560,132.380 185.000 C 132.208 185.440,131.950 186.250,131.806 186.800 C 131.663 187.350,131.379 188.430,131.174 189.200 C 129.696 194.764,129.456 196.835,129.438 204.200 C 129.420 211.298,129.673 213.908,130.824 218.500 C 131.805 222.413,132.104 223.451,132.439 224.095 C 132.638 224.477,132.800 225.141,132.800 225.571 C 132.800 226.001,132.980 226.464,133.200 226.600 C 133.420 226.736,133.600 227.102,133.600 227.414 C 133.600 228.583,138.442 238.537,140.465 241.524 C 158.651 268.387,190.619 279.683,224.993 271.391 C 228.953 270.436,233.447 269.099,235.000 268.415 C 235.440 268.221,236.610 267.734,237.600 267.334 C 251.120 261.861,263.046 253.399,273.039 242.186 C 277.422 237.269,280.118 233.526,284.985 225.600 C 291.304 215.313,295.469 202.156,297.989 184.523 C 298.872 178.345,298.432 162.813,297.187 156.200 C 294.065 139.622,290.710 130.506,282.983 117.600 C 274.577 103.561,260.257 89.453,246.600 81.754 C 227.024 70.719,205.772 65.663,185.600 67.240 M168.400 111.432 C 124.979 115.085,92.959 158.555,102.867 200.400 C 105.223 210.349,106.284 212.182,108.743 210.543 C 108.822 210.490,108.861 208.232,108.831 205.524 C 108.345 162.354,138.460 129.430,178.400 129.463 C 185.971 129.470,187.262 129.605,194.800 131.183 C 204.863 133.290,217.551 139.733,226.200 147.129 C 229.710 150.130,236.454 157.009,238.273 159.444 C 240.224 162.055,241.887 162.676,242.833 161.146 C 243.721 159.710,239.120 149.116,234.808 142.667 C 220.721 121.601,194.444 109.242,168.400 111.432 M190.000 162.783 C 189.450 162.959,188.190 163.336,187.200 163.622 C 163.805 170.366,156.136 200.467,173.400 217.788 C 185.116 229.543,202.224 230.861,215.600 221.040 C 218.748 218.729,222.400 214.781,222.400 213.689 C 222.400 213.343,216.955 209.339,215.222 208.412 C 214.049 207.784,214.198 206.962,215.832 205.064 C 225.569 193.748,222.032 173.956,208.904 166.299 C 203.093 162.910,194.563 161.324,190.000 162.783 M181.366 316.821 C 188.171 317.767,194.261 321.564,197.549 326.910 C 198.753 328.868,198.601 329.160,195.123 331.568 C 193.515 332.682,191.210 334.305,190.000 335.177 C 187.225 337.175,186.615 337.190,185.642 335.282 C 181.540 327.241,168.400 327.444,168.400 335.548 C 168.400 339.153,170.697 340.910,180.338 344.679 C 195.563 350.632,199.357 354.765,199.361 365.400 C 199.368 382.238,183.929 391.450,165.374 385.680 C 160.625 384.203,155.442 379.827,152.915 375.161 C 151.459 372.474,151.522 371.961,153.450 370.769 C 154.204 370.303,155.041 369.713,155.311 369.458 C 157.115 367.749,162.935 363.677,163.347 363.835 C 163.623 363.941,164.071 364.641,164.342 365.390 C 167.962 375.402,184.863 375.798,184.319 365.859 C 184.083 361.545,181.797 359.839,170.600 355.621 C 143.134 345.274,152.156 312.758,181.366 316.821 M243.200 316.813 C 267.197 319.923,280.077 347.356,268.172 370.000 C 259.174 387.114,235.404 392.663,218.200 381.665 C 215.227 379.764,209.600 374.340,209.600 373.375 C 209.600 373.059,209.453 372.800,209.274 372.800 C 209.095 372.800,208.586 372.125,208.144 371.300 C 207.702 370.475,207.143 369.440,206.903 369.000 C 204.301 364.227,203.450 359.588,203.750 351.800 C 203.943 346.781,204.158 345.432,205.219 342.600 C 205.384 342.160,205.752 341.170,206.037 340.400 C 206.975 337.865,209.761 333.554,212.152 330.937 L 214.505 328.363 213.652 327.456 C 212.381 326.102,212.588 325.567,215.106 323.692 C 222.580 318.127,233.224 315.521,243.200 316.813 M29.790 318.500 C 29.902 318.995,30.048 329.210,30.114 341.200 C 30.243 364.676,30.149 363.609,32.428 367.600 C 36.851 375.348,50.304 374.847,54.244 366.788 C 56.370 362.439,56.400 362.047,56.400 338.985 L 56.400 317.582 63.700 317.691 L 71.000 317.800 71.000 341.200 C 71.000 367.513,71.039 367.101,67.962 373.421 C 63.704 382.167,55.794 386.760,44.400 387.102 C 27.954 387.596,17.828 379.328,15.370 363.400 C 14.798 359.694,14.508 319.627,15.043 318.233 C 15.495 317.055,29.519 317.309,29.790 318.500 M109.065 318.496 C 118.104 321.181,122.807 326.626,122.796 334.394 C 122.787 340.287,120.006 345.714,115.900 347.849 C 114.340 348.660,114.477 348.906,117.450 350.645 C 132.311 359.335,127.034 381.638,109.200 385.516 C 106.451 386.114,81.322 386.718,79.389 386.233 L 78.400 385.985 78.400 352.059 C 78.400 333.400,78.535 317.998,78.700 317.833 C 79.303 317.229,106.823 317.830,109.065 318.496 M146.200 352.000 L 146.200 386.200 139.453 386.310 C 134.816 386.385,132.533 386.276,132.153 385.961 C 131.558 385.467,131.285 318.448,131.876 317.858 C 132.027 317.706,135.312 317.631,139.176 317.691 L 146.200 317.800 146.200 352.000 M324.800 324.557 C 324.800 330.532,324.711 331.549,324.167 331.757 C 323.819 331.891,316.799 332.000,308.567 332.000 L 293.600 332.000 293.600 339.795 L 293.600 347.590 307.700 347.695 L 321.800 347.800 321.800 353.200 L 321.800 358.600 307.800 358.800 L 293.800 359.000 293.698 372.200 C 293.606 384.041,293.526 385.451,292.921 385.900 C 291.993 386.589,279.566 386.606,278.880 385.920 C 278.357 385.397,278.147 318.387,278.667 317.867 C 278.813 317.720,289.253 317.600,301.867 317.600 L 324.800 317.600 324.800 324.557 M383.510 324.347 C 383.652 332.779,384.640 332.000,373.798 332.000 C 364.902 332.000,364.893 332.001,364.649 332.900 C 364.515 333.395,364.409 345.486,364.414 359.770 C 364.421 380.418,364.318 385.805,363.911 386.063 C 362.985 386.651,350.557 386.471,350.052 385.862 C 349.736 385.482,349.576 377.574,349.503 358.762 L 349.400 332.200 340.432 332.092 C 334.637 332.022,331.275 331.828,330.932 331.543 C 330.376 331.082,330.127 319.576,330.644 318.230 C 330.864 317.657,333.461 317.604,357.144 317.697 L 383.400 317.800 383.510 324.347 M93.443 331.433 C 93.126 332.257,93.126 343.743,93.443 344.567 C 93.735 345.328,101.175 345.480,103.708 344.777 C 110.042 343.018,109.973 332.964,103.614 331.197 C 101.155 330.514,93.729 330.686,93.443 331.433 M232.106 331.393 C 227.937 332.563,223.600 335.338,223.600 336.836 C 223.600 337.256,223.768 337.600,223.973 337.600 C 225.176 337.600,224.730 339.297,222.954 341.478 C 219.023 346.304,217.593 353.548,219.371 359.629 C 224.637 377.636,251.749 377.365,256.484 359.258 C 261.124 341.518,248.292 326.852,232.106 331.393 M93.395 356.468 C 93.278 356.774,93.231 360.528,93.291 364.812 L 93.400 372.600 98.400 372.718 C 107.066 372.921,110.120 371.323,110.982 366.133 C 111.640 362.172,110.255 358.916,107.185 357.207 C 104.994 355.987,93.810 355.388,93.395 356.468 " stroke="none" fill="#040404" fill-rule="evenodd"></path></g></svg>