<svg id="svg" version="1.1" xmlns="http://www.w3.org/2000/svg" xmlns:xlink="http://www.w3.org/1999/xlink" width="400" height="383.96624472573836" viewBox="0, 0, 400,383.96624472573836"><g id="svgg"><path id="path0" d="M135.771 32.871 C 135.316 34.056,135.907 196.647,136.372 198.463 C 136.643 199.520,137.215 201.854,137.644 203.650 C 139.930 213.223,145.516 223.787,151.704 230.237 L 153.433 232.040 152.443 232.288 C 151.443 232.539,149.410 234.491,148.158 236.402 L 147.477 237.441 146.265 236.179 C 145.033 234.896,140.188 231.316,139.684 231.316 C 139.532 231.316,138.931 230.976,138.347 230.561 C 136.006 228.894,129.967 226.214,124.972 224.626 C 116.493 221.930,112.543 221.324,103.510 221.332 C 87.988 221.348,76.233 225.178,62.632 234.653 C 47.779 244.999,37.196 263.758,34.994 283.639 C 34.307 289.839,34.433 362.222,35.131 362.613 C 35.432 362.782,45.072 362.834,56.552 362.728 L 77.426 362.536 77.631 322.767 C 77.855 279.224,77.716 281.855,80.146 275.444 C 87.633 255.696,117.278 254.626,126.412 273.775 C 129.866 281.017,129.860 280.932,129.868 324.970 L 129.875 362.715 150.853 362.818 C 162.392 362.874,171.985 362.826,172.171 362.710 C 172.364 362.591,172.563 343.906,172.632 319.675 L 172.753 276.849 173.782 273.056 C 177.497 259.365,186.275 252.403,199.808 252.415 C 213.489 252.427,222.850 260.199,225.996 274.159 L 226.862 278.002 226.946 320.269 L 227.030 362.536 248.038 362.728 C 259.593 362.834,269.196 362.828,269.378 362.715 C 269.561 362.602,269.769 344.533,269.841 322.561 C 269.986 278.053,269.836 280.597,272.664 274.524 C 275.833 267.718,282.445 261.983,288.169 261.076 C 288.917 260.958,289.830 260.698,290.197 260.498 C 290.563 260.298,292.898 260.141,295.384 260.148 C 307.062 260.184,314.938 265.160,319.160 275.170 C 321.870 281.595,321.748 279.451,321.895 323.247 C 321.979 348.128,322.165 362.729,322.398 362.732 C 322.601 362.733,332.147 362.736,343.612 362.738 L 364.457 362.742 364.572 324.214 C 364.691 284.241,364.624 282.040,363.072 274.981 C 357.958 251.722,339.971 231.910,317.322 224.587 C 303.186 220.018,287.906 220.093,273.817 224.803 C 265.937 227.437,255.881 233.016,253.225 236.228 C 252.265 237.388,251.980 237.548,251.703 237.080 C 250.474 235.004,248.744 233.269,246.733 232.095 C 246.331 231.861,246.579 231.448,247.765 230.377 C 255.424 223.457,262.441 206.748,263.588 192.699 C 264.192 185.303,264.105 32.665,263.497 32.647 C 263.232 32.639,253.593 32.633,242.075 32.635 L 221.134 32.637 220.921 113.437 C 220.773 170.044,220.583 194.696,220.289 195.773 C 217.202 207.077,210.803 212.217,199.808 212.223 C 188.856 212.230,182.394 207.130,179.208 195.965 C 178.525 193.574,178.490 190.047,178.391 113.191 C 178.334 69.039,178.222 32.849,178.142 32.769 C 177.767 32.394,135.915 32.494,135.771 32.871 " stroke="none" fill="#0d6bb2" fill-rule="evenodd"></path><path id="path1" d="M0.000 192.123 L 0.000 384.246 200.000 384.246 L 400.000 384.246 400.000 192.123 L 400.000 0.000 200.000 0.000 L 0.000 0.000 0.000 192.123 M178.142 32.769 C 178.222 32.849,178.334 69.039,178.391 113.191 C 178.490 190.047,178.525 193.574,179.208 195.965 C 182.394 207.130,188.856 212.230,199.808 212.223 C 210.803 212.217,217.202 207.077,220.289 195.773 C 220.583 194.696,220.773 170.044,220.921 113.437 L 221.134 32.637 242.075 32.635 C 253.593 32.633,263.232 32.639,263.497 32.647 C 264.105 32.665,264.192 185.303,263.588 192.699 C 262.441 206.748,255.424 223.457,247.765 230.377 C 246.579 231.448,246.331 231.861,246.733 232.095 C 248.744 233.269,250.474 235.004,251.703 237.080 C 251.980 237.548,252.265 237.388,253.225 236.228 C 256.793 231.913,271.816 224.551,280.541 222.842 C 293.807 220.243,305.616 220.803,317.322 224.587 C 339.971 231.910,357.958 251.722,363.072 274.981 C 364.624 282.040,364.691 284.241,364.572 324.214 L 364.457 362.742 343.612 362.738 C 332.147 362.736,322.601 362.733,322.398 362.732 C 322.165 362.729,321.979 348.128,321.895 323.247 C 321.748 279.451,321.870 281.595,319.160 275.170 C 314.938 265.160,307.062 260.184,295.384 260.148 C 292.898 260.141,290.563 260.298,290.197 260.498 C 289.830 260.698,288.917 260.958,288.169 261.076 C 282.445 261.983,275.833 267.718,272.664 274.524 C 269.836 280.597,269.986 278.053,269.841 322.561 C 269.769 344.533,269.561 362.602,269.378 362.715 C 269.196 362.828,259.593 362.834,248.038 362.728 L 227.030 362.536 226.946 320.269 L 226.862 278.002 225.996 274.159 C 222.850 260.199,213.489 252.427,199.808 252.415 C 186.275 252.403,177.497 259.365,173.782 273.056 L 172.753 276.849 172.632 319.675 C 172.563 343.906,172.364 362.591,172.171 362.710 C 171.985 362.826,162.392 362.874,150.853 362.818 L 129.875 362.715 129.868 324.970 C 129.860 280.932,129.866 281.017,126.412 273.775 C 117.278 254.626,87.633 255.696,80.146 275.444 C 77.716 281.855,77.855 279.224,77.631 322.767 L 77.426 362.536 56.552 362.728 C 45.072 362.834,35.432 362.782,35.131 362.613 C 34.433 362.222,34.307 289.839,34.994 283.639 C 37.196 263.758,47.779 244.999,62.632 234.653 C 82.145 221.059,103.138 217.683,124.972 224.626 C 129.967 226.214,136.006 228.894,138.347 230.561 C 138.931 230.976,139.532 231.316,139.684 231.316 C 140.188 231.316,145.033 234.896,146.265 236.179 L 147.477 237.441 148.158 236.402 C 149.410 234.491,151.443 232.539,152.443 232.288 L 153.433 232.040 151.704 230.237 C 145.516 223.787,139.930 213.223,137.644 203.650 C 137.215 201.854,136.643 199.520,136.372 198.463 C 135.907 196.647,135.316 34.056,135.771 32.871 C 135.915 32.494,177.767 32.394,178.142 32.769 " stroke="none" fill="#fbfbfb" fill-rule="evenodd"></path></g></svg>