<svg id="svg" version="1.1" xmlns="http://www.w3.org/2000/svg" xmlns:xlink="http://www.w3.org/1999/xlink" width="400" height="424.6835443037975" viewBox="0, 0, 400,424.6835443037975"><g id="svgg"><path id="path0" d="M57.697 86.300 L 57.800 115.000 68.500 115.107 L 79.200 115.213 79.200 159.400 L 79.200 203.587 68.500 203.693 L 57.800 203.800 57.697 232.500 L 57.595 261.200 111.200 261.200 L 164.805 261.200 164.703 232.500 L 164.600 203.800 153.100 203.694 L 141.600 203.588 141.600 175.394 C 141.600 159.887,141.747 147.200,141.927 147.200 C 142.256 147.200,143.024 148.216,149.939 157.800 C 152.002 160.660,154.294 163.810,155.032 164.800 C 155.770 165.790,166.013 179.830,177.793 196.000 C 189.573 212.170,199.344 225.438,199.506 225.484 C 199.668 225.531,201.413 223.371,203.384 220.684 C 205.356 217.998,208.970 213.100,211.417 209.800 C 213.863 206.500,222.671 194.530,230.991 183.200 C 239.311 171.870,246.496 162.118,246.959 161.530 C 247.422 160.941,249.060 158.730,250.600 156.616 C 252.140 154.503,254.435 151.408,255.700 149.738 L 258.000 146.703 258.000 175.151 L 258.000 203.600 246.849 203.600 C 237.933 203.600,235.607 203.709,235.246 204.144 C 234.918 204.540,234.823 212.378,234.897 232.844 L 235.000 261.000 288.703 261.101 L 342.405 261.203 342.303 232.501 L 342.200 203.800 331.500 203.693 L 320.800 203.587 320.800 159.400 L 320.800 115.213 331.500 115.107 L 342.200 115.000 342.303 86.300 L 342.405 57.600 300.103 57.616 L 257.800 57.632 253.800 63.282 C 251.600 66.389,249.067 69.937,248.170 71.166 C 246.206 73.859,225.731 102.067,223.428 105.253 C 222.533 106.492,220.976 108.652,219.970 110.053 C 210.438 123.320,200.286 137.224,200.002 137.399 C 199.721 137.572,190.988 125.822,180.829 111.600 C 179.965 110.390,175.347 104.000,170.567 97.400 C 165.786 90.800,158.964 81.350,155.405 76.400 C 151.846 71.450,147.338 65.195,145.387 62.500 L 141.840 57.600 99.717 57.600 L 57.595 57.600 57.697 86.300 " stroke="none" fill="#fbcb04" fill-rule="evenodd"></path><path id="path1" d="M207.523 290.218 C 199.137 292.867,200.344 301.678,209.577 305.221 C 214.589 307.145,216.080 309.103,214.611 311.832 C 212.599 315.568,205.170 313.893,203.521 309.332 C 202.484 306.464,201.008 307.327,201.413 310.564 C 202.405 318.505,217.067 318.322,219.216 310.342 C 220.465 305.701,217.983 302.398,211.571 300.165 C 208.113 298.961,206.400 297.516,206.400 295.802 C 206.400 290.672,214.194 291.464,216.618 296.841 C 217.603 299.024,218.207 298.602,218.165 295.760 C 218.108 291.865,217.673 290.156,216.927 290.901 C 216.374 291.455,216.146 291.444,214.656 290.791 C 212.236 289.731,209.706 289.528,207.523 290.218 M305.559 290.348 C 294.041 292.799,292.662 310.245,303.571 315.478 C 312.488 319.755,321.807 313.570,321.772 303.400 C 321.740 294.100,314.671 288.409,305.559 290.348 M57.200 291.200 C 57.200 291.723,57.467 292.000,57.971 292.000 C 59.785 292.000,59.999 292.835,60.008 299.929 C 60.024 312.578,62.034 315.922,69.870 316.334 C 78.280 316.776,80.924 313.307,81.559 301.000 C 81.981 292.827,82.071 292.446,83.651 292.130 C 84.426 291.975,84.800 291.656,84.800 291.150 C 84.800 290.458,84.427 290.400,80.000 290.400 C 75.467 290.400,75.200 290.444,75.200 291.200 C 75.200 291.640,75.462 292.000,75.781 292.000 C 76.101 292.000,76.837 292.216,77.416 292.480 L 78.470 292.960 78.335 300.780 C 78.151 311.452,77.070 313.409,71.371 313.393 C 66.628 313.379,65.459 311.082,65.268 301.400 C 65.114 293.625,65.337 292.595,67.284 292.090 C 68.014 291.901,68.657 291.449,68.729 291.075 C 68.846 290.467,68.283 290.400,63.029 290.400 C 57.467 290.400,57.200 290.437,57.200 291.200 M86.650 290.719 C 86.338 291.224,86.883 291.746,88.500 292.494 L 90.000 293.187 90.000 302.334 C 90.000 312.521,89.795 313.711,87.949 314.248 C 85.493 314.963,86.826 315.401,91.799 315.512 C 97.191 315.633,98.538 315.047,95.182 314.042 C 94.070 313.709,93.444 313.243,93.182 312.552 C 92.711 311.313,92.671 298.127,93.138 297.838 C 93.324 297.724,94.740 299.198,96.284 301.115 C 97.829 303.032,101.123 307.120,103.605 310.200 C 109.084 317.000,109.981 317.464,110.034 313.527 C 110.286 295.059,110.616 292.197,112.525 291.924 C 113.002 291.856,113.452 291.485,113.525 291.100 C 113.647 290.462,113.192 290.400,108.400 290.400 C 103.625 290.400,103.154 290.464,103.275 291.094 C 103.363 291.553,103.937 291.874,104.972 292.042 C 107.441 292.443,107.600 292.930,107.600 300.076 C 107.600 303.995,107.449 306.400,107.203 306.400 C 106.769 306.400,103.082 301.925,97.731 294.900 L 94.302 290.400 90.575 290.400 C 88.525 290.400,86.758 290.544,86.650 290.719 M116.000 291.035 C 116.000 291.384,116.547 291.876,117.216 292.128 C 118.838 292.741,118.842 292.774,118.713 303.800 L 118.600 313.400 117.300 313.972 C 114.573 315.172,115.650 315.600,121.400 315.600 C 127.138 315.600,128.110 315.221,125.500 314.000 C 123.774 313.193,123.686 312.688,123.640 303.350 C 123.591 293.492,123.689 292.889,125.459 292.150 C 128.404 290.919,127.199 290.400,121.400 290.400 C 116.735 290.400,116.000 290.486,116.000 291.035 M129.015 290.776 C 128.887 290.983,129.011 291.338,129.291 291.566 C 131.797 293.605,132.029 293.990,134.018 299.400 C 135.151 302.480,136.219 305.360,136.391 305.800 C 137.635 308.976,138.081 310.165,139.076 312.948 C 141.007 318.355,141.092 318.269,146.394 305.600 C 151.579 293.210,151.770 292.838,153.223 292.332 C 156.209 291.291,154.722 290.400,150.000 290.400 C 145.273 290.400,143.759 291.278,146.866 292.217 C 149.257 292.940,148.563 296.378,143.941 306.700 C 142.857 309.121,142.838 309.095,140.296 301.700 C 137.640 293.970,137.459 292.534,139.100 292.174 C 140.986 291.761,141.200 291.643,141.200 291.013 C 141.200 290.303,129.448 290.075,129.015 290.776 M155.200 291.021 C 155.200 291.362,155.744 291.831,156.408 292.063 C 158.297 292.721,158.400 293.297,158.400 303.192 L 158.400 312.436 157.418 313.418 C 156.878 313.958,156.158 314.400,155.818 314.400 C 155.478 314.400,155.200 314.670,155.200 315.000 C 155.200 315.517,156.549 315.600,164.943 315.600 L 174.686 315.600 174.943 313.141 C 175.084 311.789,175.200 310.349,175.200 309.941 C 175.200 308.710,174.049 309.108,173.448 310.548 C 172.537 312.727,171.493 313.200,167.591 313.200 C 163.196 313.200,163.200 313.205,163.200 308.120 L 163.200 304.000 165.426 304.000 C 168.133 304.000,168.987 304.414,169.537 305.992 C 170.372 308.385,170.800 307.302,170.800 302.800 C 170.800 298.201,170.488 297.496,169.391 299.617 C 168.652 301.047,167.420 301.600,164.974 301.600 L 163.200 301.600 163.200 297.200 L 163.200 292.800 165.940 292.800 C 169.646 292.800,171.146 293.372,171.848 295.054 C 172.864 297.485,173.600 296.789,173.600 293.400 L 173.600 290.400 164.400 290.400 C 156.352 290.400,155.200 290.478,155.200 291.021 M177.600 290.958 C 177.600 291.305,178.233 291.854,179.007 292.177 L 180.414 292.765 180.307 303.082 L 180.200 313.400 178.900 313.972 C 176.173 315.172,177.250 315.600,183.000 315.600 C 188.706 315.600,189.956 315.123,187.027 314.064 C 185.759 313.606,185.634 313.407,185.399 311.484 C 184.374 303.110,186.813 302.071,190.316 309.390 C 192.861 314.706,194.954 316.374,199.100 316.391 C 201.548 316.401,201.885 315.727,199.895 314.800 C 198.916 314.344,197.918 313.050,195.729 309.400 C 192.351 303.766,192.418 304.085,194.344 302.755 C 198.107 300.155,198.277 294.030,194.652 291.677 C 192.568 290.325,177.600 289.693,177.600 290.958 M220.800 291.020 C 220.800 291.362,221.407 291.895,222.149 292.205 C 223.950 292.957,223.988 293.189,223.995 303.467 C 224.001 313.501,224.018 313.400,222.165 314.012 C 219.064 315.035,220.499 315.600,226.200 315.600 C 231.940 315.600,232.915 315.219,230.291 314.000 L 229.000 313.400 228.887 303.800 C 228.758 292.783,228.778 292.625,230.398 292.061 C 233.403 291.013,231.854 290.400,226.200 290.400 C 221.588 290.400,220.800 290.491,220.800 291.020 M234.000 294.029 C 234.000 297.935,235.005 299.173,235.643 296.053 C 236.087 293.880,236.806 293.455,240.088 293.426 L 243.000 293.400 243.107 303.113 C 243.219 313.258,243.082 314.244,241.532 314.472 C 241.054 314.542,240.589 314.825,240.498 315.100 C 240.372 315.483,241.559 315.600,245.567 315.600 C 249.952 315.600,250.800 315.503,250.800 315.000 C 250.800 314.670,250.468 314.400,250.062 314.400 C 248.115 314.400,247.978 313.615,248.093 303.160 L 248.200 293.400 251.085 293.425 C 254.230 293.452,255.594 294.157,255.606 295.762 C 255.615 297.020,256.222 297.754,257.005 297.453 C 257.486 297.269,257.619 296.923,257.451 296.295 C 257.319 295.803,257.208 294.275,257.205 292.900 L 257.200 290.400 245.600 290.400 L 234.000 290.400 234.000 294.029 M259.200 290.995 C 259.200 291.322,259.785 291.837,260.500 292.139 C 262.177 292.849,262.434 293.168,266.559 299.668 L 270.029 305.136 269.914 309.268 L 269.800 313.400 268.100 313.988 C 264.626 315.189,265.927 315.629,272.601 315.510 C 278.956 315.397,280.097 315.060,277.348 314.109 C 275.287 313.395,275.213 313.194,275.206 308.309 L 275.200 304.018 277.900 299.580 C 281.311 293.975,282.507 292.528,284.004 292.199 C 284.826 292.019,285.200 291.696,285.200 291.168 C 285.200 290.451,284.864 290.400,280.171 290.400 C 274.921 290.400,273.277 291.199,276.701 292.086 C 278.326 292.507,278.373 293.310,276.921 295.886 C 276.327 296.939,275.365 298.663,274.782 299.718 L 273.723 301.636 272.661 300.245 C 272.078 299.480,271.600 298.773,271.600 298.675 C 271.600 298.577,270.970 297.451,270.200 296.172 C 268.157 292.779,268.268 292.383,271.395 291.911 C 271.833 291.845,272.251 291.478,272.325 291.095 C 272.448 290.457,271.911 290.400,265.829 290.400 C 260.230 290.400,259.200 290.492,259.200 290.995 M322.800 291.385 C 322.800 291.715,323.295 292.103,323.900 292.248 C 326.031 292.757,326.000 292.597,326.000 303.187 C 326.000 313.955,325.906 314.400,323.639 314.400 C 323.000 314.400,322.780 314.601,322.876 315.100 C 323.099 316.267,333.600 316.376,333.600 315.212 C 333.600 314.689,333.337 314.400,332.862 314.400 C 331.172 314.400,330.764 313.194,330.886 308.553 L 331.000 304.200 332.473 304.077 C 335.021 303.866,337.067 304.644,337.542 306.005 C 338.494 308.738,339.200 307.459,339.200 303.000 C 339.200 298.849,338.544 297.255,337.801 299.598 C 337.290 301.208,336.462 301.600,333.571 301.600 L 330.800 301.600 330.800 297.400 L 330.800 293.200 334.426 293.200 C 338.584 293.200,339.445 293.530,340.239 295.432 C 341.277 297.915,342.052 297.208,341.918 293.900 L 341.800 291.000 332.300 290.893 C 324.077 290.800,322.800 290.866,322.800 291.385 M312.000 293.485 C 317.572 296.682,317.496 309.793,311.886 313.213 C 307.109 316.126,302.000 310.848,302.000 303.001 C 302.000 295.321,306.966 290.596,312.000 293.485 M189.720 293.443 C 194.741 295.966,192.237 302.981,186.548 302.331 L 185.400 302.200 185.285 298.027 C 185.131 292.437,185.977 291.563,189.720 293.443 M285.399 326.801 C 285.165 327.180,283.352 328.064,280.540 329.169 C 279.574 329.548,279.238 329.960,279.098 330.932 C 278.942 332.019,273.440 347.498,272.391 349.800 C 272.191 350.240,271.589 351.860,271.053 353.400 C 268.116 361.844,267.485 362.949,265.334 363.412 C 263.039 363.905,262.340 364.367,262.473 365.304 C 262.601 366.208,274.595 366.922,277.526 366.200 C 279.266 365.771,278.506 364.268,276.313 363.801 C 273.003 363.097,272.436 361.697,273.883 357.799 L 274.624 355.800 281.277 355.690 L 287.929 355.581 288.545 357.490 C 290.063 362.199,289.860 363.001,286.967 363.714 C 285.425 364.095,284.973 364.391,284.874 365.086 C 284.686 366.405,285.089 366.434,302.000 366.311 L 317.400 366.200 317.522 365.152 C 317.648 364.059,316.905 363.618,314.919 363.605 C 313.234 363.595,312.017 362.725,311.603 361.236 C 311.117 359.486,311.061 338.400,311.543 338.400 C 311.854 338.400,320.078 348.367,330.768 361.700 C 334.329 366.141,335.009 366.800,336.029 366.800 L 337.200 366.800 337.207 363.900 C 337.210 362.305,337.389 354.536,337.603 346.635 C 338.041 330.503,338.023 330.598,340.807 330.153 C 342.239 329.924,342.400 329.781,342.400 328.740 L 342.400 327.582 334.900 327.691 L 327.400 327.800 327.273 328.900 C 327.158 329.901,327.267 330.002,328.473 330.023 C 330.989 330.065,332.557 330.875,333.077 332.400 C 333.645 334.065,333.799 352.800,333.245 352.800 C 333.049 352.800,331.275 350.775,329.301 348.300 C 327.327 345.825,324.022 341.708,321.956 339.152 C 319.890 336.596,317.073 332.951,315.695 331.052 L 313.190 327.600 307.638 327.600 C 303.071 327.600,302.045 327.707,301.855 328.200 C 301.464 329.221,301.980 329.867,303.567 330.343 C 304.405 330.594,305.566 331.173,306.146 331.629 L 307.200 332.458 307.174 339.329 C 307.124 352.691,306.613 362.359,305.920 363.052 C 303.753 365.218,298.739 363.326,297.473 359.864 C 296.747 357.880,288.322 331.996,287.329 328.700 C 286.681 326.551,285.980 325.861,285.399 326.801 M142.400 327.366 C 122.870 331.659,122.492 362.625,141.920 366.750 C 149.817 368.427,157.042 365.937,161.364 360.049 C 163.070 357.725,163.100 357.489,161.803 356.639 C 160.818 355.993,160.779 356.015,158.292 358.551 C 148.531 368.506,134.394 358.725,136.409 343.410 C 138.291 329.097,153.786 326.249,159.614 339.145 C 160.538 341.189,160.933 341.484,161.914 340.862 C 162.467 340.511,162.164 329.600,161.601 329.600 C 161.449 329.600,160.998 329.960,160.600 330.400 C 159.742 331.348,159.282 331.397,158.431 330.632 C 155.134 327.664,147.821 326.174,142.400 327.366 M240.534 327.369 C 221.092 332.084,221.755 363.196,241.373 366.768 C 246.692 367.736,251.869 367.062,256.776 364.763 C 260.966 362.799,260.786 363.111,260.794 357.789 C 260.801 353.013,261.220 351.766,262.904 351.527 C 263.544 351.436,263.836 351.086,263.927 350.300 L 264.053 349.200 256.427 349.200 L 248.800 349.200 248.800 350.400 C 248.800 351.485,248.924 351.601,250.100 351.609 C 255.099 351.643,254.903 360.045,249.841 362.689 C 240.770 367.427,231.677 353.288,235.568 340.495 C 239.311 328.185,252.149 327.210,257.996 338.792 C 260.057 342.875,260.600 342.193,260.600 335.526 C 260.600 329.666,260.445 329.073,259.203 330.197 C 258.424 330.902,258.316 330.880,255.304 329.391 C 250.316 326.926,245.231 326.230,240.534 327.369 M58.601 328.396 C 58.240 329.534,58.571 329.861,60.379 330.150 C 63.114 330.588,63.107 330.523,62.372 349.600 C 61.867 362.707,61.796 363.038,59.348 363.655 C 57.790 364.047,57.600 364.220,57.600 365.247 L 57.600 366.400 64.200 366.400 L 70.800 366.400 70.800 365.205 C 70.800 364.118,70.654 363.986,69.185 363.751 C 66.439 363.312,66.397 363.129,66.423 351.811 C 66.448 341.117,66.739 337.793,67.492 339.600 C 67.721 340.150,68.843 342.850,69.986 345.600 C 71.128 348.350,72.299 351.140,72.588 351.800 C 72.878 352.460,73.840 354.800,74.727 357.000 C 78.895 367.336,78.468 366.586,80.264 366.720 C 82.291 366.871,82.100 367.138,85.795 359.000 C 87.494 355.260,89.337 351.210,89.893 350.000 C 90.448 348.790,91.393 346.720,91.992 345.400 C 95.823 336.968,95.600 336.703,95.599 349.676 C 95.599 362.518,95.460 363.141,92.476 363.721 C 90.909 364.026,90.764 364.154,90.876 365.128 L 91.000 366.200 99.200 366.200 L 107.400 366.200 107.400 365.244 C 107.400 364.230,106.847 363.782,105.169 363.433 C 103.294 363.044,103.200 362.232,103.200 346.430 C 103.200 330.191,103.055 331.067,105.831 330.490 C 107.229 330.200,107.400 330.035,107.400 328.982 L 107.400 327.800 101.758 327.689 C 95.239 327.562,95.889 327.198,93.681 332.200 C 92.807 334.180,91.639 336.790,91.085 338.000 C 90.531 339.210,89.270 342.000,88.283 344.200 C 84.054 353.623,82.722 356.462,82.602 356.314 C 82.551 356.251,81.028 352.600,79.219 348.200 C 77.410 343.800,75.701 339.660,75.421 339.000 C 75.141 338.340,73.961 335.505,72.800 332.700 L 70.688 327.600 64.771 327.600 C 59.214 327.600,58.839 327.648,58.601 328.396 M111.475 327.858 C 110.611 328.722,111.248 329.982,112.753 330.387 C 115.479 331.121,115.389 330.592,115.504 346.561 C 115.625 363.276,115.663 363.074,112.275 363.790 C 111.331 363.989,111.170 364.204,111.275 365.114 L 111.400 366.200 119.200 366.200 L 127.000 366.200 127.000 365.202 C 127.000 364.390,126.701 364.107,125.400 363.688 C 122.711 362.821,122.800 363.394,122.800 346.924 C 122.800 330.163,122.694 330.756,125.800 330.174 C 127.069 329.936,127.229 329.775,127.122 328.851 L 127.000 327.800 119.375 327.692 C 115.181 327.632,111.626 327.707,111.475 327.858 M165.875 327.858 C 164.977 328.756,165.660 329.850,167.410 330.318 C 170.004 331.012,170.001 330.989,169.994 347.126 C 169.988 362.881,169.946 363.174,167.659 363.641 C 166.034 363.974,165.480 364.479,165.668 365.458 C 165.802 366.151,166.335 366.200,173.805 366.200 L 181.800 366.200 181.925 365.114 C 182.056 363.983,182.150 364.040,179.069 363.410 C 177.523 363.094,177.200 361.647,177.200 355.028 C 177.200 349.004,177.216 348.889,178.100 348.652 C 179.306 348.329,191.963 348.333,193.583 348.657 L 194.867 348.913 194.733 355.493 C 194.587 362.711,194.258 363.600,191.729 363.600 C 189.638 363.600,188.205 365.532,189.833 366.157 C 190.658 366.474,204.942 366.474,205.767 366.157 C 207.307 365.566,205.986 363.600,204.049 363.600 C 202.086 363.600,202.000 362.904,202.000 347.085 C 202.000 330.724,201.953 331.025,204.634 330.350 C 206.257 329.941,206.430 329.786,206.321 328.847 L 206.200 327.800 197.800 327.800 L 189.400 327.800 189.400 328.774 C 189.400 329.605,189.687 329.821,191.359 330.248 C 194.514 331.052,194.575 331.192,194.740 337.966 L 194.885 343.909 190.442 344.061 C 187.999 344.144,184.020 344.145,181.600 344.062 L 177.200 343.912 177.200 338.138 C 177.200 331.590,177.559 330.744,180.577 330.178 C 181.870 329.935,182.029 329.778,181.922 328.851 L 181.800 327.800 173.975 327.692 C 169.671 327.632,166.026 327.707,165.875 327.858 M209.467 327.867 C 208.550 328.784,209.256 330.003,210.952 330.430 C 213.767 331.138,213.767 331.141,213.918 346.400 C 214.067 361.481,213.913 362.711,211.800 363.338 C 209.796 363.932,209.400 364.247,209.400 365.244 L 209.400 366.200 217.300 366.308 L 225.200 366.417 225.200 365.227 C 225.200 364.187,225.026 364.004,223.826 363.779 C 220.958 363.240,221.014 363.544,220.876 347.859 C 220.731 331.354,220.780 331.016,223.418 330.311 C 224.988 329.891,225.200 329.701,225.200 328.717 L 225.200 327.600 217.467 327.600 C 213.213 327.600,209.613 327.720,209.467 327.867 M284.374 343.891 C 285.654 347.672,286.603 350.863,286.484 350.983 C 286.135 351.332,276.867 351.232,276.648 350.877 C 276.478 350.603,277.680 346.908,280.677 338.481 C 281.570 335.971,281.817 336.333,284.374 343.891 " stroke="none" fill="#f2f3f5" fill-rule="evenodd"></path><path id="path2" d="M0.000 212.200 L 0.000 424.400 200.000 424.400 L 400.000 424.400 400.000 212.200 L 400.000 0.000 200.000 0.000 L 0.000 0.000 0.000 212.200 M145.387 62.500 C 147.338 65.195,151.846 71.450,155.405 76.400 C 158.964 81.350,165.786 90.800,170.567 97.400 C 175.347 104.000,179.965 110.390,180.829 111.600 C 190.988 125.822,199.721 137.572,200.002 137.399 C 200.286 137.224,210.438 123.320,219.970 110.053 C 220.976 108.652,222.533 106.492,223.428 105.253 C 225.731 102.067,246.206 73.859,248.170 71.166 C 249.067 69.937,251.600 66.389,253.800 63.282 L 257.800 57.632 300.103 57.616 L 342.405 57.600 342.303 86.300 L 342.200 115.000 331.500 115.107 L 320.800 115.213 320.800 159.400 L 320.800 203.587 331.500 203.693 L 342.200 203.800 342.303 232.501 L 342.405 261.203 288.703 261.101 L 235.000 261.000 234.897 232.844 C 234.823 212.378,234.918 204.540,235.246 204.144 C 235.607 203.709,237.933 203.600,246.849 203.600 L 258.000 203.600 258.000 175.151 L 258.000 146.703 255.700 149.738 C 254.435 151.408,252.140 154.503,250.600 156.616 C 249.060 158.730,247.422 160.941,246.959 161.530 C 246.496 162.118,239.311 171.870,230.991 183.200 C 222.671 194.530,213.863 206.500,211.417 209.800 C 208.970 213.100,205.356 217.998,203.384 220.684 C 201.413 223.371,199.668 225.531,199.506 225.484 C 199.344 225.438,189.573 212.170,177.793 196.000 C 166.013 179.830,155.770 165.790,155.032 164.800 C 154.294 163.810,152.002 160.660,149.939 157.800 C 143.024 148.216,142.256 147.200,141.927 147.200 C 141.747 147.200,141.600 159.887,141.600 175.394 L 141.600 203.588 153.100 203.694 L 164.600 203.800 164.703 232.500 L 164.805 261.200 111.200 261.200 L 57.595 261.200 57.697 232.500 L 57.800 203.800 68.500 203.693 L 79.200 203.587 79.200 159.400 L 79.200 115.213 68.500 115.107 L 57.800 115.000 57.697 86.300 L 57.595 57.600 99.717 57.600 L 141.840 57.600 145.387 62.500 M214.656 290.791 C 216.146 291.444,216.374 291.455,216.927 290.901 C 217.673 290.156,218.108 291.865,218.165 295.760 C 218.207 298.602,217.603 299.024,216.618 296.841 C 214.194 291.464,206.400 290.672,206.400 295.802 C 206.400 297.516,208.113 298.961,211.571 300.165 C 217.983 302.398,220.465 305.701,219.216 310.342 C 217.067 318.322,202.405 318.505,201.413 310.564 C 201.008 307.327,202.484 306.464,203.521 309.332 C 205.170 313.893,212.599 315.568,214.611 311.832 C 216.080 309.103,214.589 307.145,209.577 305.221 C 205.439 303.633,203.740 302.392,202.765 300.246 C 199.665 293.419,207.120 287.492,214.656 290.791 M314.516 291.122 C 320.963 293.973,323.952 302.963,320.681 309.665 C 315.066 321.168,297.559 317.830,296.184 304.993 C 295.045 294.349,304.919 286.876,314.516 291.122 M68.729 291.075 C 68.657 291.449,68.014 291.901,67.284 292.090 C 65.337 292.595,65.114 293.625,65.268 301.400 C 65.459 311.082,66.628 313.379,71.371 313.393 C 77.070 313.409,78.151 311.452,78.335 300.780 L 78.470 292.960 77.416 292.480 C 76.837 292.216,76.101 292.000,75.781 292.000 C 75.462 292.000,75.200 291.640,75.200 291.200 C 75.200 290.444,75.467 290.400,80.000 290.400 C 84.427 290.400,84.800 290.458,84.800 291.150 C 84.800 291.656,84.426 291.975,83.651 292.130 C 82.071 292.446,81.981 292.827,81.559 301.000 C 80.924 313.307,78.280 316.776,69.870 316.334 C 62.034 315.922,60.024 312.578,60.008 299.929 C 59.999 292.835,59.785 292.000,57.971 292.000 C 57.467 292.000,57.200 291.723,57.200 291.200 C 57.200 290.437,57.467 290.400,63.029 290.400 C 68.283 290.400,68.846 290.467,68.729 291.075 M97.731 294.900 C 103.082 301.925,106.769 306.400,107.203 306.400 C 107.449 306.400,107.600 303.995,107.600 300.076 C 107.600 292.930,107.441 292.443,104.972 292.042 C 103.937 291.874,103.363 291.553,103.275 291.094 C 103.154 290.464,103.625 290.400,108.400 290.400 C 113.192 290.400,113.647 290.462,113.525 291.100 C 113.452 291.485,113.002 291.856,112.525 291.924 C 110.616 292.197,110.286 295.059,110.034 313.527 C 109.981 317.464,109.084 317.000,103.605 310.200 C 101.123 307.120,97.829 303.032,96.284 301.115 C 94.740 299.198,93.324 297.724,93.138 297.838 C 92.671 298.127,92.711 311.313,93.182 312.552 C 93.444 313.243,94.070 313.709,95.182 314.042 C 98.538 315.047,97.191 315.633,91.799 315.512 C 86.826 315.401,85.493 314.963,87.949 314.248 C 89.795 313.711,90.000 312.521,90.000 302.334 L 90.000 293.187 88.500 292.494 C 85.279 291.004,85.878 290.400,90.575 290.400 L 94.302 290.400 97.731 294.900 M126.800 290.995 C 126.800 291.322,126.197 291.841,125.459 292.150 C 123.689 292.889,123.591 293.492,123.640 303.350 C 123.686 312.688,123.774 313.193,125.500 314.000 C 128.110 315.221,127.138 315.600,121.400 315.600 C 115.650 315.600,114.573 315.172,117.300 313.972 L 118.600 313.400 118.713 303.800 C 118.842 292.774,118.838 292.741,117.216 292.128 C 114.236 291.004,115.698 290.400,121.400 290.400 C 125.912 290.400,126.800 290.498,126.800 290.995 M141.200 291.013 C 141.200 291.643,140.986 291.761,139.100 292.174 C 137.459 292.534,137.640 293.970,140.296 301.700 C 142.838 309.095,142.857 309.121,143.941 306.700 C 148.563 296.378,149.257 292.940,146.866 292.217 C 143.759 291.278,145.273 290.400,150.000 290.400 C 154.722 290.400,156.209 291.291,153.223 292.332 C 151.770 292.838,151.579 293.210,146.394 305.600 C 141.092 318.269,141.007 318.355,139.076 312.948 C 138.081 310.165,137.635 308.976,136.391 305.800 C 136.219 305.360,135.151 302.480,134.018 299.400 C 132.029 293.990,131.797 293.605,129.291 291.566 C 128.177 290.659,129.497 290.400,135.224 290.400 C 140.324 290.400,141.200 290.490,141.200 291.013 M173.600 293.400 C 173.600 296.789,172.864 297.485,171.848 295.054 C 171.146 293.372,169.646 292.800,165.940 292.800 L 163.200 292.800 163.200 297.200 L 163.200 301.600 164.974 301.600 C 167.420 301.600,168.652 301.047,169.391 299.617 C 170.488 297.496,170.800 298.201,170.800 302.800 C 170.800 307.302,170.372 308.385,169.537 305.992 C 168.987 304.414,168.133 304.000,165.426 304.000 L 163.200 304.000 163.200 308.120 C 163.200 313.205,163.196 313.200,167.591 313.200 C 171.493 313.200,172.537 312.727,173.448 310.548 C 174.049 309.108,175.200 308.710,175.200 309.941 C 175.200 310.349,175.084 311.789,174.943 313.141 L 174.686 315.600 164.943 315.600 C 156.549 315.600,155.200 315.517,155.200 315.000 C 155.200 314.670,155.478 314.400,155.818 314.400 C 156.158 314.400,156.878 313.958,157.418 313.418 L 158.400 312.436 158.400 303.192 C 158.400 293.297,158.297 292.721,156.408 292.063 C 155.744 291.831,155.200 291.362,155.200 291.021 C 155.200 290.478,156.352 290.400,164.400 290.400 L 173.600 290.400 173.600 293.400 M194.652 291.677 C 198.277 294.030,198.107 300.155,194.344 302.755 C 192.418 304.085,192.351 303.766,195.729 309.400 C 197.918 313.050,198.916 314.344,199.895 314.800 C 201.885 315.727,201.548 316.401,199.100 316.391 C 194.954 316.374,192.861 314.706,190.316 309.390 C 186.813 302.071,184.374 303.110,185.399 311.484 C 185.634 313.407,185.759 313.606,187.027 314.064 C 189.956 315.123,188.706 315.600,183.000 315.600 C 177.250 315.600,176.173 315.172,178.900 313.972 L 180.200 313.400 180.307 303.082 L 180.414 292.765 179.007 292.177 C 178.233 291.854,177.600 291.305,177.600 290.958 C 177.600 289.693,192.568 290.325,194.652 291.677 M231.600 291.021 C 231.600 291.362,231.059 291.830,230.398 292.061 C 228.778 292.625,228.758 292.783,228.887 303.800 L 229.000 313.400 230.291 314.000 C 232.915 315.219,231.940 315.600,226.200 315.600 C 220.499 315.600,219.064 315.035,222.165 314.012 C 224.018 313.400,224.001 313.501,223.995 303.467 C 223.988 293.189,223.950 292.957,222.149 292.205 C 219.147 290.950,220.383 290.400,226.200 290.400 C 230.814 290.400,231.600 290.490,231.600 291.021 M257.205 292.900 C 257.208 294.275,257.319 295.803,257.451 296.295 C 257.619 296.923,257.486 297.269,257.005 297.453 C 256.222 297.754,255.615 297.020,255.606 295.762 C 255.594 294.157,254.230 293.452,251.085 293.425 L 248.200 293.400 248.093 303.160 C 247.978 313.615,248.115 314.400,250.062 314.400 C 250.468 314.400,250.800 314.670,250.800 315.000 C 250.800 315.503,249.952 315.600,245.567 315.600 C 241.559 315.600,240.372 315.483,240.498 315.100 C 240.589 314.825,241.054 314.542,241.532 314.472 C 243.082 314.244,243.219 313.258,243.107 303.113 L 243.000 293.400 240.088 293.426 C 236.806 293.455,236.087 293.880,235.643 296.053 C 235.005 299.173,234.000 297.935,234.000 294.029 L 234.000 290.400 245.600 290.400 L 257.200 290.400 257.205 292.900 M272.325 291.095 C 272.251 291.478,271.833 291.845,271.395 291.911 C 268.268 292.383,268.157 292.779,270.200 296.172 C 270.970 297.451,271.600 298.577,271.600 298.675 C 271.600 298.773,272.078 299.480,272.661 300.245 L 273.723 301.636 274.782 299.718 C 275.365 298.663,276.327 296.939,276.921 295.886 C 278.373 293.310,278.326 292.507,276.701 292.086 C 273.277 291.199,274.921 290.400,280.171 290.400 C 284.864 290.400,285.200 290.451,285.200 291.168 C 285.200 291.696,284.826 292.019,284.004 292.199 C 282.507 292.528,281.311 293.975,277.900 299.580 L 275.200 304.018 275.206 308.309 C 275.213 313.194,275.287 313.395,277.348 314.109 C 280.097 315.060,278.956 315.397,272.601 315.510 C 265.927 315.629,264.626 315.189,268.100 313.988 L 269.800 313.400 269.914 309.268 L 270.029 305.136 266.559 299.668 C 262.434 293.168,262.177 292.849,260.500 292.139 C 257.435 290.842,258.790 290.400,265.829 290.400 C 271.911 290.400,272.448 290.457,272.325 291.095 M341.918 293.900 C 342.052 297.208,341.277 297.915,340.239 295.432 C 339.445 293.530,338.584 293.200,334.426 293.200 L 330.800 293.200 330.800 297.400 L 330.800 301.600 333.571 301.600 C 336.462 301.600,337.290 301.208,337.801 299.598 C 338.544 297.255,339.200 298.849,339.200 303.000 C 339.200 307.459,338.494 308.738,337.542 306.005 C 337.067 304.644,335.021 303.866,332.473 304.077 L 331.000 304.200 330.886 308.553 C 330.764 313.194,331.172 314.400,332.862 314.400 C 333.337 314.400,333.600 314.689,333.600 315.212 C 333.600 316.376,323.099 316.267,322.876 315.100 C 322.780 314.601,323.000 314.400,323.639 314.400 C 325.906 314.400,326.000 313.955,326.000 303.187 C 326.000 292.597,326.031 292.757,323.900 292.248 C 323.295 292.103,322.800 291.715,322.800 291.385 C 322.800 290.866,324.077 290.800,332.300 290.893 L 341.800 291.000 341.918 293.900 M307.747 292.692 C 302.185 293.678,299.983 305.421,304.287 311.134 C 309.072 317.483,316.170 312.705,316.122 303.167 C 316.087 296.310,312.518 291.846,307.747 292.692 M185.373 293.327 C 185.261 293.617,185.222 295.732,185.285 298.027 L 185.400 302.200 186.548 302.331 C 192.237 302.981,194.741 295.966,189.720 293.443 C 188.167 292.663,185.653 292.596,185.373 293.327 M287.329 328.700 C 288.322 331.996,296.747 357.880,297.473 359.864 C 298.739 363.326,303.753 365.218,305.920 363.052 C 306.613 362.359,307.124 352.691,307.174 339.329 L 307.200 332.458 306.146 331.629 C 305.566 331.173,304.405 330.594,303.567 330.343 C 301.980 329.867,301.464 329.221,301.855 328.200 C 302.045 327.707,303.071 327.600,307.638 327.600 L 313.190 327.600 315.695 331.052 C 317.073 332.951,319.890 336.596,321.956 339.152 C 324.022 341.708,327.327 345.825,329.301 348.300 C 331.275 350.775,333.049 352.800,333.245 352.800 C 333.799 352.800,333.645 334.065,333.077 332.400 C 332.557 330.875,330.989 330.065,328.473 330.023 C 327.267 330.002,327.158 329.901,327.273 328.900 L 327.400 327.800 334.900 327.691 L 342.400 327.582 342.400 328.740 C 342.400 329.781,342.239 329.924,340.807 330.153 C 338.023 330.598,338.041 330.503,337.603 346.635 C 337.389 354.536,337.210 362.305,337.207 363.900 L 337.200 366.800 336.029 366.800 C 335.009 366.800,334.329 366.141,330.768 361.700 C 320.078 348.367,311.854 338.400,311.543 338.400 C 311.061 338.400,311.117 359.486,311.603 361.236 C 312.017 362.725,313.234 363.595,314.919 363.605 C 316.905 363.618,317.648 364.059,317.522 365.152 L 317.400 366.200 302.000 366.311 C 285.089 366.434,284.686 366.405,284.874 365.086 C 284.973 364.391,285.425 364.095,286.967 363.714 C 289.860 363.001,290.063 362.199,288.545 357.490 L 287.929 355.581 281.277 355.690 L 274.624 355.800 273.883 357.799 C 272.436 361.697,273.003 363.097,276.313 363.801 C 278.506 364.268,279.266 365.771,277.526 366.200 C 274.595 366.922,262.601 366.208,262.473 365.304 C 262.340 364.367,263.039 363.905,265.334 363.412 C 267.485 362.949,268.116 361.844,271.053 353.400 C 271.589 351.860,272.191 350.240,272.391 349.800 C 273.440 347.498,278.942 332.019,279.098 330.932 C 279.238 329.960,279.574 329.548,280.540 329.169 C 283.352 328.064,285.165 327.180,285.399 326.801 C 285.980 325.861,286.681 326.551,287.329 328.700 M151.003 327.344 C 153.402 327.860,157.237 329.557,158.431 330.632 C 159.282 331.397,159.742 331.348,160.600 330.400 C 160.998 329.960,161.449 329.600,161.601 329.600 C 162.164 329.600,162.467 340.511,161.914 340.862 C 160.933 341.484,160.538 341.189,159.614 339.145 C 153.786 326.249,138.291 329.097,136.409 343.410 C 134.394 358.725,148.531 368.506,158.292 358.551 C 160.779 356.015,160.818 355.993,161.803 356.639 C 163.100 357.489,163.070 357.725,161.364 360.049 C 152.051 372.736,131.329 368.028,128.047 352.480 C 124.781 337.002,136.454 324.219,151.003 327.344 M249.803 327.344 C 251.124 327.628,253.600 328.549,255.304 329.391 C 258.316 330.880,258.424 330.902,259.203 330.197 C 260.445 329.073,260.600 329.666,260.600 335.526 C 260.600 342.193,260.057 342.875,257.996 338.792 C 252.149 327.210,239.311 328.185,235.568 340.495 C 231.677 353.288,240.770 367.427,249.841 362.689 C 254.903 360.045,255.099 351.643,250.100 351.609 C 248.924 351.601,248.800 351.485,248.800 350.400 L 248.800 349.200 256.427 349.200 L 264.053 349.200 263.927 350.300 C 263.836 351.086,263.544 351.436,262.904 351.527 C 261.220 351.766,260.801 353.013,260.794 357.789 C 260.786 363.111,260.966 362.799,256.776 364.763 C 245.741 369.934,233.158 366.598,228.599 357.291 C 220.658 341.085,232.950 323.725,249.803 327.344 M72.800 332.700 C 73.961 335.505,75.141 338.340,75.421 339.000 C 75.701 339.660,77.410 343.800,79.219 348.200 C 81.028 352.600,82.551 356.251,82.602 356.314 C 82.722 356.462,84.054 353.623,88.283 344.200 C 89.270 342.000,90.531 339.210,91.085 338.000 C 91.639 336.790,92.807 334.180,93.681 332.200 C 95.889 327.198,95.239 327.562,101.758 327.689 L 107.400 327.800 107.400 328.982 C 107.400 330.035,107.229 330.200,105.831 330.490 C 103.055 331.067,103.200 330.191,103.200 346.430 C 103.200 362.232,103.294 363.044,105.169 363.433 C 106.847 363.782,107.400 364.230,107.400 365.244 L 107.400 366.200 99.200 366.200 L 91.000 366.200 90.876 365.128 C 90.764 364.154,90.909 364.026,92.476 363.721 C 95.460 363.141,95.599 362.518,95.599 349.676 C 95.600 338.185,95.506 337.700,93.940 341.124 C 93.469 342.156,92.592 344.080,91.992 345.400 C 91.393 346.720,90.448 348.790,89.893 350.000 C 89.337 351.210,87.494 355.260,85.795 359.000 C 82.100 367.138,82.291 366.871,80.264 366.720 C 78.468 366.586,78.895 367.336,74.727 357.000 C 73.840 354.800,72.878 352.460,72.588 351.800 C 72.299 351.140,71.128 348.350,69.986 345.600 C 68.843 342.850,67.721 340.150,67.492 339.600 C 66.739 337.793,66.448 341.117,66.423 351.811 C 66.397 363.129,66.439 363.312,69.185 363.751 C 70.654 363.986,70.800 364.118,70.800 365.205 L 70.800 366.400 64.200 366.400 L 57.600 366.400 57.600 365.247 C 57.600 364.220,57.790 364.047,59.348 363.655 C 61.796 363.038,61.867 362.707,62.372 349.600 C 63.107 330.523,63.114 330.588,60.379 330.150 C 58.571 329.861,58.240 329.534,58.601 328.396 C 58.839 327.648,59.214 327.600,64.771 327.600 L 70.688 327.600 72.800 332.700 M127.122 328.851 C 127.229 329.775,127.069 329.936,125.800 330.174 C 122.694 330.756,122.800 330.163,122.800 346.924 C 122.800 363.394,122.711 362.821,125.400 363.688 C 126.701 364.107,127.000 364.390,127.000 365.202 L 127.000 366.200 119.200 366.200 L 111.400 366.200 111.275 365.114 C 111.170 364.204,111.331 363.989,112.275 363.790 C 115.663 363.074,115.625 363.276,115.504 346.561 C 115.389 330.592,115.479 331.121,112.753 330.387 C 111.522 330.056,111.200 329.779,111.200 329.051 C 111.200 327.601,111.340 327.577,119.375 327.692 L 127.000 327.800 127.122 328.851 M181.922 328.851 C 182.029 329.778,181.870 329.935,180.577 330.178 C 177.559 330.744,177.200 331.590,177.200 338.138 L 177.200 343.912 181.600 344.062 C 184.020 344.145,187.999 344.144,190.442 344.061 L 194.885 343.909 194.740 337.966 C 194.575 331.192,194.514 331.052,191.359 330.248 C 189.687 329.821,189.400 329.605,189.400 328.774 L 189.400 327.800 197.800 327.800 L 206.200 327.800 206.321 328.847 C 206.430 329.786,206.257 329.941,204.634 330.350 C 201.953 331.025,202.000 330.724,202.000 347.085 C 202.000 362.904,202.086 363.600,204.049 363.600 C 205.986 363.600,207.307 365.566,205.767 366.157 C 204.942 366.474,190.658 366.474,189.833 366.157 C 188.205 365.532,189.638 363.600,191.729 363.600 C 194.258 363.600,194.587 362.711,194.733 355.493 L 194.867 348.913 193.583 348.657 C 191.963 348.333,179.306 348.329,178.100 348.652 C 177.216 348.889,177.200 349.004,177.200 355.028 C 177.200 361.647,177.523 363.094,179.069 363.410 C 182.150 364.040,182.056 363.983,181.925 365.114 L 181.800 366.200 173.805 366.200 C 166.335 366.200,165.802 366.151,165.668 365.458 C 165.480 364.479,166.034 363.974,167.659 363.641 C 169.946 363.174,169.988 362.881,169.994 347.126 C 170.001 330.989,170.004 331.012,167.410 330.318 C 165.983 329.936,165.600 329.654,165.600 328.984 C 165.600 327.609,165.796 327.579,173.975 327.692 L 181.800 327.800 181.922 328.851 M225.200 328.717 C 225.200 329.701,224.988 329.891,223.418 330.311 C 220.780 331.016,220.731 331.354,220.876 347.859 C 221.014 363.544,220.958 363.240,223.826 363.779 C 225.026 364.004,225.200 364.187,225.200 365.227 L 225.200 366.417 217.300 366.308 L 209.400 366.200 209.400 365.244 C 209.400 364.247,209.796 363.932,211.800 363.338 C 213.913 362.711,214.067 361.481,213.918 346.400 C 213.767 331.141,213.767 331.138,210.952 330.430 C 209.513 330.067,209.200 329.823,209.200 329.061 C 209.200 327.614,209.281 327.600,217.467 327.600 L 225.200 327.600 225.200 328.717 M280.677 338.481 C 277.680 346.908,276.478 350.603,276.648 350.877 C 276.867 351.232,286.135 351.332,286.484 350.983 C 286.790 350.677,282.131 337.044,281.668 336.889 C 281.459 336.820,281.013 337.536,280.677 338.481 " stroke="none" fill="#04244c" fill-rule="evenodd"></path></g></svg>